<svg width="2196" height="125" viewBox="0 0 2196 125" fill="none" xmlns="http://www.w3.org/2000/svg">
<path d="M0 0V56.15C0 94.04 30.72 124.75 68.6 124.75C106.48 124.75 137.2 94.04 137.2 56.15C137.2 94.04 167.92 124.75 205.8 124.75C243.68 124.75 274.4 94.04 274.4 56.15C274.4 94.04 305.11 124.75 343 124.75C380.89 124.75 411.6 94.04 411.6 56.15C411.6 94.04 442.32 124.75 480.2 124.75C518.09 124.75 548.8 94.04 548.8 56.15C548.8 94.04 579.52 124.75 617.4 124.75C655.28 124.75 686 94.04 686 56.15C686 94.04 716.71 124.75 754.6 124.75C792.49 124.75 823.2 94.04 823.2 56.15C823.2 94.04 853.92 124.75 891.8 124.75C929.69 124.75 960.4 94.04 960.4 56.15C960.4 94.04 991.12 124.75 1029 124.75C1066.88 124.75 1097.6 94.04 1097.6 56.15C1097.6 94.04 1128.31 124.75 1166.2 124.75C1204.09 124.75 1234.8 94.04 1234.8 56.15C1234.8 94.04 1265.52 124.75 1303.4 124.75C1341.29 124.75 1372 94.04 1372 56.15C1372 94.04 1402.72 124.75 1440.6 124.75C1478.49 124.75 1509.2 94.04 1509.2 56.15C1509.2 94.04 1539.91 124.75 1577.8 124.75C1615.69 124.75 1646.4 94.04 1646.4 56.15C1646.4 94.04 1677.11 124.75 1715 124.75C1752.89 124.75 1783.6 94.04 1783.6 56.15C1783.6 94.04 1814.32 124.75 1852.2 124.75C1890.09 124.75 1920.8 94.04 1920.8 56.15C1920.8 94.04 1951.51 124.75 1989.4 124.75C2027.29 124.75 2058 94.04 2058 56.15C2058 94.04 2088.71 124.75 2126.6 124.75C2164.49 124.75 2195.2 94.04 2195.2 56.15V0H0Z" fill="#C20000"/>
</svg>
