<svg width="600" height="600" viewBox="0 0 600 600" fill="none" xmlns="http://www.w3.org/2000/svg">
<path fill-rule="evenodd" clip-rule="evenodd" d="M237.54 579.8C206.56 579.8 175.75 570.86 148.45 553.96C122.37 537.82 100.42 515.09 84.96 488.23C70.06 462.34 61.82 433.44 61.11 404.66C60.33 373.1 68.28 342.74 84.72 314.44C95.67 295.6 110.57 278.72 129.01 264.29C145.45 251.42 164.71 240.48 186.25 231.76C189.93 230.27 193.65 228.85 197.24 227.47C212.66 221.57 227.22 215.99 238.36 205.62C248.99 195.72 259.92 182.21 271.49 167.91C282.1 154.79 293.07 141.23 304.96 129.01C323.92 109.52 342.19 96.8099 360.61 90.3199C363.93 83.9399 369.89 77.0799 380.57 72.3199C386.33 69.7499 392.94 68.4499 400.19 68.4499C406.27 68.4499 412.75 69.3599 419.44 71.1699C427.37 73.3099 436.15 76.8599 444.53 81.2599C444.7 77.9299 444.65 74.3199 444.6 70.7899C444.55 66.8699 444.49 62.8099 444.72 58.9099C445.85 39.3199 454.39 29.9399 461.35 25.5299C466.94 21.9899 473.54 20.1899 480.97 20.1899C484.27 20.1899 487.78 20.5499 491.42 21.2599C504.3 23.7799 514.16 30.6199 519.92 41.0399C524.77 49.8099 526.57 60.7899 525.26 73.6599C523.58 90.1399 516.39 109.27 508.87 124.48C522.73 136.43 535.91 153.52 538.49 172.14C540.54 186.92 535.29 200.63 524.41 209.25C524.66 288.23 478.45 379.02 458.07 415.19C435.97 454.41 411.03 487.4 383.94 513.23C353.92 541.86 321.19 561.75 286.65 572.34C270.53 577.29 254.01 579.8 237.55 579.8H237.53H237.54Z" fill="white"/>
<path fill-rule="evenodd" clip-rule="evenodd" d="M525.57 173.93C523.14 156.39 507.49 138.64 492.22 128.05C500.19 114.04 510.37 91.1398 512.28 72.3398C514.24 53.0198 508.03 37.8098 488.92 34.0798C479.36 32.2098 472.85 33.6998 468.34 36.5598C461.57 40.8498 458.37 49.1198 457.76 59.6698C457.25 68.4998 458.39 79.2298 456.95 88.3898C456.2 93.1998 454.64 97.5598 450.43 99.9298C441.48 93.8698 428.59 87.1598 416.06 83.7798C405.01 80.7998 394.2 80.5498 385.89 84.2498C376.89 88.2598 372.22 94.4298 370.38 100.93C349.77 106.59 331.29 120.67 314.33 138.11C289.9 163.22 268.58 195.33 247.27 215.17C231.38 229.96 210.81 235.9 191.16 243.86C152.51 259.5 117.29 284.39 96.02 320.99C22.08 448.24 148.22 601.17 282.84 559.86C350.98 538.95 405.69 481.58 446.71 408.77C482.01 346.11 513.91 265.52 511.2 202.15C512.6 201.5 513.93 200.74 515.18 199.86C522.53 194.67 527.17 185.49 525.57 173.93ZM387.06 105.89C387.64 103.51 389.68 101.61 392.96 100.15C398.07 97.8698 404.72 98.7498 411.52 100.58C423.78 103.88 436.43 110.99 443.85 116.62C445.94 118.21 448.64 118.76 451.19 118.14C463.9 115.01 470.06 106.94 472.94 96.6498C475.2 88.5898 475.09 78.8498 475 69.6998C474.95 64.5298 474.9 59.5898 475.73 55.5098C476.1 53.6898 476.34 51.9798 477.77 51.1998C479.53 50.2398 482.04 50.4798 485.58 51.1698C494.78 52.9698 495.92 61.2898 494.97 70.5898C492.93 90.5998 480 115.85 473.08 125.99C471.69 128.03 471.22 130.57 471.81 132.97C472.4 135.37 473.98 137.41 476.16 138.57C489.28 145.58 506.17 160.69 508.34 176.32C508.91 180.4 507.74 183.81 505.14 185.64C502.43 187.55 498.59 187.58 494.68 185.76C489.06 183.15 485.24 178.18 481.14 173.74C479.25 171.68 476.48 170.66 473.7 171C470.92 171.33 468.48 172.99 467.13 175.44C462.72 183.44 457.81 192.25 448.61 195.13C444.99 196.26 442.16 196.42 440.04 195.21C438.04 194.06 436.95 191.88 436.2 189.45C434.01 182.29 435.31 172.76 439.08 166.39C440.99 163.16 440.62 159.07 438.16 156.24C435.7 153.41 431.7 152.48 428.24 153.92C420.05 157.35 412.33 158.9 406.09 158.43C402.2 158.14 398.92 157.4 397.54 154.86C396.7 153.31 396.84 151.3 397.47 148.88C398.55 144.75 401.15 139.97 405.35 134.44C407.21 131.99 407.64 128.74 406.48 125.89C405.32 123.04 402.73 121.01 399.69 120.57C394.73 119.84 390.55 116.56 388.34 112.59C387.15 110.46 386.5 108.1 387.04 105.88L387.06 105.89ZM431.55 400.23C392.9 468.83 341.94 523.52 277.73 543.22C157.49 580.12 45.02 443.38 111.06 329.73C130.37 296.5 162.58 274.19 197.68 259.99C219.3 251.24 241.65 244.18 259.12 227.91C277.14 211.13 295.22 185.76 315.08 163.01C332.26 143.33 350.68 125.48 372.12 118.57C374.81 124.48 379.41 129.83 385.27 133.43C378.28 146.24 378.58 156.4 382.22 163.14C385.41 169.04 391.3 173.28 399.41 175.03C404.74 176.18 411.2 176.21 418.31 174.95C417.39 181.69 417.73 188.62 419.55 194.54C421.66 201.44 425.67 207.02 431.35 210.29C436.91 213.49 444.3 214.71 453.79 211.74C463.52 208.69 470.62 201.77 476.25 193.75C479.55 196.84 483.14 199.6 487.33 201.54C489.52 202.56 491.7 203.3 493.85 203.79C496.2 264.16 465.13 340.6 431.54 400.23H431.55Z" fill="#C20000"/>
</svg>
