<svg width="600" height="600" viewBox="0 0 600 600" fill="none" xmlns="http://www.w3.org/2000/svg">
<path d="M131 531.32C129.11 531.32 127.23 531.06 125.42 530.55C124.05 530.2 122.71 529.71 121.42 529.08L74.3702 510.04L28.8602 522.56C26.9602 523.08 25.0202 523.34 23.0702 523.34C16.3502 523.34 9.86019 520.13 5.73019 514.77C1.54019 509.33 0.140189 502.42 1.88019 495.8L101.71 117.51C103.65 108.23 111.22 101.53 120.61 100.8C121.41 100.71 122.18 100.67 122.95 100.67C123.15 100.67 123.35 100.67 123.55 100.67L516.86 112.02C528.69 112.36 538.1 121.87 538.27 133.67C538.6 156.27 541.12 180.23 546.19 209.05C557.02 270.65 574.31 333.93 597.56 397.14C599.94 403.62 598.97 410.92 594.95 416.69C590.78 422.67 584.03 426.23 576.88 426.23H571.13C572.55 429.95 573.99 433.35 575.47 436.51C578.72 443.45 578.21 451.73 574.16 458.1C573.18 459.63 572.01 461.04 570.68 462.28C571.24 463.39 571.8 464.33 572.36 465.08C577.16 471.49 577.88 480 574.24 487.27C570.47 494.79 562.73 499.65 554.52 499.65H528.35L529.34 502.63C531.51 509.13 530.37 516.37 526.31 522.01C522.15 527.78 515.49 531.22 508.48 531.22H132.86C132.25 531.27 131.62 531.3 131.01 531.3L131 531.32Z" fill="white"/>
<path d="M131 526.32C129.55 526.32 128.11 526.12 126.71 525.72C125.6 525.44 124.51 525.04 123.46 524.52L76.19 505.39C76.19 505.39 75 504.98 74.54 504.82L27.53 517.75C26.07 518.15 24.57 518.36 23.06 518.36C17.88 518.36 12.88 515.88 9.68003 511.74C6.44003 507.54 5.36003 502.2 6.71003 497.09L106.57 118.66C108.02 111.48 113.82 106.32 121.06 105.78C121.57 105.72 122.21 105.67 122.94 105.67C123.09 105.67 123.25 105.67 123.4 105.67L516.71 117.02C525.86 117.28 533.14 124.63 533.27 133.75C533.6 156.62 536.14 180.83 541.26 209.92C552.15 271.81 569.51 335.38 592.87 398.87C594.69 403.81 593.93 409.41 590.85 413.83C587.62 418.47 582.39 421.23 576.88 421.23H564C566.02 427.07 568.31 433.01 570.94 438.63C573.47 444.04 573.09 450.47 569.94 455.42C568.55 457.61 566.7 459.39 564.55 460.69C565.63 463.53 566.88 466.1 568.36 468.08C572.02 472.97 572.56 479.47 569.77 485.04C566.84 490.89 560.86 494.66 554.52 494.66H521.41L524.6 504.22C526.26 509.2 525.38 514.76 522.26 519.1C519.04 523.57 513.89 526.23 508.49 526.23H132.62C132.08 526.29 131.54 526.31 131.01 526.31L131 526.32ZM168.62 460.85C166.59 459.67 164.8 458.07 163.37 456.12C163.8 457.7 164.24 459.28 164.68 460.85H168.61H168.62ZM531.07 429.28C530.13 426.5 529.26 423.79 528.45 421.2L188.79 421C187.71 421 186.63 420.89 185.58 420.69C186.6 423.55 187.63 426.42 188.68 429.28H531.07ZM553.09 387.41C540.43 349.75 529.55 312.36 520.76 276.25C512.29 241.47 502.52 196.47 500.04 150.38L140.59 140.01C140.61 140.28 140.62 140.54 140.63 140.8C145.56 226.46 165.94 311.48 199.67 387.2L553.09 387.41Z" fill="white"/>
<path d="M581.52 403.04C558.8 341.29 540.75 276.8 529.35 212.01C524.81 186.22 521.56 160.13 521.18 133.92C521.14 131.25 519 129.17 516.35 129.09C472.09 127.81 427.82 126.54 383.56 125.26C312.97 123.22 242.38 121.19 171.79 119.15C155.54 118.68 139.29 118.21 123.04 117.74C122.72 117.74 122.43 117.76 122.15 117.8C120.35 117.85 118.73 118.9 118.36 121.28C107.03 164.23 95.6899 207.17 84.3599 250.12C66.4599 317.97 48.5499 385.81 30.6499 453.66C26.5599 469.15 22.4699 484.65 18.3799 500.14C17.4399 503.69 20.7399 507.06 24.3199 506.08C40.2399 501.7 56.1599 497.32 72.0799 492.95C72.9499 492.71 73.8899 492.54 74.7799 492.27C75.1399 492.36 75.5199 492.4 75.8999 492.42C77.5899 493.11 80.1999 493.97 80.5099 494.09C89.8299 497.86 99.1399 501.63 108.46 505.4C115.15 508.11 121.84 510.82 128.53 513.52C128.92 513.74 129.35 513.93 129.84 514.03C130.48 514.25 131.15 514.27 131.78 514.14H508.45C511.45 514.14 514.11 511.04 513.11 508.03C510.28 499.54 507.45 491.06 504.62 482.57H554.49C557.84 482.57 560.93 478.34 558.66 475.31C553.72 468.71 551.22 459.38 548.98 451H555.8C559.71 451 561.48 446.96 559.97 443.74C554.79 432.67 550.95 420.86 547.46 409.12C557.26 409.12 567.05 409.13 576.85 409.14C579.77 409.14 582.61 406.02 581.51 403.03L581.52 403.04ZM255.84 131.24C326.43 133.28 397.02 135.31 467.61 137.35C482.29 137.77 496.97 138.2 511.65 138.62C512.85 184.07 521.77 229.35 532.49 273.38C541.62 310.88 552.54 347.96 564.86 384.53C566.55 389.53 568.27 394.52 570.03 399.5C528.49 399.48 486.96 399.45 445.42 399.43C375.71 399.39 306 399.35 236.29 399.3C221.48 399.3 206.67 399.28 191.86 399.27C154.87 318.83 133.64 229.84 128.56 141.49C128.29 136.85 128.05 132.2 127.93 127.56C170.56 128.79 213.2 130.02 255.83 131.25L255.84 131.24ZM42.0899 448.19C69.0799 446.4 96.0599 444.31 123.05 442.49C123.25 446.95 123.46 451.42 123.66 455.88C95.2099 458.12 66.7499 460.34 38.2999 462.58C39.5699 457.78 40.8299 452.99 42.0999 448.19H42.0899ZM47.1699 428.94C49.4999 429.09 52.5299 428.26 54.4399 428.08C61.0799 427.43 67.7099 426.75 74.3499 426.06C90.2599 424.41 106.17 422.73 122.06 420.94C122.29 425.99 122.52 431.03 122.75 436.08C96.4299 437.86 70.1299 439.88 43.8099 441.64C44.9299 437.41 46.0399 433.18 47.1599 428.95L47.1699 428.94ZM61.6999 373.89C62.3199 371.56 62.9299 369.22 63.5499 366.89C63.8699 366.94 64.2099 366.95 64.5699 366.9C82.8199 364.29 101.01 361.32 119.25 358.65C119.47 363.52 119.69 368.4 119.91 373.27C99.8799 375.97 79.8199 378.46 59.7899 381.15C60.4299 378.73 61.0699 376.31 61.7099 373.89H61.6999ZM58.0299 387.82C78.7399 385.02 99.4899 382.45 120.2 379.67C120.4 384.01 120.59 388.36 120.79 392.71C98.6699 395.63 76.5499 398.55 54.4299 401.47C55.6299 396.92 56.8299 392.37 58.0299 387.82ZM84.3599 288.04C94.0699 285.53 103.77 283.01 113.48 280.5C113.72 284.66 113.98 288.82 114.27 292.98C103.14 295.73 92.0099 298.48 80.8799 301.23C82.0399 296.83 83.1999 292.44 84.3599 288.04ZM112.58 191.62C112.25 200.51 112.06 209.4 111.98 218.29C108.71 219.16 105.41 219.94 102.12 220.75C105.78 206.86 109.45 192.98 113.11 179.09C112.91 183.27 112.73 187.45 112.58 191.62ZM100.23 227.89C104.11 226.84 108.04 225.96 111.94 224.97C111.94 228.43 111.94 231.88 111.98 235.34C107.04 236.74 102.1 238.14 97.1599 239.55C98.1799 235.67 99.2099 231.78 100.23 227.9V227.89ZM95.2399 246.78C100.85 245.19 106.45 243.6 112.06 242.01C112.13 246.12 112.21 250.24 112.33 254.35C105.33 256.79 98.3199 259.22 91.3099 261.66C92.6199 256.7 93.9299 251.74 95.2399 246.78ZM89.3399 269.15C97.0799 266.46 104.82 263.76 112.56 261.07C112.72 265.36 112.9 269.65 113.11 273.94C104.15 276.26 95.1899 278.58 86.2299 280.9C87.2599 276.98 88.2999 273.07 89.3299 269.15H89.3399ZM79.0699 308.06C79.4599 308.11 79.8799 308.1 80.3299 307.99C91.7999 305.15 103.27 302.32 114.74 299.48C115.01 302.95 115.3 306.42 115.6 309.88C102.51 312.72 89.4199 315.56 76.3299 318.4C77.2399 314.95 78.1499 311.5 79.0599 308.05L79.0699 308.06ZM74.5199 325.32C74.7199 325.32 74.9199 325.3 75.1299 325.25C88.8199 322.28 102.51 319.31 116.2 316.34C116.7 321.59 117.25 326.83 117.84 332.08C117.36 331.92 116.84 331.85 116.25 331.93C101.26 334.04 86.2199 335.8 71.2199 337.84C72.3199 333.67 73.4199 329.5 74.5199 325.33V325.32ZM69.4499 344.51C85.5999 342.27 101.81 340.4 117.96 338.13C118.09 338.11 118.19 338.07 118.3 338.05C118.51 342.78 118.73 347.5 118.94 352.23C101.04 354.84 83.1799 357.74 65.2699 360.33C66.6599 355.06 68.0499 349.78 69.4399 344.51H69.4499ZM52.6599 408.14C75.4699 405.13 98.2699 402.12 121.08 399.11C121.31 404.25 121.55 409.4 121.78 414.54C106.51 416.26 91.2299 417.88 75.9399 419.46C69.1199 420.17 62.2999 420.87 55.4699 421.54C53.4599 421.74 51.4599 421.94 49.4499 422.12C49.3199 422.13 49.1499 422.14 48.9599 422.14C50.1899 417.47 51.4199 412.81 52.6499 408.14H52.6599ZM29.8599 494.56C32.0899 486.09 34.3299 477.62 36.5599 469.16C65.6899 466.86 94.8199 464.6 123.95 462.3C124.21 468.13 124.48 473.96 124.75 479.79C117.24 480.22 109.72 480.64 102.21 481.08C96.1199 481.44 90.0299 481.8 83.9399 482.19C81.6699 482.34 78.7599 482.13 76.3099 482.56C75.0799 482.43 73.7899 482.5 72.3899 482.86C63.4399 485.18 54.5399 487.77 45.6199 490.22C40.3699 491.66 35.1199 493.11 29.8699 494.55L29.8599 494.56ZM98.3499 490.98C100.04 490.88 101.74 490.77 103.43 490.67C110.68 490.25 117.94 489.83 125.19 489.42C125.38 493.64 125.57 497.85 125.77 502.07C116.63 498.37 107.49 494.67 98.3599 490.97L98.3499 490.98ZM546.1 472.93H155.59C142.79 429.29 133.62 384.36 128 338.94C127.95 337.85 127.9 336.77 127.85 335.68C127.81 334.91 127.63 334.23 127.34 333.65C123.62 302.02 121.62 270.17 121.31 238.36C124.87 270.64 130.43 302.72 137.73 334.33C146.62 372.79 158.23 410.58 172.29 447.46C173.06 449.47 174.67 451 176.95 451H538.99C540.91 458.03 542.91 466.04 546.09 472.92L546.1 472.93ZM548.47 441.36H180.29C155.03 374.29 137.04 303.09 129.85 231.18C134.98 259.52 141.66 287.59 149.94 315.17C159.33 346.4 170.88 376.95 184.63 406.53C185.33 408.03 187.22 408.92 188.8 408.92C232.61 408.95 276.43 408.97 320.24 409C389.95 409.04 459.66 409.08 529.37 409.13C532.05 409.13 534.74 409.13 537.42 409.13C540.62 419.99 544.12 430.88 548.48 441.36H548.47Z" fill="#C20000"/>
<path d="M203.47 237.01C215.72 237.26 224.88 227.67 226.06 215.99C226.12 215.72 226.16 215.44 226.16 215.12C226.18 214.8 226.16 214.52 226.1 214.25C225.41 202.52 216.47 192.64 204.27 192.43C192.13 192.22 181.83 202.19 181.58 214.32C181.33 226.46 191.37 236.76 203.47 237.01ZM204.27 198.87C213.22 199.06 219.52 206.51 219.72 215.12C218.38 235.43 187.69 234.84 188.02 214.32C188.16 205.66 195.7 198.68 204.27 198.87Z" fill="#C20000"/>
<path d="M271.86 238.44C284.11 238.69 293.27 229.1 294.45 217.42C294.51 217.15 294.55 216.87 294.55 216.55C294.57 216.23 294.55 215.95 294.49 215.68C293.8 203.95 284.86 194.07 272.66 193.86C260.52 193.65 250.22 203.62 249.97 215.75C249.72 227.89 259.76 238.19 271.86 238.44ZM272.66 200.3C281.61 200.49 287.91 207.94 288.11 216.55C286.77 236.86 256.08 236.27 256.41 215.75C256.55 207.09 264.09 200.11 272.66 200.3Z" fill="#C20000"/>
<path d="M337.62 239.81C349.87 240.06 359.03 230.47 360.21 218.79C360.27 218.52 360.31 218.24 360.31 217.92C360.33 217.6 360.31 217.32 360.25 217.05C359.56 205.32 350.62 195.44 338.42 195.23C326.28 195.02 315.98 204.99 315.73 217.12C315.48 229.26 325.52 239.56 337.62 239.81ZM338.42 201.67C347.37 201.86 353.67 209.31 353.87 217.92C352.53 238.23 321.84 237.64 322.17 217.12C322.31 208.46 329.85 201.48 338.42 201.67Z" fill="#C20000"/>
<path d="M402.07 241.16C414.32 241.41 423.48 231.82 424.66 220.14C424.72 219.87 424.76 219.59 424.76 219.27C424.78 218.95 424.76 218.67 424.7 218.4C424.01 206.67 415.07 196.79 402.87 196.58C390.73 196.37 380.43 206.34 380.18 218.47C379.93 230.61 389.97 240.91 402.07 241.16ZM402.86 203.02C411.81 203.21 418.11 210.66 418.31 219.27C416.97 239.58 386.28 238.99 386.61 218.47C386.75 209.81 394.29 202.83 402.86 203.02Z" fill="#C20000"/>
<path d="M466.51 242.51C478.76 242.76 487.92 233.17 489.1 221.49C489.16 221.22 489.2 220.94 489.2 220.62C489.22 220.3 489.2 220.02 489.14 219.75C488.45 208.02 479.51 198.14 467.31 197.93C455.17 197.72 444.87 207.69 444.62 219.82C444.37 231.96 454.41 242.26 466.51 242.51ZM467.31 204.36C476.26 204.55 482.56 212 482.76 220.61C481.42 240.92 450.73 240.33 451.06 219.81C451.2 211.15 458.74 204.17 467.31 204.36Z" fill="#C20000"/>
<path d="M212.7 258.09C200.55 257.98 190.35 268.05 190.2 280.17C190.05 292.32 200.19 302.52 212.28 302.67C224.51 302.82 233.63 293.14 234.7 281.46C234.76 281.19 234.8 280.91 234.79 280.59C234.81 280.27 234.78 279.99 234.72 279.72C233.91 267.99 224.92 258.19 212.71 258.08L212.7 258.09ZM196.63 280.17C196.66 271.5 204.12 264.45 212.7 264.53C221.64 264.61 228.05 271.98 228.34 280.6C227.2 300.92 196.55 300.71 196.63 280.18V280.17Z" fill="#C20000"/>
<path d="M346.87 259.57C334.73 259.46 324.52 269.53 324.37 281.65C324.22 293.8 334.36 304 346.45 304.15C358.68 304.3 367.8 294.62 368.86 282.94C368.92 282.67 368.96 282.39 368.95 282.07C368.97 281.75 368.94 281.47 368.88 281.2C368.07 269.47 359.08 259.67 346.87 259.56V259.57ZM330.8 281.65C330.83 272.98 338.29 265.93 346.87 266.01C355.82 266.09 362.22 273.46 362.51 282.08C361.37 302.4 330.72 302.19 330.8 281.66V281.65Z" fill="#C20000"/>
<path d="M411.32 260.28C399.17 260.17 388.97 270.24 388.82 282.36C388.67 294.51 398.81 304.71 410.9 304.86C423.13 305.01 432.25 295.33 433.32 283.65C433.38 283.38 433.42 283.1 433.41 282.78C433.43 282.46 433.4 282.18 433.34 281.91C432.53 270.18 423.54 260.38 411.33 260.27L411.32 260.28ZM395.26 282.36C395.29 273.69 402.75 266.64 411.33 266.72C420.27 266.8 426.68 274.17 426.97 282.79C425.83 303.11 395.18 302.9 395.26 282.37V282.36Z" fill="#C20000"/>
<path d="M475.78 260.99C463.64 260.88 453.43 270.95 453.28 283.07C453.13 295.22 463.27 305.42 475.36 305.57C487.59 305.72 496.71 296.04 497.77 284.36C497.83 284.09 497.87 283.81 497.86 283.49C497.88 283.17 497.85 282.89 497.79 282.62C496.98 270.89 487.99 261.09 475.78 260.98V260.99ZM459.71 283.07C459.74 274.4 467.2 267.35 475.78 267.43C484.73 267.51 491.13 274.88 491.42 283.5C490.28 303.82 459.63 303.61 459.71 283.08V283.07Z" fill="#C20000"/>
<path d="M256.52 345.25C255.71 333.52 246.72 323.72 234.51 323.61C222.37 323.5 212.16 333.57 212.01 345.69C211.86 357.84 222 368.04 234.09 368.19C246.32 368.34 255.44 358.66 256.5 346.98C256.56 346.71 256.6 346.43 256.59 346.11C256.61 345.79 256.58 345.51 256.52 345.24V345.25ZM218.44 345.69C218.47 337.02 225.93 329.97 234.51 330.05C243.46 330.13 249.86 337.5 250.15 346.12C249.01 366.44 218.36 366.23 218.44 345.7V345.69Z" fill="#C20000"/>
<path d="M324.92 346.01C324.11 334.28 315.12 324.48 302.91 324.37C290.77 324.26 280.56 334.33 280.41 346.45C280.26 358.6 290.4 368.8 302.49 368.95C314.72 369.1 323.84 359.42 324.9 347.74C324.96 347.47 325 347.19 324.99 346.87C325.01 346.55 324.98 346.27 324.92 346V346.01ZM286.84 346.45C286.87 337.78 294.33 330.73 302.91 330.81C311.86 330.89 318.26 338.26 318.55 346.88C317.41 367.2 286.76 366.99 286.84 346.46V346.45Z" fill="#C20000"/>
<path d="M390.69 346.73C389.88 335 380.89 325.2 368.68 325.09C356.53 324.98 346.33 335.05 346.18 347.17C346.03 359.32 356.17 369.52 368.26 369.67C380.49 369.82 389.61 360.14 390.68 348.46C390.74 348.19 390.78 347.91 390.77 347.59C390.79 347.27 390.76 346.99 390.7 346.72L390.69 346.73ZM352.61 347.18C352.64 338.51 360.1 331.46 368.68 331.54C377.62 331.62 384.03 338.99 384.32 347.61C383.18 367.93 352.53 367.72 352.61 347.19V347.18Z" fill="#C20000"/>
<path d="M455.14 347.44C454.33 335.71 445.34 325.91 433.13 325.8C420.99 325.69 410.78 335.76 410.63 347.88C410.48 360.03 420.62 370.23 432.71 370.38C444.94 370.53 454.06 360.85 455.12 349.17C455.18 348.9 455.22 348.62 455.21 348.3C455.23 347.98 455.2 347.7 455.14 347.43V347.44ZM417.06 347.89C417.09 339.22 424.55 332.17 433.13 332.25C442.08 332.33 448.48 339.7 448.77 348.32C447.63 368.64 416.98 368.43 417.06 347.9V347.89Z" fill="#C20000"/>
<path d="M497.59 326.52C485.44 326.41 475.24 336.48 475.09 348.6C474.94 360.75 485.08 370.95 497.17 371.1C509.4 371.25 518.52 361.57 519.59 349.89C519.65 349.62 519.69 349.34 519.68 349.02C519.7 348.7 519.67 348.42 519.61 348.15C518.8 336.42 509.81 326.62 497.6 326.51L497.59 326.52ZM481.52 348.6C481.55 339.93 489.01 332.88 497.59 332.96C506.54 333.04 512.94 340.41 513.23 349.03C512.09 369.35 481.44 369.14 481.52 348.61V348.6Z" fill="#C20000"/>
<path d="M284.2 322.32C307.6 295.8 323.81 284.07 321.72 262.95C320.59 251.5 308.92 240.9 297.99 244.48C288 247.75 284.19 259.92 283.88 270.43C282.54 263.6 280.6 256.64 276.2 251.25C262.73 234.76 226.47 250.56 246.75 281.77C258.31 299.56 271.71 309.85 284.19 322.33L284.2 322.32Z" fill="#C20000"/>
</svg>
