<svg width="455" height="455" viewBox="0 0 455 455" fill="none" xmlns="http://www.w3.org/2000/svg">
<g clip-path="url(#clip0_433_31)">
<path d="M227.5 0C101.761 0 0 101.75 0 227.5C0 353.239 101.75 455 227.5 455C353.239 455 455 353.25 455 227.5C455.001 101.761 353.251 0 227.5 0ZM310.759 268.333C322.474 280.049 322.474 299.044 310.759 310.76C304.901 316.618 297.223 319.547 289.546 319.547C281.869 319.547 274.191 316.618 268.333 310.76L227.5 269.927L186.668 310.759C180.81 316.617 173.132 319.546 165.455 319.546C157.778 319.546 150.1 316.617 144.242 310.759C132.527 299.043 132.527 280.048 144.242 268.332L185.074 227.5L144.242 186.668C132.527 174.952 132.527 155.957 144.242 144.241C155.958 132.525 174.953 132.525 186.669 144.241L227.501 185.073L268.333 144.241C280.049 132.525 299.044 132.525 310.76 144.241C322.475 155.957 322.475 174.952 310.76 186.668L269.927 227.5L310.759 268.333Z" fill="black"/>
</g>
<defs>
<clipPath id="clip0_433_31">
<rect width="455" height="455" fill="white"/>
</clipPath>
</defs>
</svg>
