<svg width="1962" height="1934" viewBox="0 0 1962 1934" fill="none" xmlns="http://www.w3.org/2000/svg">
<path d="M1961.66 967C1961.66 1023.03 1887.43 1071.9 1878.08 1125.28C1868.46 1180.14 1921.37 1251.39 1902.76 1302.56C1883.78 1354.64 1797.29 1375.17 1769.89 1422.53C1742.23 1470.31 1767.52 1555.45 1732.2 1597.47C1696.76 1639.64 1608.51 1629.45 1566.37 1664.85C1524.31 1700.16 1519.14 1788.89 1471.3 1816.54C1423.99 1843.93 1344.55 1804.31 1292.49 1823.24C1241.28 1841.87 1206.01 1923.47 1151.13 1933.05C1097.78 1942.43 1036.85 1877.92 980.83 1877.92C924.81 1877.92 863.88 1942.43 810.48 1933.05C755.64 1923.46 720.35 1841.86 669.14 1823.24C617.07 1804.31 537.65 1843.93 490.32 1816.54C442.5 1788.86 437.31 1700.15 395.27 1664.85C353.12 1629.45 264.85 1639.64 229.46 1597.47C194.12 1555.45 219.42 1470.31 191.74 1422.53C164.35 1375.17 77.87 1354.64 58.9 1302.57C40.26 1251.39 93.18 1180.13 83.55 1125.27C74.18 1071.91 0 1023.04 0 967C0 910.96 74.18 862.12 83.55 808.74C93.19 753.86 40.26 682.65 58.9 631.46C77.87 579.36 164.35 558.85 191.74 511.49C219.42 463.71 194.13 378.57 229.46 336.53C264.85 294.34 353.15 304.57 395.27 269.15C437.33 233.84 442.5 145.12 490.32 117.47C537.65 90.06 617.07 129.72 669.14 110.77C720.35 92.14 755.64 10.53 810.48 0.940046C863.83 -8.40995 924.76 56.06 980.83 56.06C1036.9 56.06 1097.76 -8.41995 1151.14 0.930046C1206.02 10.52 1241.29 92.1301 1292.5 110.76C1344.55 129.71 1423.99 90.06 1471.31 117.46C1519.14 145.11 1524.34 233.86 1566.38 269.14C1608.57 304.56 1696.78 294.37 1732.21 336.52C1767.53 378.56 1742.24 463.7 1769.9 511.5C1797.29 558.86 1883.79 579.36 1902.77 631.46C1921.38 682.64 1868.47 753.87 1878.09 808.74C1887.44 862.12 1961.67 910.96 1961.67 967H1961.66Z" fill="white"/>
</svg>
