<svg width="600" height="600" viewBox="0 0 600 600" fill="none" xmlns="http://www.w3.org/2000/svg">
<path fill-rule="evenodd" clip-rule="evenodd" d="M62.15 494.23C51.84 494.23 42.94 492.87 35.69 490.2C26.95 486.98 20.14 481.82 15.45 474.89C11.88 469.6 8.37998 460.47 12.03 447C14.45 438.05 20.17 427.08 29.02 414.4C58.7 371.87 120.33 313.41 151.45 290.22C153.83 288.44 157.14 285.86 161.32 282.59C170.82 275.16 185.1 264 201.91 252C203.32 250.65 204.9 249.52 206.63 248.63C206.68 248.61 206.72 248.58 206.77 248.56C241.46 224.19 273.62 205.9 302.37 194.19C329.19 183.26 354.03 177.72 376.19 177.72C396.58 177.72 414.81 182.39 430.52 191.61C432.52 189.79 434.55 187.94 436.53 186.13C429.46 173.9 429.52 158.47 437.53 146L440.09 142.01C447.23 130.89 459.38 124.26 472.58 124.26C474.52 124.26 476.44 124.41 478.35 124.69C485.15 113.24 497.62 105.77 511.55 105.77C512.16 105.77 512.79 105.78 513.4 105.81L515.47 105.91C530.68 106.63 543.67 116.11 549.29 129.62C549.46 129.62 549.63 129.62 549.8 129.62C564.32 129.62 577.47 137.64 584.13 150.54L585.17 152.56C591.85 165.52 590.61 180.6 582.78 192.04C590.42 204.49 590.47 220.53 582.38 233.13L580.06 236.74C572.92 247.85 560.77 254.49 547.55 254.49C546.08 254.49 544.62 254.41 543.18 254.25C540.74 258.83 537.39 262.91 533.31 266.19C526.47 271.7 517.87 274.73 509.11 274.73C508.5 274.73 507.88 274.72 507.27 274.69L506.63 274.66C496.48 274.18 486.71 269.57 479.87 262.01C477.89 259.82 476.18 257.42 474.76 254.87C473.71 255.4 472.72 255.9 471.76 256.37C471.33 279.83 459.9 306.6 448.23 323.2C432.95 344.94 406.03 366.71 368.22 387.91C321.94 413.86 269.04 433.97 234.03 447.28L231.5 448.24C179.37 468.06 113.98 491.17 70.66 493.95C67.74 494.14 64.88 494.23 62.16 494.23H62.15Z" fill="white"/>
<path fill-rule="evenodd" clip-rule="evenodd" d="M566.63 191.42C576.94 183.74 580.24 169.67 574.31 158.17L573.26 156.14C567.16 144.31 553.19 138.87 540.69 143.48L540.15 143.68L539.8 141.04C538.13 128.39 527.64 118.74 514.89 118.14L512.81 118.04C499.61 117.41 488.09 126.63 485.65 139.42L480.87 137.84C469.43 134.05 456.88 138.48 450.37 148.62L447.81 152.61C440.83 163.47 442.74 177.78 452.31 186.44L453.32 187.35C447.4 192.76 438.62 200.79 431.71 207.05C397.68 181.9 351.93 187.2 306.97 205.51C273.14 219.29 239.79 240.24 212.89 259.2C212.67 259.29 212.44 259.39 212.22 259.5C211.3 259.97 210.52 260.6 209.88 261.33C185.7 278.54 167.12 293.79 158.75 300.03C127.25 323.51 67.1 381.2 39.04 421.4C31.27 432.54 25.91 442.5 23.83 450.2C21.79 457.73 22.7 463.78 25.58 468.05C28.8 472.81 33.6 476.4 39.92 478.73C47.61 481.57 57.84 482.52 69.87 481.75C112.02 479.05 178.42 455.35 227.15 436.82C260.9 423.99 315.6 403.41 362.24 377.26C394.26 359.3 422.45 338.62 438.22 316.19C451.03 297.97 461.55 269.44 459.21 248.95C465.42 245.93 474.66 241.25 482.15 237.43C482.45 243.49 484.84 249.29 488.95 253.82C493.66 259.02 500.25 262.13 507.25 262.46L507.86 262.49C520.74 263.1 532.17 254.31 534.9 241.71L535.42 239.32L536.12 239.66C548.13 245.45 562.57 241.37 569.78 230.16L572.1 226.54C578.53 216.53 577.47 203.47 569.51 194.63L566.64 191.44L566.63 191.42ZM424.87 306.79C410.27 327.56 383.91 346.39 354.25 363.02C308.37 388.75 254.54 408.94 221.35 421.56C174.07 439.54 109.73 462.84 68.83 465.46C60.91 465.97 53.96 465.7 48.35 464.27C44.26 463.23 40.98 461.69 39.1 458.91C38.73 458.37 38.99 457.61 39.1 456.74C39.31 455.17 39.82 453.43 40.54 451.53C42.78 445.62 46.96 438.56 52.42 430.73C62.48 416.32 76.79 399.6 92.38 383.1C94.4 385.85 96.53 388.5 98.88 391.04C102.89 395.36 107.05 399.28 111.95 402.64C113.26 403.86 115.32 403.78 116.54 402.46C117.76 401.15 117.68 399.09 116.37 397.87C113.07 393.75 110.54 389.34 108.25 384.63C106.22 380.45 104.7 376.18 103.33 371.76C122.77 352.01 143.08 333.45 158.95 320.58C161.2 325.55 163.89 330.33 166.99 334.95C173.73 345.01 181.88 354.21 189.66 362.99C190.73 364.42 192.77 364.72 194.2 363.64C195.63 362.57 195.92 360.53 194.85 359.1C188.86 349.55 182.55 339.55 177.74 328.95C175.04 323 172.99 316.9 171.78 310.61C180.38 303.96 195.38 291.86 214.29 278.17C216.48 281.18 218.69 284.11 221.09 286.97C224.09 290.54 227.15 293.91 230.81 297.14C231.97 298.51 234.02 298.67 235.39 297.52C236.76 296.36 236.92 294.31 235.77 292.94C233.41 289.16 231.62 285.42 229.92 281.51C228.29 277.76 226.93 274.01 225.59 270.14C240.72 259.6 257.74 248.6 275.62 238.73C279.2 247.09 283.04 255.02 287.58 262.6C292.75 271.22 298.59 279.3 305.79 286.89C306.91 288.29 308.96 288.51 310.35 287.39C311.75 286.27 311.97 284.23 310.85 282.83C305.36 274.71 301.21 266.35 297.76 257.59C294.43 249.14 291.97 240.41 289.82 231.25C297.52 227.39 305.32 223.8 313.15 220.61C324.87 215.84 336.65 211.92 348.2 209.35C353.54 219.4 358.64 229.05 364.26 238.6C368.33 245.53 372.58 252.31 377.35 259.11C378.26 260.65 380.25 261.17 381.79 260.26C383.33 259.35 383.85 257.36 382.94 255.82C379.42 248.54 376.41 241.36 373.59 234.07C370.1 225.06 367.01 216.04 363.85 206.71C384.58 204.45 404.09 207.54 420.54 219.07C415.06 228.11 415.64 237.62 419.75 244.3C423.89 251.02 432.15 255.9 443.26 254.47C443.66 271.16 434.83 292.61 424.88 306.77L424.87 306.79ZM548.34 195.48L557.38 205.53C560.42 208.9 560.82 213.89 558.37 217.71L556.05 221.33C553.3 225.61 547.78 227.17 543.2 224.96L533.17 220.12C530.92 219.04 528.3 219.04 526.05 220.14C523.81 221.24 522.19 223.3 521.66 225.74L518.95 238.25C517.91 243.06 513.55 246.42 508.63 246.18L508.02 246.15C505.35 246.02 502.83 244.84 501.03 242.85C499.23 240.86 498.3 238.24 498.44 235.57L499.03 224.19C499.18 221.27 497.76 218.5 495.31 216.92C492.86 215.34 489.74 215.19 487.15 216.53C487.15 216.53 454.63 233.34 447.26 236.55C440.83 239.35 435.76 239.18 433.66 235.77C431.56 232.37 433.41 227.54 438.19 223.22C449.19 213.31 470.98 193.33 470.98 193.33C472.67 191.78 473.63 189.59 473.62 187.29C473.62 184.99 472.64 182.81 470.93 181.27L463.28 174.35C459.62 171.05 458.9 165.58 461.56 161.43L464.12 157.44C466.61 153.57 471.4 151.87 475.77 153.32L490 158.04C492.33 158.81 494.88 158.49 496.95 157.17C499.02 155.85 500.38 153.67 500.66 151.23L501.58 143.24C502.19 137.97 506.77 134.08 512.07 134.33L514.15 134.43C519.02 134.66 523.02 138.34 523.66 143.17L525.34 155.92C525.66 158.38 527.09 160.55 529.21 161.83C531.33 163.11 533.92 163.36 536.24 162.5L546.35 158.78C551.12 157.02 556.45 159.1 558.78 163.62L559.83 165.65C562.14 170.14 560.78 175.65 556.64 178.53L549.75 183.33C547.83 184.67 546.58 186.76 546.31 189.09C546.04 191.41 546.79 193.74 548.35 195.48H548.34Z" fill="#C20000"/>
</svg>
