<svg width="510" height="447" viewBox="0 0 510 447" fill="none" xmlns="http://www.w3.org/2000/svg">
<g clip-path="url(#clip0_349_428)">
<path d="M445.08 446.31C438.66 446.31 431.99 443.49 424.68 437.68C415.98 430.76 407.13 422.29 396.84 411.02C396.72 410.89 396.43 410.62 396.1 410.29C395.87 410.07 395.62 409.82 395.36 409.56C382.11 409.73 368.53 410.69 355.37 411.62C349.86 412.01 344.16 412.41 338.54 412.75C334.82 412.98 331.1 413.21 327.38 413.45C308.98 414.62 289.95 415.82 271.05 415.82C268.73 415.82 266.41 415.8 264.09 415.76C263.4 415.75 262.7 415.74 261.98 415.74C255.42 415.68 247.26 415.61 239.75 411.89C223.84 404.01 219.86 386.59 219.03 373.67C218.52 373.67 218.01 373.67 217.5 373.67C211.72 373.67 205.93 373.62 200.27 373.53C196.55 373.47 192.93 373.2 189.43 372.94C185.86 372.67 182.49 372.42 179.39 372.42C173.75 372.42 170.32 373.25 167.93 375.2C161.89 380.12 155.88 385.55 150.07 390.8C147.9 392.76 145.73 394.72 143.55 396.66L140.6 399.3C133.57 405.59 126.3 412.1 118.38 417.95C114.73 420.65 107.95 425.66 99.7498 425.66C94.5198 425.66 89.7398 423.67 85.9198 419.91C77.2998 411.42 78.9898 397.93 80.1098 389C80.2898 387.6 80.4498 386.28 80.5198 385.37C80.9798 379.3 81.4698 373.8 81.9998 368.67C81.7498 368.68 81.4998 368.69 81.2598 368.7C77.8598 368.84 74.3398 368.99 70.7598 368.99C64.0798 368.99 58.5698 368.46 53.4098 367.32C35.8398 363.44 23.3398 351.27 17.2698 332.14C-3.06018 268.09 -0.810186 199.1 1.37981 132.38L1.69981 122.38C2.46981 98 3.34981 70.36 18.7098 47.13C33.0698 25.41 60.8098 20.15 77.3798 17.01C78.6298 16.77 79.8998 16.65 81.1498 16.65C83.1998 16.65 85.2098 16.97 87.1198 17.59C137.91 11.24 188.92 6.56 238.79 3.69C245.16 3.32 251.76 2.88 258.15 2.46C276.36 1.25 295.19 0 313.98 0C337.64 0 357.84 2.07 375.75 6.32C410.13 14.48 432.85 36.47 441.46 69.92C446.6 89.9 449.86 111.89 451.56 138.38C475.62 138.59 492.15 146.73 500.7 162.59C506.92 174.13 507.33 187.61 507.69 199.5C507.77 202.21 507.85 204.77 508 207.14C508.93 222.29 509.49 237.61 509.66 252.69C509.69 255.31 509.73 257.95 509.76 260.6C510.13 287.69 510.51 315.71 505.25 342.63C500.73 365.77 488.36 384.22 471.42 393.7C471.61 406.79 469.51 420.1 465.5 430.6C460.08 444.77 449.42 446.3 445.08 446.3V446.31Z" fill="white"/>
<path d="M497.66 252.84C497.49 237.85 496.94 222.86 496.02 207.89C495.26 195.4 496.26 179.67 490.13 168.29C480.55 150.5 458.12 149.38 440.21 150.83C439.03 124.51 436.26 97.8801 429.84 72.9101C422.2 43.2401 402.71 25.0501 372.98 18.0001C330 7.80012 283.1 13.1701 239.48 15.6801C188.16 18.6301 136.97 23.4001 85.97 29.8401C85.74 29.8701 85.51 29.9101 85.29 29.9601C83.79 28.9001 81.86 28.3801 79.61 28.8001C61.25 32.2801 39.74 37.0701 28.72 53.7501C15.31 74.0401 14.44 99.3001 13.7 122.76C11.55 190.29 7.99005 263.21 28.7 328.52C33.02 342.14 41.63 352.44 55.99 355.61C69.03 358.49 82.36 355.89 95.53 356.55C94.18 366.42 93.2401 376.37 92.48 386.29C91.9901 392.74 88.94 406.05 94.34 411.37C99.65 416.6 106.58 411.75 111.24 408.31C119.77 402 127.64 394.76 135.55 387.71C143.76 380.39 151.81 372.84 160.34 365.9C170.84 357.35 185.93 361.3 200.45 361.54C210.62 361.71 220.79 361.72 230.96 361.59C230.4 375.86 231.51 394.43 245.07 401.14C250.78 403.97 258.07 403.66 264.28 403.77C288.78 404.17 313.37 402.26 337.81 400.78C358.46 399.53 379.25 397.5 399.95 397.54C400.15 397.54 400.34 397.54 400.52 397.54C402.27 399.66 404.95 402.1 405.71 402.93C413.9 411.9 422.63 420.72 432.15 428.29C440.21 434.7 449.62 438.56 454.3 426.33C458.78 414.62 460.27 399.43 459.02 386.22C478.3 379.34 489.62 360.07 493.48 340.34C499.01 312.04 497.99 281.53 497.66 252.83V252.84ZM98.38 399.43C98.48 399.12 98.77 398.96 99.17 398.92C98.79 399.11 98.42 399.33 98.38 399.43ZM106.41 403.79C106.38 403.88 106.34 403.97 106.28 404.05C106.33 403.99 106.37 403.89 106.41 403.79ZM176.28 346.33C165.88 346.16 159.48 348.01 151.7 354.25C136.18 366.7 122.36 381.27 106.71 393.56C106.68 392.44 106.67 391.49 106.71 390.9C107.55 377.94 108.71 364.89 110.81 352.07C111.38 348.57 109.93 343.74 105.73 343.12C90.9601 340.94 75.82 344.41 61.2 341.86C41.87 338.49 40.12 316.41 36.81 300.41C28.78 261.61 26.9 221.86 27 182.33C27.05 163.13 27.59 143.93 28.19 124.73C28.76 106.75 28.76 88.6701 35.86 71.8201C38.41 65.7701 41.16 59.7801 46.41 55.5901C55.94 47.9801 69.47 45.4501 81.29 43.2301C82.42 44.1401 83.98 44.6201 85.98 44.3701C163.41 34.5901 242.51 26.5901 320.65 27.2101C349.5 27.4401 390.46 28.3001 407.54 56.0601C414.23 66.9401 416.92 79.8101 418.96 92.2601C421.87 109.98 423.7 127.95 424.95 145.86C427.74 185.92 426.78 226.26 422.04 266.14C420.03 283.06 419.41 304.35 411.88 319.93C403.85 336.56 375.04 335.69 359.25 337.79C318.71 343.2 277.84 346.22 236.94 346.94C216.69 347.3 196.51 346.65 176.28 346.32V346.33ZM398.94 394.67C398.9 395.1 399.18 395.7 399.63 396.38C399.17 395.96 398.87 395.41 398.94 394.67ZM402.83 397.61C402.93 397.62 402.94 397.61 402.83 397.61V397.61ZM440.48 421.72C439.94 421.89 440.16 421.94 440.48 421.72V421.72ZM481.03 324.6C479.15 345.1 472.05 369.2 449.07 373.89C444.99 374.72 443.31 379.19 443.99 382.84C445.06 388.55 444.64 394.66 444.22 400.42C443.96 403.94 443.59 407.46 443.03 410.94C442.79 412.42 441.85 414.92 441.32 417.09C437.18 413.85 433.34 410.14 429.56 406.5C423.57 400.73 416.76 393.5 411.88 387.94C408.35 383.92 406.01 383.19 400.75 383C384.08 382.39 367.06 384.43 350.44 385.45C327.66 386.85 304.86 388.37 282.04 389.02C273.37 389.27 264.47 389.72 255.82 388.87C252.26 388.52 251.6 388.97 249.47 385.97C244.84 379.46 244.91 369.75 245.44 361.32C275.72 360.54 305.96 358.5 336.07 355.18C356.65 352.91 378.01 351.08 398.2 346.36C414.32 342.59 424.29 332.34 428.51 316.45C433.84 296.39 435.85 274.8 437.9 254.18C440.15 231.53 441.2 208.77 441.04 186C440.99 179.19 440.9 172.29 440.72 165.34C458.22 163.91 477.39 164.52 479.84 185.89C482.53 209.35 482.97 233.34 483.14 256.93C483.3 279.43 483.09 302.18 481.03 324.6Z" fill="#C20000"/>
<path d="M297.34 280.12C302.64 278.4 303.6 274.19 304.24 269.17C305.15 261.94 305.35 254.58 305.49 247.26C339.05 238.82 362.55 204.7 353.3 169.78C345.3 139.6 314.1 122.57 285.6 130.18C286.91 112.32 282.65 94.1399 270.91 80.0599C256.91 63.2899 231.78 56.3699 210.66 58.1199C188.95 59.9199 166.19 69.8199 153.73 88.3199C142.99 104.27 141.36 124.13 140.8 143.05C112.17 139.5 81.8702 159.61 76.7902 188.88C71.0702 221.84 100.29 253.07 132.61 253.6C133.22 260.14 133.82 266.68 134.43 273.21C134.58 274.85 135.17 276.19 136.02 277.26C135.18 281.4 137.44 286.14 142.86 285.89C183.1 284.03 223.4 283.5 263.66 282.15C273.95 281.81 287.37 283.34 297.36 280.11L297.34 280.12ZM148.78 271.08C148 262.72 147.23 254.36 146.45 246C146.12 242.44 143.37 238.24 139.17 238.72C112.99 241.74 85.5202 217.68 91.3102 190.16C96.2902 166.52 123.44 152.02 145.91 159.02C150.54 160.46 155.02 156.58 155.12 152C155.5 135.64 155.27 117.95 162.26 102.76C170.14 85.6299 188.29 76.1799 206.26 73.2299C223.67 70.3699 244.79 74.5099 257.75 87.1599C271.35 100.44 273.57 122.16 269.53 139.73C268.11 145.87 274.56 151.16 280.22 147.95C304.23 134.33 334.59 149.22 339.87 176.24C345.53 205.21 324.02 229.75 296.39 234.34C293.23 234.87 291.11 238.4 291.05 241.36C290.87 249.37 289.06 258.53 289.97 266.42C277.01 267.34 263.99 267.62 251.01 268C216.93 269.01 182.83 269.62 148.77 271.09L148.78 271.08Z" fill="#C20000"/>
</g>
<defs>
<clipPath id="clip0_349_428">
<rect width="509.95" height="446.31" fill="white"/>
</clipPath>
</defs>
</svg>
