<svg width="140" height="133" viewBox="0 0 140 133" fill="none" xmlns="http://www.w3.org/2000/svg">
<path d="M60.611 95.9109C61.0621 95.4249 61.4927 94.9215 61.9075 94.407C62.1006 94.168 62.289 93.9258 62.4742 93.6804C66.0218 88.9725 68.1145 83.1976 68.3504 77.2707C68.3868 76.3542 67.4196 76.0692 66.7927 76.4127C66.5078 76.5695 66.2941 76.8544 66.2782 77.2707C66.245 78.1287 66.1658 78.9836 66.0487 79.8289C66.0186 80.041 65.9869 80.2516 65.9521 80.4637C65.9125 80.7059 65.8698 80.9481 65.8223 81.1903C64.6366 87.3594 61.2806 93.025 56.3954 97.0427C55.6355 97.6665 56.2371 98.6194 57.0128 98.7445C57.0935 98.7572 57.1742 98.7635 57.2566 98.7572C57.2803 98.7556 57.3056 98.7477 57.3294 98.7445C57.5098 98.7176 57.6903 98.6463 57.8597 98.5086C58.1035 98.3076 58.3425 98.1018 58.58 97.8928C58.895 97.6142 59.2053 97.3309 59.506 97.0396C59.8844 96.6739 60.2516 96.3003 60.6094 95.9156L60.611 95.9109Z" fill="#C20000"/>
<path d="M126.41 105.04C125.495 103.894 124.329 102.946 123.427 101.806C121.803 99.7513 123.43 98.6685 124.909 97.0158C132.876 88.1113 141.705 77.687 138.686 64.8455C137.184 58.4549 133.087 52.9586 128.756 48.1794C123.889 42.8098 118.529 37.8359 113.065 33.0853C102.917 24.2646 91.9851 16.1785 80.3419 9.43485C71.2901 4.19186 61.7587 -1.22367 50.9767 1.20944C39.4001 3.82302 29.9858 12.8479 22.3255 21.4041C13.459 31.3059 4.32336 42.9586 2.5567 56.5536C0.669735 71.089 10.6365 81.6462 21.7303 89.354C24.2901 91.1333 26.7105 86.9446 24.1698 85.1795C15.0294 78.8284 6.09635 70.1455 7.2203 58.0702C8.24927 47.0159 15.3808 36.9573 22.3445 28.7351C29.1452 20.706 36.7295 12.4062 46.4176 7.87873C50.82 5.8208 56.0282 4.62244 60.8548 5.69574C65.4456 6.71679 69.8053 9.14673 73.9053 11.3661C83.6599 16.6455 92.8969 22.9523 101.592 29.8242C111.257 37.4608 121.575 45.9379 128.928 55.9093C132.639 60.9402 135.369 66.9383 134.227 73.3163C133.21 78.9835 129.739 83.9289 126.137 88.2743C123.481 91.4784 117.502 95.8523 117.565 100.394C117.636 105.442 124.244 107.632 125.077 112.577C125.751 116.576 121.132 118.968 117.771 117.708C115.186 116.739 113.087 114.72 111.151 112.813C109.569 111.257 107.966 108.968 105.639 108.547C102.797 108.032 100.655 110.195 98.5689 111.757C93.2166 115.768 87.0112 120.024 80.0269 119.843C72.4917 119.648 66.1041 114.504 60.5129 109.989C60.0966 109.653 59.6502 109.481 59.2085 109.43C60.5351 108.711 61.8157 107.901 63.0347 107.006C79.9097 94.6539 81.7445 72.8161 76.6408 53.9622C75.9395 51.3724 75.1179 48.8174 74.2077 46.294C73.614 44.6524 73.1344 42.6642 71.8616 41.3914C69.2591 38.7842 65.8034 39.9192 63.7502 42.4489C57.4608 50.2009 51.3187 58.0702 44.985 65.789C30.3705 83.606 15.4473 101.184 1.27129 119.354C0.959429 119.754 0.793212 120.183 0.739389 120.608C0.712477 120.669 0.687149 120.73 0.663403 120.794C-1.87102 128.076 5.17661 134.15 12.2417 132.211C15.0705 131.436 16.6425 128.711 18.3886 126.544C20.752 123.611 23.087 120.654 25.4599 117.728C27.0034 115.824 28.8904 112.558 31.01 111.235C32.6991 110.18 37.3216 112.069 39.6296 112.571C45.4045 113.826 51.3108 112.987 56.6376 110.679C56.0978 111.507 56.0788 112.583 57.0951 113.403C62.1767 117.507 67.4735 121.728 73.8198 123.663C80.1662 125.597 86.5743 124.432 92.3998 121.486C95.2857 120.028 97.961 118.192 100.554 116.269C101.681 115.433 103.443 113.451 104.789 113.71C106.015 113.948 107.166 115.677 108.059 116.544C111.621 120.001 116.348 123.859 121.683 122.821C126.777 121.83 130.901 116.872 129.835 111.608C129.337 109.14 127.961 106.975 126.411 105.035L126.41 105.04ZM28.6434 106.921C26.9812 107.956 25.7037 109.876 24.4737 111.347C22.2021 114.063 20.0017 116.84 17.7902 119.607C15.9998 121.846 14.059 125.29 11.7636 127.036C10.8723 127.714 9.21017 128.148 8.03872 127.772C5.36499 126.916 4.48008 124.503 5.32225 122.081C5.34441 122.018 5.36024 121.958 5.37607 121.896C15.7101 108.689 26.4493 95.8 37.1332 82.8762C42.6152 76.2449 48.0956 69.6104 53.5254 62.9364C56.1152 59.7545 58.694 56.5616 61.2538 53.3559C62.5898 51.6827 63.9196 50.0047 65.243 48.3219C65.672 47.7758 66.1026 47.228 66.53 46.6803C66.9527 46.1405 67.3737 45.6007 67.7932 45.0593C68.5072 44.3912 68.876 44.6524 68.9014 45.846C70.0712 47.4259 70.5366 50.3957 71.1128 52.2715C71.7809 54.4435 72.3745 56.6375 72.87 58.8554C73.9845 63.834 74.5939 68.9171 74.453 74.0255C74.214 82.6419 71.659 91.089 66.0028 97.7123C60.8802 103.71 53.4858 108.268 45.4187 108.357C40.4575 108.41 33.1883 104.092 28.6418 106.922L28.6434 106.921Z" fill="#C20000"/>
</svg>
