<svg width="183" height="113" viewBox="0 0 183 113" fill="none" xmlns="http://www.w3.org/2000/svg">
<path d="M182.037 95.3537C181.698 94.5271 180.948 93.8863 179.782 93.8863C176.969 93.8863 174.157 93.8763 171.346 93.8679C171.51 93.6086 171.63 93.2923 171.687 92.9075C176.613 59.2619 151.81 26.739 120.582 16.4105C115.828 14.8378 110.948 13.7218 106.017 13.0408C105.547 7.00569 101.729 1.24332 95.2285 0.65771C87.7963 -0.0115553 83.8376 6.41673 82.9692 12.9538C82.9676 12.9722 82.9676 12.9906 82.9642 13.009C61.8322 15.8417 41.8797 26.493 29.0399 44.0813C18.9942 57.8414 14.0835 74.9444 15.4036 91.8969C11.3964 91.8785 7.39084 91.8668 3.38361 91.8651C2.31279 91.8651 1.59333 92.4072 1.21854 93.1384C0.636281 93.545 0.211298 94.1959 0.156083 95.0927C-0.267227 102.006 6.06402 109.574 12.7834 111.066C15.6563 111.704 18.8185 111.637 21.7399 111.762C33.7582 112.276 45.7983 112.355 57.825 112.455C87.2291 112.698 116.642 112.656 146.044 112.321C158.41 112.181 180.081 113.835 182.817 97.7346C182.986 96.7357 182.628 95.9142 182.039 95.3537H182.037ZM95.1633 5.77424C98.5882 6.33977 100.347 9.34644 100.822 12.487C96.6022 12.1691 92.3641 12.1674 88.151 12.4736C88.7668 8.90473 91.0088 5.08824 95.1633 5.77424ZM64.4206 22.9526C94.238 11.3241 129.455 18.0536 150.632 42.6005C162.143 55.9423 169.363 73.7749 166.761 91.5472C166.689 92.0375 166.744 92.4859 166.888 92.8807C118.084 92.8473 69.2895 91.5824 20.485 91.5539C18.3818 61.8536 36.5792 33.8097 64.4206 22.9509V22.9526ZM147.098 107.2C134.772 107.345 122.446 107.412 110.12 107.449C82.9626 107.531 55.7787 107.641 28.63 106.888C24.4688 106.773 20.2943 106.673 16.1448 106.338C15.5124 106.288 14.8732 106.244 14.2458 106.157C14.6691 106.216 14.0132 106.179 13.625 106.038C9.84871 104.682 6.11087 101.049 5.3797 96.9783C62.637 97.0369 119.874 98.9142 177.131 98.9878C172.954 108.759 156.137 107.093 147.1 107.2H147.098Z" fill="#C20000"/>
<path d="M154.699 32.8328C157.236 33.7647 159.876 34.8339 161.82 36.7781C163.765 38.7223 164.834 41.3626 165.766 43.8991C166.013 44.5734 166.892 44.5734 167.139 43.8991C168.071 41.3626 169.141 38.7223 171.085 36.7781C172.999 34.864 175.587 33.7982 178.089 32.8763C178.448 32.8662 178.674 32.5366 178.686 32.1903C178.686 32.1769 178.686 32.1635 178.686 32.1501C178.686 32.1334 178.686 32.1167 178.686 32.0999C178.673 31.7536 178.447 31.4256 178.089 31.4156C175.587 30.4937 172.999 29.4279 171.085 27.5138C169.141 25.5696 168.071 22.9293 167.139 20.3928C166.892 19.7185 166.013 19.7169 165.766 20.3928C164.834 22.9293 163.765 25.5696 161.82 27.5138C159.876 29.458 157.236 30.5272 154.699 31.4591C154.025 31.7067 154.023 32.5852 154.699 32.8345V32.8328Z" fill="#C20000"/>
<path d="M36.2663 74.1664C36.8954 70.5892 37.9445 67.1575 39.5323 63.8865C40.9629 60.9417 36.5575 58.3483 35.1202 61.3081C33.3383 64.9774 32.0449 68.7888 31.3389 72.8078C30.7733 76.0236 35.6958 77.4039 36.2646 74.1664H36.2663Z" fill="#C20000"/>
<path d="M40.2768 58.872C41.4171 58.872 42.3415 57.9477 42.3415 56.8074C42.3415 55.6671 41.4171 54.7427 40.2768 54.7427C39.1365 54.7427 38.2122 55.6671 38.2122 56.8074C38.2122 57.9477 39.1365 58.872 40.2768 58.872Z" fill="#C20000"/>
<path d="M143.461 15.2393C145.221 15.8868 147.053 16.628 148.402 17.9766C149.75 19.3251 150.491 21.1573 151.139 22.9174C151.311 23.3859 151.92 23.3859 152.093 22.9174C152.74 21.1573 153.481 19.3251 154.83 17.9766C156.158 16.6481 157.954 15.9085 159.69 15.2694C159.94 15.2627 160.097 15.0335 160.105 14.7925C160.105 14.7825 160.105 14.7741 160.105 14.7641C160.105 14.7524 160.105 14.7407 160.105 14.729C160.095 14.488 159.94 14.2605 159.69 14.2538C157.955 13.613 156.16 12.8751 154.832 11.5466C153.483 10.198 152.742 8.36593 152.094 6.60576C151.922 6.13727 151.313 6.13727 151.141 6.60576C150.493 8.36593 149.752 10.198 148.403 11.5466C147.055 12.8952 145.223 13.6364 143.462 14.2839C142.994 14.4562 142.994 15.0653 143.462 15.2376L143.461 15.2393Z" fill="#C20000"/>
</svg>
