<svg width="266" height="533" viewBox="0 0 266 533" fill="none" xmlns="http://www.w3.org/2000/svg">
<g clip-path="url(#clip0_429_79)">
<path d="M160.7 337.88C160.72 338.07 160.75 338.36 160.79 338.62C160.77 338.37 160.73 338.13 160.7 337.88Z" fill="#231F20"/>
<path d="M169.91 532.92C160.25 532.59 152.72 520.42 138.43 491.42C137.23 488.99 136.07 486.62 135.05 484.62C130.42 485.18 125.75 485.47 121.1 485.47C90.6999 485.47 61.6099 473.32 41.2799 452.14L40.9799 451.82L40.7099 451.47C39.6199 450.05 37.8999 448.46 36.0799 446.78C30.9599 442.04 24.5799 436.14 24.5299 426.94V426.45L24.5799 425.96C25.6999 416.48 27.4999 407.1 29.2399 398.02C30.8599 389.57 32.5399 380.84 33.5999 372.28L33.6899 371.59L33.8899 370.92C34.9599 367.44 37.2199 364.67 40.2799 363.07C53.0699 355.41 67.8499 351.13 82.1399 347C90.1499 344.68 97.7199 342.49 104.9 339.76C106.63 338.92 108.42 338.49 110.25 338.49C118.23 338.49 122.24 345.75 126.11 352.77C130.86 361.37 134.84 367.7 141.28 368.81C141.58 368.5 141.86 368.21 141.97 368.05L142.08 367.88L142.19 367.72C147.35 360.33 153.94 346.54 152.9 339.86H152.91C152.88 339.65 152.85 339.43 152.82 339.16H152.81C148.96 315.1 131.62 309.89 103.65 303.37L100.34 302.6L99.8899 302.43C61.8199 288.51 13.4899 258.02 2.58993 217.92L2.51993 217.65L2.46993 217.38C-2.30007 193.34 0.689927 167.81 4.67993 143.79C5.73993 129.41 10.1799 114.85 17.5899 101.41C17.0399 100.08 16.4899 98.76 15.9499 97.46C12.8899 90.1 9.99993 83.15 6.54993 73.72C2.69993 65.31 4.12993 61.28 7.41993 53.79L7.84993 52.82L8.20993 52.27C9.10993 50.89 10.5099 46.27 11.5399 42.89C14.3199 33.74 16.9599 25.05 23.3399 22.1C33.7099 14.24 45.4099 9.10002 56.7299 4.13002C57.7399 3.69002 58.7399 3.25002 59.7499 2.80002C62.5599 0.960019 65.5599 0.0200195 68.6499 0.0200195C84.4199 0.0200195 93.0499 23.4 99.3499 40.48C99.5599 41.05 99.7599 41.6 99.9599 42.13C100.73 42.11 101.5 42.1 102.27 42.1C144.27 42.1 178.33 73.79 193.45 105.19L193.64 105.59L193.79 106.01C194.05 106.77 194.8 108.02 195.52 109.24C197.91 113.27 201.87 119.92 198.46 127.25C196.77 132.49 194.87 137.71 193.04 142.76C190.71 149.17 188.3 155.81 186.38 162.32L186.29 162.61L186.18 162.89C185.91 163.59 185.65 164.56 185.37 165.58C184.1 170.17 181.98 177.86 173.56 180.32L173.35 180.38C172.13 180.7 169.7 181.53 167.12 182.42C157.87 185.59 145.2 189.94 135.63 189.94C123.75 189.94 120.45 183.07 119.54 179.56C115.63 168.26 101.46 161.35 89.3199 160.84C100.36 188.22 127.07 197.49 157.55 208.06C180.82 216.13 204.87 224.48 224.43 241.82C246.71 261.58 258.82 289.7 261.42 327.76C271.83 363.55 261.63 407.05 235.9 436.33C234.04 438.45 232.27 440.41 230.57 442.26C231.14 443.44 231.73 444.64 232.34 445.87C234.74 450.75 237.23 455.79 238.96 461.21C240.33 464.99 240.81 471.64 234.88 490.96C231.75 501.15 227.42 512.63 224.81 517.66L223.48 520.22L220.83 521.34C208.45 526.59 189.62 532.87 170.24 532.96H170.09H169.94L169.91 532.92ZM152.83 339.14C152.87 339.37 152.92 339.6 152.98 339.83L160.69 338.53V338.21L152.82 339.15L152.83 339.14Z" fill="white"/>
<path d="M229.86 431.03C253.45 404.2 263.7 363.1 253.47 329.16C244.29 186.04 100.85 243.06 78.6802 153.89C96.5002 149.34 121.24 159.2 127.2 177.31C129.73 189.11 163.16 174.75 171.29 172.62C176.69 171.05 176.97 164.53 178.68 160.04C182.25 147.94 187.18 136.19 191.01 124.22C193.81 118.94 187.93 113.52 186.22 108.64C169.78 74.4999 133.94 46.3999 94.6202 50.4799C90.1902 40.5499 78.6502 -1.06007 63.6302 9.79993C51.0802 15.3599 38.1402 20.6299 27.2502 29.1399C21.6002 30.4999 18.8002 50.6099 14.8802 56.6299C11.8602 63.5099 11.1802 64.8199 13.9202 70.6599C18.5302 83.2899 22.2302 91.6499 26.4502 101.99C18.6802 114.96 13.6502 129.61 12.6102 144.73C8.79017 167.69 5.68017 192.6 10.3002 215.82C20.4602 253.21 68.0602 282.28 102.63 294.92C129.32 301.18 155.63 306.18 160.7 337.89C160.65 337.15 160.79 338.62 160.84 338.86C160.82 338.79 160.81 338.71 160.79 338.62C162.49 349.6 152.73 366.57 148.73 372.29C147.64 374.04 145.83 375.35 144.56 376.95C120.53 378.23 118.41 341.43 108.15 347.08C87.3202 355.07 62.9702 358.71 44.1302 370.08C42.9902 370.62 42.0202 371.65 41.5202 373.27C39.2902 391.28 34.6302 408.88 32.5102 426.9C32.5602 435.29 42.2902 440.43 47.0402 446.61C70.7702 471.34 105.87 481.72 139.41 475.91C144.87 484.85 161.47 524.65 170.17 524.94C186.18 524.87 203.08 520.15 217.67 513.96C221.93 505.75 234.24 471.25 231.35 463.81C228.85 455.89 224.3 448.39 221.02 440.69C224.04 437.54 226.96 434.32 229.84 431.04L229.86 431.03Z" fill="#C20000"/>
<path d="M134.57 169.04C124.24 149.09 99.1897 139.26 77.6297 143.89C77.3797 130.54 85.3397 118.62 100.14 115.6C120.04 113.39 136.13 123 148.79 137.93C142.66 149.46 138.75 159.67 134.57 169.04Z" stroke="#C20000" stroke-width="7" stroke-miterlimit="10"/>
<path d="M176.68 134.59C173.27 144.15 170 153.75 167.03 163.46C158.42 166.59 149.55 169.22 140.56 170.97C145.26 160.33 149.14 150.33 154.67 140.37C154.7 140.37 154.73 140.36 154.76 140.35C162.84 139.92 170.35 134.29 177.86 131.37C177.47 132.44 177.06 133.51 176.68 134.59Z" stroke="#C20000" stroke-width="7" stroke-miterlimit="10"/>
<path d="M22.4297 64.6201C24.8297 58.8301 27.1397 53.0001 29.3397 47.1301C33.8097 58.0801 38.2297 69.1001 44.0297 79.4401C40.3397 83.5801 36.6697 87.7701 33.2597 92.1601C29.5897 83.6901 25.8097 73.9101 22.4297 64.6301V64.6201Z" stroke="#C20000" stroke-width="7" stroke-miterlimit="10"/>
<path d="M168.28 356.05C176.45 334.78 164.83 310.9 146.65 298.87C128.46 287.46 103.99 288.17 86.1402 277.25C51.6302 257.95 11.3802 230.93 18.3202 185.19C34.6602 225.83 75.6402 252.8 117.18 262.54C128.82 264.94 140.59 266.93 151.63 271.56C177.3 279.55 198.52 316.79 192.77 342.93C188.45 358.3 174.7 365.75 160.4 372.82C163.9 366.86 166.78 360.22 168.28 356.06V356.05Z" stroke="#C20000" stroke-width="7" stroke-miterlimit="10"/>
<path d="M104.13 358.9C105.37 358.5 106.62 358.1 107.87 357.72C125.45 399.25 162.19 390.44 190.59 365.37C217.2 339.56 199.36 295.82 175.79 274.14C134.5 243.72 97.4101 263.11 48.1201 213.15C10.4301 176.3 16.7101 118.54 52.7701 84.64C54.9801 83.33 56.3001 80.43 54.6901 77.74C45.7501 62.15 41.7101 51.29 35.6001 35.43C45.9001 28.39 57.3201 23.49 68.7001 18.51C76.0201 30.42 81.5801 42.04 85.3201 54.7C84.0501 58.13 87.1901 62.54 91.4101 61.34C130.28 53.86 165.32 84.81 180.3 119.23C171.55 122.98 164.65 126.98 155.48 130.3C119.54 85.08 48.6801 104.21 72.1201 167.4C87.9601 209.73 137.22 218.33 174.57 233.39C222.23 246.72 250.63 301.21 241.76 345.91C236.66 369.77 222.35 394.3 203.67 408.85C200.73 409 197.89 411.74 198.89 415.21C205.4 431.48 213.11 447.21 220.42 463.12C209.03 468.46 199.04 471.68 187.64 475.79C182.54 463.46 177.6 451.07 172.43 438.77C171.59 436.76 170.79 434.44 168.54 433.68C167.56 431.65 165.35 430.21 162.71 430.96C112.87 443.17 72.7101 423.89 54.1601 375.56C70.6501 369.52 87.4801 364.45 104.15 358.91L104.13 358.9Z" fill="white"/>
<path d="M142.63 465.13C102.48 473.4 68.1598 458.93 42.5898 427.12C43.6098 417.72 46.5098 404.87 49.1598 389.61C71.9398 433.89 108.46 450.81 157.15 442.4C152.24 449.96 147.46 457.5 142.63 465.13Z" fill="#C20000"/>
<path d="M167.52 507.17C160.54 494.76 153.559 482.31 147.479 469.43C152.669 460.75 158.309 452.36 163.689 443.81C169.549 457.21 174.289 471.3 180.679 484.38C176.559 493.09 173.329 502.2 169.999 511.23C169.169 509.88 168.33 508.54 167.52 507.18V507.17Z" fill="#C20000"/>
<path d="M219.57 477.37C217.03 487.22 213.78 496.88 210.43 506.48C199.82 509.52 185.39 513.95 175.43 514.96C178.49 505.62 182.74 494.95 186.51 486.69C195.46 483.93 210.14 478.71 220.45 474.03C220.16 475.15 219.86 476.26 219.57 477.38V477.37Z" fill="#C20000"/>
<path d="M216.5 430.77C214.25 425.72 212.17 420.87 210.24 416.46C227.14 403.65 238.72 384.1 246.83 364.77C246.03 388.6 232.77 415.07 216.51 430.77H216.5Z" fill="white"/>
<path d="M125 76.73C124.61 81.08 117.14 98.71 127.15 94.17C129.34 89.07 129.98 82.57 131.14 77.15C130.84 73.8 125.82 73.5 125 76.73Z" fill="white"/>
<path d="M135.83 83C135.07 86.28 134.27 89.55 133.53 92.83C131.73 96.44 133.74 101.93 138.15 98.74C140.24 94.11 141.06 88.43 141.97 83.41C141.67 80.06 136.65 79.76 135.83 82.99V83Z" fill="white"/>
<path d="M152.73 87.2501C145.44 80.5601 145.65 97.5901 144.62 101.64C144.92 104.99 149.94 105.3 150.76 102.06C151.1 97.1801 153.73 92.0001 152.73 87.2501Z" fill="white"/>
<path d="M68.6403 192.93C64.3703 196.39 58.9603 198.98 55.4003 203.13C53.9503 206.2 58.1803 209.01 60.5103 206.58C61.7803 205.57 68.2603 200.92 71.8203 198.38C75.3603 196.23 72.2503 190.92 68.6403 192.93Z" fill="white"/>
<path d="M78.0199 203.67C75.3799 204.03 73.6399 206.62 71.4399 207.97C69.7699 209.61 66.9699 210.36 66.1299 212.65C66.3399 221.34 75.2299 213.01 78.3799 210.5C81.7399 209.11 82.2899 203.94 78.0199 203.66V203.67Z" fill="white"/>
<path d="M91.4897 217.04C90.4497 210.09 79.1997 219.03 78.9597 222.37C78.8697 225.08 82.4897 226.58 84.3397 224.6C86.3497 221.6 91.4997 221.2 91.4797 217.04H91.4897Z" fill="white"/>
<path d="M95.7604 376.49C88.7604 380.12 81.5104 385.48 75.7304 390.89C74.2804 393.96 78.5104 396.77 80.8404 394.34C81.9904 391.86 107.69 379.6 95.7604 376.5V376.49Z" fill="white"/>
<path d="M100.37 391.59C97.0199 395.22 91.1298 397.68 89.5898 402.46C92.1398 411.44 100.89 398.07 104.83 396.05C107.71 393.07 103.35 388.72 100.37 391.59Z" fill="white"/>
<path d="M112.83 400.06C107.95 402.08 104.29 407.69 100.65 411.52C99.2003 414.59 103.43 417.4 105.76 414.97C108.09 411.29 122.06 402.82 112.83 400.07V400.06Z" fill="white"/>
</g>
<defs>
<clipPath id="clip0_429_79">
<rect width="265.42" height="532.93" fill="white"/>
</clipPath>
</defs>
</svg>
