<svg width="584" height="399" viewBox="0 0 584 399" fill="none" xmlns="http://www.w3.org/2000/svg">
<g clip-path="url(#clip0_429_52)">
<path d="M283.99 396.04C266.44 396.04 251.73 388.04 244.32 374.55C228.06 373.27 211.6 359.67 205.69 342.66C194.31 341.85 183.08 335.57 175.34 325.63C169.96 318.71 166.61 310.46 165.8 302.19C155.77 300.64 146.35 294.89 139.71 286.2C133.31 277.83 130.16 267.52 130.96 257.72C128.64 255.4 126.42 253.1 124.35 250.86C121.34 253.99 117.55 255.57 113.05 255.57C109.08 255.57 105 254.28 99.8703 251.39C95.4403 249.62 81.3503 243.62 81.2703 243.59L80.7603 243.36C80.6503 243.31 80.5503 243.26 80.4503 243.2L79.9803 242.91C78.0703 241.71 67.8103 238.04 60.3203 235.36C20.2803 221.02 6.40029 214.5 3.13029 204.14C2.18029 201.15 2.31029 197.94 3.49029 195.07C9.82029 162.95 22.5003 132.32 34.7803 102.69C37.6703 95.72 40.6603 88.5 43.5203 81.35L43.6803 80.97C47.2103 73.05 51.1303 65.3 54.9103 57.8C57.2003 53.27 59.5603 48.59 61.7903 43.96C61.7903 43.96 61.9103 43.71 61.9303 43.68L62.0203 43.51C63.9303 39.99 65.6203 36.11 67.4003 32C71.0303 23.64 74.7803 15 81.1803 7.59998C83.1903 5.25998 86.9503 2.47998 93.4703 2.47998C103.57 2.47998 118.46 9.57998 135.44 18.15C139.75 20.33 144.21 22.58 146.05 23.26L146.41 23.39C146.48 23.42 146.56 23.45 146.63 23.48L146.98 23.65C151.52 25.85 156.05 28.09 160.58 30.33C170.61 35.29 180.99 40.41 191.28 45.05L191.97 45.36C192.11 45.42 192.25 45.5 192.38 45.59L193 46.02C195.48 47.76 197.41 50.05 198.66 52.74C201.59 51.94 204.58 51.09 207.49 50.27C219.69 46.82 232.28 43.26 245.07 41.5C248.06 40.7 251.14 40.3 254.23 40.3C273 40.3 288.36 54.59 300.7 66.08C302.24 67.51 303.82 68.98 305.32 70.34C328.09 54.18 341.51 48.42 356.1 48.42C366.14 48.42 375.3 51.21 387.99 55.06C392.56 56.45 397.63 57.99 403.29 59.56C406.41 55.55 411.07 53.4 414.57 51.77C415.38 51.39 417.52 50.4 418 50.04L418.5 49.6C418.61 49.5 418.73 49.42 418.85 49.34L419.45 48.98C431.23 41.97 443.28 35.84 454.56 30.25L454.88 30.09C454.95 30.06 455.02 30.03 455.09 30L455.43 29.87C457.42 29.1 459.79 27.67 462.3 26.15C468.06 22.66 474.57 18.72 482.66 18.63C482.77 18.63 482.92 18.63 483.07 18.63C488.48 18.63 493.25 21.34 496.17 26.08C496.17 26.08 496.29 26.28 496.31 26.31L496.39 26.45C500.13 33.12 504.29 39.82 508.32 46.3C513.44 54.55 518.74 63.07 523.46 71.96L523.52 72.08C530.48 85.67 538.48 99.36 546.21 112.59C558.08 132.9 570.35 153.9 579.66 175.74C581.04 178.25 581.51 181.1 581 184.01C579.46 192.81 569.65 200.43 542.8 217.46C538.95 219.9 534.16 222.94 533.05 223.86L532.4 224.4C532.27 224.51 532.12 224.61 531.96 224.69L531.21 225.08C529.1 226.18 526.51 228.1 523.76 230.13C516.92 235.2 509.84 240.43 501.28 240.43C497.81 240.43 492.89 239.5 488.28 235.31C480.89 240.01 473.6 245.14 466.54 250.11C457.95 256.15 449.1 262.38 439.83 268.05C440.48 277.55 437.7 286.98 431.9 294.75C427.3 300.92 421.26 305.39 414.32 307.77C414.58 313.95 412.96 319.97 409.57 325.3C404.04 334 394.3 340.03 383.24 341.67C382.25 346.76 379.96 351.63 376.54 355.86C370.32 363.57 360.81 368.72 350.81 369.88C349.83 374.02 347.93 377.85 345.13 381.28C338.3 389.67 326.2 394.87 313.57 394.87C309.21 394.87 305.03 394.26 301.12 393.06C295.76 394.98 289.85 395.99 283.97 395.99L283.99 396.04Z" fill="white"/>
<path d="M93.4702 5C103.03 5 117.62 11.98 134.31 20.4C138.88 22.71 143.2 24.89 145.18 25.62L145.54 25.75L145.89 25.92C150.43 28.12 154.95 30.36 159.47 32.59C169.52 37.56 179.92 42.69 190.25 47.34L190.94 47.65L191.56 48.08C194.43 50.09 196.23 52.79 197.13 55.75C200.73 54.78 204.39 53.75 208.16 52.68C220.32 49.24 232.88 45.69 245.55 43.96C248.38 43.19 251.29 42.8 254.22 42.8C272.01 42.8 286.97 56.72 298.99 67.91C301.13 69.9 303.21 71.84 305.14 73.53C328.58 56.71 341.86 50.91 356.09 50.91C365.76 50.91 374.78 53.65 387.26 57.44C392.36 58.99 397.93 60.68 404.33 62.43C406.97 58.03 411.87 55.76 415.61 54.03C416.96 53.41 419 52.46 419.59 51.95L420.12 51.49L420.72 51.13C432.42 44.16 444.43 38.06 455.66 32.5L455.98 32.34L456.32 32.21C458.52 31.36 460.98 29.87 463.59 28.29C469.06 24.98 475.26 21.22 482.67 21.14C482.8 21.14 482.92 21.14 483.05 21.14C487.57 21.14 491.57 23.42 494.02 27.4L494.11 27.54L494.19 27.68C497.96 34.4 502.14 41.13 506.18 47.63C511.28 55.84 516.56 64.34 521.24 73.15L521.3 73.26C528.28 86.9 536.3 100.62 544.06 113.88C555.91 134.16 568.16 155.12 577.42 176.87C578.56 178.88 578.96 181.22 578.54 183.61C577.14 191.6 566.47 199.52 541.47 215.38C537.16 218.12 532.7 220.94 531.46 221.96L530.81 222.5L530.06 222.89C527.77 224.08 525.1 226.06 522.27 228.15C515.76 232.97 509.02 237.96 501.28 237.96C497.6 237.96 492.88 236.79 488.63 232.17C480.6 237.2 472.74 242.73 465.08 248.12C456.11 254.43 446.89 260.92 437.21 266.76C438.22 276.02 435.66 285.58 429.9 293.3C425.19 299.62 418.8 304.02 411.68 306.02C412.38 312.33 410.97 318.5 407.47 324.01C401.99 332.64 392.11 338.36 381.09 339.48C380.41 344.8 378.22 349.88 374.62 354.35C368.43 362.02 358.68 366.98 348.75 367.62C348.03 372.04 346.17 376.14 343.22 379.77C336.85 387.59 325.5 392.44 313.59 392.44C309.19 392.44 304.94 391.77 301.09 390.48C295.77 392.5 289.93 393.56 283.99 393.56C266.78 393.56 252.5 385.35 245.88 372.16C229.41 371.62 212.6 357.04 207.53 340.27C196.28 340.04 185.02 334.04 177.31 324.12C171.7 316.9 168.53 308.38 168.14 299.99C158.1 299.03 148.39 293.47 141.69 284.71C135.35 276.41 132.46 266.29 133.56 256.81C130.19 253.48 127.1 250.24 124.24 247.05C121.83 250.54 118.41 253.09 113.05 253.09C109.51 253.09 105.76 251.87 100.95 249.15C96.8402 247.51 82.4102 241.38 82.2802 241.32L81.7702 241.09L81.3002 240.8C79.1602 239.46 69.6002 236.04 61.1602 233.02C22.6402 219.23 8.44022 212.68 5.51022 203.41C4.71022 200.87 4.86022 198.2 5.89022 195.83C12.1502 163.87 24.8202 133.27 37.0802 103.67C39.9902 96.65 42.9902 89.4 45.8302 82.3L45.8902 82.16L45.9502 82.02C49.4602 74.15 53.3602 66.43 57.1402 58.95C59.4402 54.41 61.8102 49.71 64.0402 45.07L64.1302 44.89L64.2202 44.72C66.1802 41.11 67.8902 37.18 69.7002 33.02C73.2502 24.84 76.9302 16.37 83.0802 9.26C84.7402 7.33 87.9102 5 93.4702 5ZM93.4702 0C87.6502 0 82.6102 2.13 79.2802 6C72.6402 13.68 68.8102 22.5 65.1102 31.02C63.3502 35.08 61.6902 38.91 59.8302 42.33L59.7302 42.51C59.6902 42.58 59.6602 42.65 59.6202 42.72L59.5402 42.9C57.3202 47.51 54.9602 52.18 52.6802 56.69C48.8802 64.22 44.9502 72 41.3902 79.97L41.3302 80.1C41.3002 80.16 41.2802 80.23 41.2502 80.29L41.1902 80.43C38.3302 87.56 35.3502 94.77 32.4602 101.74C20.1702 131.41 7.47022 162.08 1.08022 194.36C-0.229783 197.71 -0.349783 201.43 0.740217 204.9C4.33022 216.27 18.5602 223.07 59.4702 237.72C65.9702 240.05 76.8502 243.94 78.6502 245.04L79.1102 245.33C79.3102 245.45 79.5102 245.56 79.7202 245.66L80.2302 245.89C80.7202 246.11 94.4002 251.91 98.7802 253.67C104.25 256.72 108.66 258.09 113.04 258.09C117.42 258.09 121.07 256.85 124.2 254.39C125.55 255.81 126.94 257.26 128.38 258.71C127.86 268.77 131.19 279.22 137.71 287.74C144.33 296.4 153.57 302.3 163.53 304.34C164.68 312.44 168.1 320.42 173.36 327.18C181.16 337.21 192.37 343.7 203.88 345.02C210.36 361.74 226.53 375.01 242.78 376.93C250.82 390.53 266 398.56 283.98 398.56C289.86 398.56 295.77 397.59 301.2 395.75C305.11 396.87 309.27 397.44 313.59 397.44C326.96 397.44 339.8 391.88 347.09 382.92C349.75 379.65 351.67 376.06 352.82 372.19C362.83 370.6 372.23 365.26 378.5 357.49C381.79 353.41 384.11 348.78 385.33 343.91C396.39 341.81 406.07 335.55 411.69 326.69C415.02 321.45 416.77 315.59 416.85 309.55C423.55 306.88 429.39 302.36 433.91 296.29C439.75 288.45 442.72 279.02 442.41 269.45C451.29 263.95 459.75 257.99 467.96 252.22C474.53 247.6 481.27 242.86 488.09 238.46C492.84 242.12 497.74 242.98 501.29 242.98C510.68 242.98 518.42 237.25 525.25 232.19C527.92 230.21 530.44 228.35 532.37 227.34L533.12 226.95C533.43 226.79 533.72 226.59 533.99 226.37L534.64 225.83C535.63 225.01 540.55 221.89 544.14 219.61C569.51 203.52 581.65 194.81 583.46 184.48C584.06 181.05 583.53 177.67 581.91 174.68C572.54 152.73 560.26 131.7 548.37 111.37C540.64 98.15 532.66 84.49 525.74 70.98L525.67 70.84C520.89 61.84 515.57 53.28 510.43 45C506.42 38.54 502.27 31.87 498.56 25.24L498.48 25.1C498.45 25.04 498.41 24.98 498.37 24.92L498.28 24.78C494.9 19.29 489.35 16.15 483.05 16.15C482.89 16.15 482.72 16.15 482.56 16.15C473.81 16.27 466.7 20.57 460.99 24.03C458.56 25.5 456.29 26.88 454.5 27.57L454.16 27.7C454.02 27.75 453.88 27.81 453.75 27.88L453.43 28.04C442.11 33.65 430 39.8 418.15 46.86L417.55 47.22C417.3 47.37 417.06 47.54 416.84 47.73L416.45 48.06C415.86 48.42 414.16 49.21 413.49 49.51C410.3 50.99 405.82 53.06 402.39 56.73C397.37 55.32 392.82 53.93 388.72 52.69L387.22 57.46L388.67 52.68C375.77 48.76 366.46 45.93 356.05 45.93C341.24 45.93 327.73 51.54 305.47 67.15C304.44 66.2 303.39 65.22 302.35 64.26C289.68 52.48 273.93 37.81 254.17 37.81C250.91 37.81 247.67 38.23 244.51 39.06C231.61 40.85 218.98 44.42 206.76 47.88C204.48 48.52 202.16 49.18 199.86 49.82C198.47 47.54 196.62 45.57 194.38 43.99L193.76 43.56C193.5 43.38 193.23 43.23 192.95 43.1L192.26 42.79C182.01 38.17 171.65 33.06 161.64 28.11C157.2 25.92 152.61 23.65 148.03 21.43L147.68 21.26C147.54 21.19 147.39 21.13 147.24 21.07L146.88 20.94C145.16 20.3 140.77 18.08 136.52 15.94C118.67 6.91 104.14 0 93.4702 0Z" fill="white"/>
<path d="M570.3 180.59C555.21 144.91 531.99 111.69 514.18 76.91C505.93 61.37 495.82 46.93 487.22 31.6C486.1 29.78 484.45 29.08 482.85 29.15C474.53 29.2 466.96 36.69 459.21 39.69C447.56 45.46 435.99 51.38 424.81 58.03C419.91 62.26 406.57 63.74 411.63 72.61C357.04 59.19 356.03 45.89 304.87 83.63C290.93 73.56 270.06 45.13 247.16 51.83C227.32 54.45 207.28 61.96 188.13 66.24C190.34 62.77 190.67 57.24 186.96 54.65C171.92 47.87 157.23 40.33 142.39 33.13C133.01 29.64 95.5102 7.06 89.1202 14.5C80.8602 24.06 77.2902 37.43 71.2402 48.55C65.3202 60.83 58.8102 72.82 53.2502 85.28C38.4502 122.22 20.9802 159.35 13.5102 198.5C6.22017 208.82 76.1502 228.15 85.5402 234.03C86.6802 234.54 103.5 241.63 104.42 241.93C117.01 249.22 118.2 243.07 122.03 231.92C128.1 239.85 135 247.16 142.2 254.07C136.91 273.53 155.93 296.26 176.91 291.49C171.6 312.41 192.34 336.6 214.02 331.61C215.01 348.87 234.3 367.29 251.12 363.72C257.07 384.25 283.18 390.34 300.96 381.83C317.04 389.36 345 380.21 340.61 358.94C356.7 363.08 376.7 349.32 372.82 331.38C391.74 334.05 410.56 318.52 401.48 299.21C420.5 300.19 433.46 280.18 428.26 262.74C450.07 250.34 469.35 233.97 491.05 221.37C500.15 240.87 514.48 222 526.35 215.81C532.55 210.69 575.23 186.98 570.28 180.6L570.3 180.59Z" fill="#C20000"/>
<path d="M113.56 226.33C112.55 228.83 111.55 231.34 110.62 233.88C82.7204 221.16 51.0204 211.15 23.3604 197.87C39.1404 136.32 66.4304 78.9199 94.8304 23.1399C121.55 32.0699 151.24 49.5399 179.13 62.0099C157.21 116.74 135.91 171.75 113.56 226.33Z" fill="#C20000"/>
<path d="M171.12 282.12C122.82 270.67 173.86 210.22 204.31 223.46C233.41 241.62 190.53 280.21 171.12 282.12Z" fill="white"/>
<path d="M205.781 322.13C188.891 318.84 181.901 298.79 188.941 286.14C196.681 281.23 203.791 275.55 210.391 268.88C221.791 262.37 229.821 255.88 243.981 258.5C251.351 259.92 255.821 266.06 257.571 273.13C264.361 295.71 222.601 322.85 205.771 322.13H205.781Z" fill="white"/>
<path d="M239.131 352.1C232.211 348.67 221.701 336.52 224.381 327.8C235.251 322.35 245.321 315.75 254.761 306.82C256.341 307.26 258.121 306.97 259.511 305.56C270.231 290.99 283.031 299.05 287.691 308.36C295.041 324.65 257.931 362.17 239.131 352.1Z" fill="white"/>
<path d="M279.17 375.47C274.29 375.6 260.89 367.61 260.67 360.57C273.3 353.79 285.61 343.66 293.3 331.38C294.41 331.32 295.52 330.88 296.45 329.93C299.44 326.49 299.08 327.08 304.07 324.54C316.49 319.56 327.12 328.3 325.58 341.65C321.16 361.3 298.5 377.21 279.17 375.48V375.47Z" fill="white"/>
<path d="M326.721 370.91C323.121 373.36 318.601 374.38 313.971 374.31C320.071 369.63 325.421 364.12 329.761 357.74C332.741 364.16 330.291 367.98 326.721 370.9V370.91Z" fill="white"/>
<path d="M415.211 283.35C412.671 288.02 401.781 290.38 395.661 288.73C374.411 259.61 345.601 237.1 319.191 213.03C316.981 211.92 314.171 213 312.941 215.08C309.501 221.92 324.201 229.08 327.951 234.2C343.461 248.74 438.331 326.28 368.311 320.51C344.381 290.74 312.941 267.42 286.421 240.11C281.651 237.8 277.051 244.59 280.951 248.22C298.111 265.96 316.411 282.49 334.591 299.16C349.091 312.66 380.821 339.67 350.791 348.98C344.151 350.99 339.631 348.62 335.351 343.71C339.271 322.28 317.711 305.92 298.351 316.22C300.471 299.75 282.861 283.4 266.621 288.5C275.361 260.08 248.281 239.53 222.061 251.03C230.771 228.46 210.831 206.03 187.311 212.61C169.991 216.36 154.541 228.37 145.821 243.68C140.431 238.23 135.241 232.57 130.431 226.6C130.691 226.94 130.951 227.27 131.211 227.61C129.371 225.7 128.481 222.53 126.541 220.77C145.501 172.98 165.801 124.65 183.641 76.53C183.681 76.53 183.731 76.53 183.771 76.53C183.761 76.53 183.751 76.53 183.741 76.53C203.911 76.7 249.651 52.97 265.831 64.28C276.991 71.2 285.371 80.56 296.831 89.9C276.661 107.34 228.381 154.59 234.251 182.38C258.951 206.93 302.931 181.29 326.011 164.72C348.041 186.22 437.881 251.91 415.201 283.36L415.211 283.35Z" fill="white"/>
<path d="M433.251 248.11C430.421 249.91 427.541 251.61 424.661 253.32C402.271 214.16 366.371 187.55 334.291 158.69C336.951 156.75 339.621 154.8 342.261 152.83C352.071 164.06 365.851 173.27 380.541 176.11C384.551 175.84 386.301 170.37 383.411 167.66C381.721 166.07 379.221 165.93 377.171 164.96C367.371 161.39 357.611 155.44 350.191 146.76C353.531 143.7 358.151 141.48 360.581 137.67C361.701 135.45 360.601 132.66 358.531 131.42C354.031 128.88 350.661 134.18 347.301 136.38C324.931 153.51 299.381 174.18 273.831 180.38C261.291 183.42 246.921 181.93 243.401 178.07C242.101 172.56 244.741 169.37 248.661 161.96C270.231 125.04 298.551 96.26 336.411 75.23C345.091 70.22 353.701 67.66 357.821 68.05C377.501 72.62 396.371 80.83 416.511 83.41C436.841 127.83 459.991 171.4 485.691 212.89C467.531 223.63 450.871 236.59 433.241 248.1L433.251 248.11Z" fill="white"/>
<path d="M554.33 184.54C537.49 197.08 519.78 208.47 502.03 219.65C471.54 173.34 444.77 121.25 421.84 71.2701C440.85 59.8701 460.77 50.1601 480.38 39.8701C508.6 85.7401 534.25 133.15 560.16 180.36C558.21 181.75 556.27 183.15 554.32 184.55L554.33 184.54Z" fill="#C20000"/>
<path d="M95.2296 166.61C69.2696 146.56 36.8396 179.72 61.2196 203.01C82.7296 223.84 117.32 185.96 95.2296 166.61Z" fill="white"/>
<path d="M86.7107 194.33C82.5107 198.15 77.6007 199.86 71.7607 198.2C66.5807 196.05 61.4607 189.17 62.9607 182.5C62.6707 178.19 70.6407 169.02 78.5707 170.27C80.8507 170.6 82.6707 172.55 84.9807 172.45C94.8107 175.11 93.7207 185.98 86.7107 194.33Z" fill="white"/>
<path d="M529.399 151.91C523.899 134.36 498.939 134.34 490.369 149.19C470.969 190.76 542.289 196.59 529.399 151.91Z" fill="white"/>
<path d="M520.801 164.08C515.721 182.44 490.551 170.62 498.131 155.78C500.131 150.78 504.841 148.96 510.021 148.37C518.451 146.66 522.221 158.61 520.811 164.07L520.801 164.08Z" fill="white"/>
<path d="M129.571 65.9099C114.861 74.1999 100.651 84.2899 86.3309 93.4899C81.6209 95.2999 82.6809 102 87.9109 100.04C91.5109 94.9199 145.361 68.9499 129.571 65.9099Z" fill="white"/>
<path d="M109.461 60.6399C102.731 63.4199 95.8909 67.2699 89.6909 71.0999C87.5309 73.6699 90.8709 77.4399 93.7209 75.6899C97.0109 72.9699 121.281 64.8299 109.451 60.6299L109.461 60.6399Z" fill="white"/>
<path d="M101.25 48.05C96.8598 50.83 90.2998 51.78 87.2798 56.03C86.4698 58.62 89.5798 61 91.8698 59.56C96.1998 57.08 101.29 55.54 105.28 52.64C107.44 50.07 104.1 46.3 101.25 48.05Z" fill="white"/>
<path d="M475.99 68.9401C468.26 67.9701 459.88 67.6301 452.1 67.9301C448.97 69.0901 449.99 73.9901 453.3 73.9101C457.73 72.9701 484.02 78.9401 475.99 68.9301V68.9401Z" fill="white"/>
<path d="M481.751 83.94C470.701 82.26 459.061 80.38 447.921 80.28C444.791 81.44 445.811 86.34 449.121 86.26C458.761 87.08 468.361 88.29 477.961 89.48C481.711 91.11 485.521 86.57 481.751 83.94Z" fill="white"/>
<path d="M475.65 98.2299C465.91 97.4999 455.96 95.4799 446.3 95.4999C443.17 96.6599 444.19 101.56 447.5 101.48C457.41 101.66 468.42 105.53 477.86 103.56C479.82 101.72 478.34 98.1299 475.65 98.2199V98.2299Z" fill="white"/>
</g>
<defs>
<clipPath id="clip0_429_52">
<rect width="583.7" height="398.54" fill="white"/>
</clipPath>
</defs>
</svg>
