<?xml version="1.0" encoding="UTF-8"?>
<svg id="Layer_2" data-name="Layer 2" xmlns="http://www.w3.org/2000/svg" viewBox="0 0 2097.72 391.59">
  <defs>
    <style>
      .cls-1, .cls-2 {
        fill-rule: evenodd;
      }

      .cls-1, .cls-2, .cls-3 {
        stroke-width: 0px;
      }

      .cls-1, .cls-3 {
        fill: #fff;
      }

      .cls-2 {
        fill: #000;
      }
    </style>
  </defs>
  <g id="Layer_1-2" data-name="Layer 1">
    <g>
      <g>
        <path class="cls-2" d="M151.16,382.09c-12.36,0-23.76-1.4-33.89-4.17-10.68-2.92-20.23-7.44-28.39-13.44l-41.06-30.18c-2.51-1.85-4.95-3.88-7.24-6.03-2.28-2.14-4.47-4.46-6.5-6.88-8.44-10.09-14.77-22.76-18.81-37.66-3.83-14.11-5.77-30.85-5.77-49.75,0-4.56.61-8.5,1.87-12.03,1.56-4.4,4.12-8.12,7.59-11.06,3.05-2.6,6.77-4.47,11.02-5.54,3.16-.8,6.68-1.18,10.78-1.18h2.37l.11.06c3.17.04,9.19.1,11.83.12l2.48.02c2.66.03,5.47.07,8.44.1-10.01-9.35-20.33-19.75-28.94-31.71-13.74-19.08-20.73-38.81-21.38-60.31l-.06-3.5c-.09-13.33,1.64-25.73,5.14-36.94,3.62-11.58,9.11-21.87,16.33-30.56,8.1-9.75,18.2-17.32,30.03-22.51,11.44-5.02,24.5-7.79,38.81-8.24l3.25-.06h1.06c10.06,0,19.44,1.2,27.88,3.58,9.08,2.56,17.34,6.54,24.55,11.83l41.06,30.18c2.58,1.9,5.07,4,7.4,6.25,1.65-8.03,3.37-15.76,5.12-23.05l.64-2.39c1.19-4.27,2.52-9.02,5.92-13.59,4.33-5.81,10.63-9.33,18.73-10.48l.38-.06.14-.02c9.96-1.12,20.82-1.67,33.23-1.67,13.8,0,27.26.68,39.14,1.27.59.03,1.21.05,1.83.08,1.7.07,3.46.14,5.23.29,3.34.31,6.42.98,9.25,2,2.84,1.03,5.47,2.42,7.82,4.15l41.07,30.19c1.54,1.13,3.02,2.46,4.38,3.95,1.2,1.29,2.33,2.76,3.32,4.32,1.78,2.85,3.15,5.97,4.09,9.31.18.65.34,1.27.48,1.86,0-.05.02-.09.03-.14,2.03-10.2,4.16-19.99,6.34-29.08l.07-.29.58-2.12c1.19-4.26,2.52-9.02,5.92-13.58,4.32-5.8,10.61-9.33,18.72-10.48l.53-.07c9.95-1.12,20.82-1.67,33.23-1.67,13.8,0,27.26.68,39.14,1.27.59.03,1.21.05,1.83.08,1.7.07,3.45.14,5.23.29,3.33.31,6.41.98,9.25,2,2.85,1.03,5.48,2.43,7.83,4.16l29.37,21.59c.18-1.94.47-3.8.9-5.56.87-3.63,2.31-6.93,4.27-9.82,2.23-3.29,5.1-6.02,8.52-8.09,3.08-1.88,6.65-3.23,10.58-4.02l.2-.04.43-.07c2.79-.48,5.66-.92,8.51-1.32,3.14-.44,6.28-.82,9.33-1.12,3.32-.34,6.66-.6,9.9-.77,3.64-.2,7.08-.3,10.22-.3,14.78,0,29.79,1.39,43.41,4.02,13.84,2.68,26.44,6.66,37.44,11.83,3.35,1.57,6.62,3.29,9.72,5.12,3.16,1.86,6.16,3.83,8.93,5.86l41.07,30.19c2.53,1.87,4.94,3.83,7.22,5.87.25-1.31.51-2.6.76-3.89,2-10.09,4.14-19.87,6.34-29.08l.07-.29.58-2.12c1.19-4.26,2.52-9.02,5.92-13.58,4.33-5.81,10.62-9.33,18.7-10.48l.54-.07c9.95-1.12,20.82-1.67,33.22-1.67,13.8,0,27.26.68,39.14,1.27.59.03,1.21.05,1.83.08,1.7.07,3.45.14,5.23.29,3.33.31,6.41.98,9.25,2,2.84,1.03,5.47,2.43,7.83,4.16l41.06,30.19c1.56,1.15,3.04,2.48,4.39,3.97,1.23,1.34,2.35,2.81,3.32,4.34,1.76,2.78,3.14,5.92,4.08,9.3.68,2.42,1.03,4.5,1.31,6.27,3.39,17.66,6.81,37.11,10.16,57.83,3.43,21.16,6.83,43.85,10.12,67.46,3.44,24.71,6.73,50,9.76,75.18,3.08,25.59,5.98,51.56,8.36,75.11l.03.27.11,2.47v.23c-.01,2.73-.33,5.38-.95,7.88-.69,2.8-1.74,5.39-3.1,7.69-1.9,3.22-4.37,5.86-7.35,7.86-3.27,2.19-7.04,3.48-10.92,3.72l-.83.04c-5.15.13-10.81.19-17.32.19-5.97,0-12.12-.05-17.54-.1h-.94c-3.98-.04-8.18-.07-15.66-.07-2.78,0-5.46-.38-7.97-1.13-2.68-.79-5.2-2.04-7.46-3.69l-24.89-18.3c-3.86,11.14-10.53,18.14-19.85,20.84-2.55.76-6.24,1.3-11.29,1.65-4.27.3-9.85.48-15.74.52-.98,0-1.98.01-2.97.01-4.83,0-9.55-.09-13.66-.27-5.04-.21-8.91-.54-11.49-.98l-.29-.03c-1.27-.13-3.32-.33-5.47-.84l-.12-.03c-3.46-.87-6.38-2.2-8.94-4.08l-24.65-18.12c-4.01,2.98-8.46,5.71-13.28,8.15-8.72,4.41-18.94,8.01-30.36,10.7-9.88,2.33-20.85,4.03-32.61,5.07-9.52.83-19.39,1.25-29.34,1.25l-6.67-.09-7.11-.23-7.16-.35-7.07-.47c-2.8-.19-5.59-.82-8.3-1.87-2.38-.92-4.68-2.14-6.81-3.64-.86.78-1.77,1.5-2.73,2.15-3.27,2.19-7.05,3.48-10.92,3.72l-.29.02-52.22.02c-2.67,0-5.27-.37-7.74-1.11-2.7-.81-5.21-2.05-7.46-3.69l-24.89-18.3c-3.87,11.16-10.56,18.17-19.91,20.86-2.46.74-6.17,1.28-11.23,1.63-4.27.3-9.85.48-15.74.52-.98,0-1.98.01-2.97.01-4.83,0-9.55-.09-13.66-.27-5.04-.21-8.9-.54-11.49-.98l-.36-.04c-1.33-.14-3.14-.33-5.32-.84-.12-.03-.24-.05-.36-.08-2.62,1.29-5.47,2.06-8.37,2.24l-.82.04c-5.15.13-10.81.19-17.32.19-5.97,0-12.11-.05-17.54-.1h-.95c-3.98-.04-8.18-.07-15.66-.07-2.77,0-5.46-.38-7.97-1.13-2.7-.8-5.21-2.05-7.46-3.69l-24.89-18.3c-3.86,11.15-10.55,18.16-19.89,20.85-2.55.75-6.23,1.29-11.25,1.64-4.26.3-9.85.48-15.74.52-.98,0-1.98.01-2.97.01-4.83,0-9.55-.09-13.65-.27-5.04-.21-8.91-.54-11.49-.98l-.29-.03c-1.36-.14-3.33-.33-5.48-.84l-.13-.03c-3.46-.87-6.38-2.21-8.93-4.08l-16.25-11.95c-6.86,5.89-14.5,10.65-22.79,14.21-11.33,4.86-23.55,7.32-36.31,7.32ZM176.67,174.83c1.29,1.11,2.59,2.22,3.89,3.34,5.03,4.31,10.14,8.69,15.17,13.31.8-5.7,1.59-11.24,2.34-16.53-4.3-.01-8.8-.05-13.1-.08l-8.3-.04ZM1749.32,379.84l-10.35-.18-8.85-.25-6.08-.27h-.17c-2.54-.22-5.04-.79-7.44-1.71-2.31-.88-4.53-2.1-6.59-3.62l-22.29-16.38c-.43,2.19-1.12,4.32-2.04,6.33-1.21,2.6-2.81,4.95-4.76,7-2.04,2.14-4.39,3.9-7.01,5.24-2.49,1.25-5.15,2.11-7.76,2.54l-.62.11-.24.03c-1.56.19-3.39.37-5.45.53-1.95.15-4.14.27-6.35.37l-7.15.23-7.13.1c-4.57,0-9.61-.12-14.56-.34l-6.52-.36c-2.06-.15-3.91-.32-5.51-.51-1.43-.15-3.2-.33-5.15-.77-2.94-.67-5.54-1.74-7.96-3.27l-.89-.56-.74-.74c-.4-.4-1.13-.98-1.99-1.61-5.02,4.7-11.7,7.08-19.87,7.08l-116.37.69c-3.2,0-6.23-.4-9.03-1.2-3.03-.86-5.83-2.19-8.33-3.95-.31.23-.63.46-.95.68-3.29,2.2-7.07,3.49-10.94,3.73l-.82.04c-5.15.13-10.81.19-17.32.19-5.97,0-12.11-.05-17.53-.1h-.95c-3.98-.04-8.18-.07-15.66-.07-2.77,0-5.45-.38-7.96-1.13-2.71-.81-5.23-2.06-7.49-3.71l-24.88-18.29c-3.79,11.12-10.46,18.14-19.84,20.85-2.55.76-6.24,1.3-11.28,1.65-4.27.3-9.86.48-15.74.52-.98,0-1.98.01-2.97.01-4.83,0-9.55-.09-13.65-.27-5.04-.21-8.91-.54-11.5-.98l-.29-.03c-1.27-.13-3.32-.33-5.47-.84l-.13-.03c-3.43-.86-6.34-2.19-8.88-4.04-.27.2-.55.4-.83.59-1.57,1.07-3.18,1.95-4.83,2.65-1.88.8-3.74,1.36-5.57,1.67-1.36.24-5.09.9-26.93,1.2-8.25.11-16.76.17-24.6.17-3.02,0-6-.45-8.85-1.33-2.98-.93-5.73-2.32-8.22-4.15l-13.46-9.89c-.13.4-.26.8-.41,1.19-1.22,3.21-3.16,6.02-5.75,8.35-2.33,2.12-5.1,3.69-8.22,4.66-2.47.78-5.23,1.18-8.17,1.18h-52.36c-2.69,0-5.37-.43-7.96-1.28-2.54-.83-4.96-2.08-7.17-3.71-4.23-3.11-8.66-6.24-13.34-9.55-10.21-7.22-20.77-14.68-29.82-22.37l-.2-.17-.19-.19c-2.42-2.31-4.41-5.12-5.74-8.12-1.4-3.18-2.11-6.51-2.11-9.91V36.79c0-3.26.64-6.42,1.9-9.4,1.27-3.03,3.16-5.73,5.59-8.01,2.28-2.14,4.95-3.81,7.94-4.95,2.89-1.11,5.92-1.68,8.97-1.68h54.53c2.31,0,4.55.3,6.66.9,2.5.71,4.79,1.83,6.82,3.32l12.5,9.19c.33-1.02.72-2.01,1.18-2.97,1.6-3.35,3.88-6.12,6.78-8.22,2.79-1.99,5.94-3.32,9.43-4.02l.6-.1c1.55-.26,3.4-.47,5.5-.63,1.8-.14,4.11-.27,6.87-.38,2.6-.11,5.43-.19,8.38-.24l8.95-.1c2.41,0,5.3.04,8.85.12,2.85.07,5.54.17,8.02.29,2.53.13,4.88.31,7.01.53,2.29.23,4.31.49,5.99.78l.25.04.25.06c2.18.5,4.51,1.07,6.77,1.78,2.94.94,5.22,2.05,7.19,3.49l28.1,20.65.06-.23c1.19-4.27,2.52-9.03,5.92-13.59,4.33-5.81,10.62-9.33,18.7-10.48l.54-.07c9.96-1.12,20.82-1.67,33.23-1.67,13.8,0,27.26.68,39.14,1.27.59.03,1.21.05,1.83.08,1.7.07,3.46.14,5.23.29h.1c3.25.31,6.33.98,9.16,2.01,2.82,1.02,5.46,2.42,7.81,4.16l31.06,22.83c.12-3.49.68-6.74,1.69-9.66,1.41-4.09,3.7-7.64,6.8-10.52,2.94-2.74,6.5-4.75,10.57-5.98,3.39-1.01,6.99-1.49,11.06-1.49h41.89c3.29,0,6.22.33,8.95,1.01,3.42.85,6.52,2.28,9.18,4.24l30.41,22.36c-.16-2.51,0-4.93.46-7.27.62-3.06,1.76-5.93,3.39-8.53,1.77-2.84,4.17-5.37,6.94-7.34,2.98-2.11,6.43-3.59,9.72-4.17l.36-.07.24-.03c2.86-.4,8.25-.71,10.43-.82,4.23-.22,9.01-.38,13.46-.47,1.98-.04,3.96-.06,5.87-.06s3.62.02,5.3.06c3.32.07,6.14.22,8.38.45,3.16.24,5.9.69,8.39,1.37,3.35.88,6.3,2.27,8.94,4.22l16.58,12.19c.45-1.38,1-2.67,1.63-3.88,1.43-2.73,3.37-5.1,5.75-7.04,2.36-1.9,5.01-3.27,7.9-4.11,2.25-.67,4.63-1,7.25-1.02l35.05-1.08h.15c2.59,0,5.14.34,7.6,1.02,2.7.75,5.2,1.9,7.44,3.43l.12.08c4.95,3.48,9.91,7.14,14.77,10.75,1.15-2.85,2.8-5.36,4.89-7.45,2.22-2.22,4.77-3.86,7.81-5.01,2.13-.8,4.42-1.31,7.04-1.59,3.61-.47,8.04-.91,12.82-1.26,4.76-.34,9.78-.6,14.54-.75,2.84-.09,5.61-.13,8.24-.13,1.57,0,3.11.02,4.61.05,3.98.09,7.46.29,10.35.6,3.02.24,5.62.66,7.94,1.29,3.16.85,5.94,2.15,8.27,3.87l14.16,10.41c.86-2.02,1.95-4.06,3.44-6.05,4.33-5.81,10.62-9.33,18.7-10.48l.54-.07c9.95-1.12,20.82-1.67,33.23-1.67,13.8,0,27.26.68,39.14,1.27.59.03,1.21.05,1.83.08,1.7.07,3.45.14,5.23.29h.1c3.25.31,6.34.98,9.16,2.01,2.82,1.02,5.46,2.42,7.81,4.16l29.19,21.46v-3.63c0-1.79.19-3.59.56-5.35.4-1.89,1.05-3.75,1.93-5.54.83-1.7,1.9-3.33,3.16-4.82,1.06-1.27,2.28-2.46,3.71-3.61l.17-.14,1.01-.74.18-.12c2.46-1.63,5.55-2.77,9.44-3.47,2.48-.46,5.46-.78,9.08-.98,2.49-.14,5.45-.24,8.8-.3,3.44-.07,6.64-.11,9.49-.11,5.78,0,12.3.12,18.36.34,2.82.1,5.42.23,7.53.36,2.51.17,4.45.34,5.95.53,1.88.22,3.8.68,5.64,1.36,1.94.71,3.8,1.69,5.5,2.92,9.27,6.54,18.58,13.48,27.59,20.19,4.54,3.38,9.07,6.76,13.59,10.08.77.56,1.55,1.22,2.29,1.93.72.69,1.38,1.42,1.96,2.14,1.79,2.22,3.16,4.8,4.04,7.61.78,2.5,1.18,5.15,1.18,7.89,0,15.95.03,25.14.08,36.78l.02,5.48c.14,35.85.37,95.85.33,146.13-.07,89.49-.98,97.6-1.28,100.26-.3,2.66-.97,5.23-1.99,7.62-1.08,2.52-2.54,4.84-4.36,6.88-1.75,1.98-3.81,3.68-6.1,5.05-2.18,1.29-4.55,2.28-7.06,2.96l-.33.09-.17.03c-2.21.54-5.06.92-8.7,1.15-3.07.2-7.06.31-11.87.35-1.05,0-2.11.01-3.19.01-3.9,0-8.14-.05-12.6-.14-7.05-.14-13.64-.36-16.85-.52-2.63-.06-5.25-.55-7.79-1.46-2.21-.78-4.34-1.87-6.34-3.23-.27.2-.54.39-.82.57-3.29,2.2-7.06,3.48-10.94,3.73l-.82.04c-5.15.13-10.81.19-17.32.19-5.97,0-12.11-.05-17.53-.1h-.95c-3.98-.04-8.18-.07-15.66-.07-2.77,0-5.45-.38-7.96-1.13-2.71-.81-5.23-2.05-7.49-3.71l-24.88-18.29c-3.79,11.12-10.46,18.14-19.85,20.85-2.55.76-6.24,1.29-11.27,1.65-4.27.3-9.85.48-15.74.52-.98,0-1.98.01-2.97.01-4.83,0-9.55-.09-13.65-.27-5.04-.21-8.91-.54-11.5-.98l-.29-.03c-1.36-.14-3.33-.33-5.47-.84l-.13-.03c-3.46-.87-6.38-2.21-8.94-4.08l-9.41-6.92c-1.11,1.73-2.38,3.34-3.75,4.77-1.94,2.02-4.1,3.75-6.44,5.15-2.46,1.48-5.05,2.54-7.7,3.15-2.39.62-5.4.98-9.45,1.12-3.7.14-7.28.14-10.44.14l-8.91-.08ZM1530.69,255.88l7.59-.04-6.97-55.53-.62,55.57Z"/>
        <path class="cls-3" d="M1165.71,19c2.36,0,5.23.04,8.64.11,2.79.07,5.39.16,7.74.28,2.33.12,4.54.29,6.53.49,2.06.2,3.86.44,5.31.69,1.99.46,4.09.97,6.03,1.58,1.82.58,3.24,1.21,4.45,2.1l39.65,29.14c.84-3.82,1.75-7.74,2.71-11.77l.58-2.12c1.06-3.79,2.04-7.27,4.37-10.41,2.55-3.42,6.27-5.88,12.42-6.75l.27-.04c10.57-1.19,21.46-1.61,32.16-1.61,13.48,0,26.68.66,38.66,1.26,2.23.11,4.55.17,6.77.35,2.55.24,4.8.75,6.78,1.47,2.09.75,3.89,1.74,5.43,2.88l41.06,30.18c1.14.83,2.14,1.75,3.02,2.72.62.68,1.19,1.38,1.68,2.09l.41-18.48c0-2.92.39-5.55,1.19-7.88.9-2.62,2.31-4.83,4.29-6.66,1.89-1.76,4.16-3.03,6.85-3.85,2.46-.73,5.22-1.09,8.31-1.09h41.89c2.44,0,4.65.23,6.65.73,2.22.55,4.16,1.43,5.85,2.67l41.06,30.18c.88.72,1.35,1.13,2.17,1.94,1.71,1.88,2.89,4.07,3.62,6.68.66,2.33.95,4.95.95,7.94l-2.13,191.59,18-.09c.05,0,.11,0,.16,0,1.61,0,3.14.19,4.58.58,1.64.45,3.14,1.14,4.46,2.12l1.21.89-28.46-226.74c-.24-2.09-.15-4.01.21-5.77.42-2.06,1.18-3.85,2.14-5.37,1.21-1.93,2.77-3.48,4.39-4.63,1.98-1.4,4.14-2.27,5.94-2.57l.21-.04c1.66-.23,5.2-.51,9.59-.74,3.8-.2,8.43-.37,13.15-.46,1.92-.03,3.84-.05,5.7-.05,1.76,0,3.47.02,5.08.05,3.03.06,5.71.2,7.76.41,2.52.19,4.73.53,6.73,1.07,2.22.58,4.13,1.46,5.8,2.7l29.19,21.46,1.37-11.19c.36-2,.93-3.72,1.7-5.18.86-1.64,1.98-2.99,3.33-4.09,1.4-1.13,2.92-1.89,4.6-2.37,1.5-.45,3.07-.63,4.74-.63l35.03-1.08c1.78,0,3.48.24,5.08.68,1.71.47,3.26,1.19,4.61,2.11,9.12,6.42,18.18,13.35,27.19,19.97l.63-7.83c.16-2.03.53-3.78,1.12-5.33.69-1.8,1.64-3.3,2.9-4.55,1.3-1.3,2.78-2.22,4.48-2.86,1.45-.54,3.02-.86,4.77-1.03,3.37-.44,7.71-.88,12.41-1.22,4.28-.31,9.13-.58,14.13-.73,2.67-.08,5.35-.13,7.95-.13,1.5,0,2.97.01,4.41.05,3.62.08,6.92.26,9.67.56,2.49.19,4.58.53,6.33,1,2.08.56,3.77,1.35,5.12,2.35l25.06,18.42c.46-1.93.89-3.73,1.42-5.63,1.06-3.79,2.04-7.27,4.37-10.41,2.55-3.42,6.27-5.88,12.41-6.75l.27-.04c10.57-1.19,21.45-1.61,32.16-1.61,13.48,0,26.68.66,38.66,1.26,2.22.11,4.55.17,6.76.35,2.55.24,4.8.75,6.78,1.47,2.09.75,3.89,1.74,5.43,2.88l41.06,30.18c1.14.83,2.14,1.75,3.02,2.72l.25.28v-23c0-1.16.12-2.29.35-3.41.24-1.12.63-2.21,1.16-3.29.51-1.04,1.14-1.99,1.89-2.88.73-.87,1.53-1.63,2.42-2.35l.65-.48c1.38-.92,3.39-1.59,5.87-2.03,2.19-.41,4.89-.68,7.91-.84,2.44-.14,5.31-.23,8.45-.29,3.7-.08,6.76-.11,9.32-.11,5.63,0,11.97.11,18.02.33,2.8.1,5.28.22,7.26.35,2.21.15,4.05.31,5.39.47,1.23.15,2.41.44,3.53.85,1.19.43,2.28,1.02,3.25,1.73,13.78,9.71,27.46,20.19,41.08,30.2.46.33.89.7,1.3,1.1.4.39.79.81,1.15,1.25,1.09,1.35,1.88,2.86,2.4,4.52.49,1.59.74,3.28.74,5.06,0,16.39.04,25.62.08,37.74l.02,4.55c.15,39.35.37,96.67.33,146.09-.04,49.64-.34,91.36-1.22,99.2-.19,1.71-.61,3.38-1.28,4.95-.66,1.53-1.56,2.99-2.73,4.3-1.1,1.24-2.39,2.32-3.86,3.2-1.39.82-2.94,1.49-4.67,1.95l-.09.02c-1.69.44-4.22.75-7.25.95-3.09.2-7.04.3-11.33.33-1.02,0-2.07.01-3.12.01-4.13,0-8.42-.05-12.41-.13-7.5-.15-13.95-.38-16.72-.51-1.65-.03-3.33-.34-4.93-.91-1.64-.58-3.24-1.44-4.7-2.5l-6.14-4.51-.34.61c-1.17,1.98-2.68,3.62-4.47,4.81-1.86,1.24-3.96,1.98-6.23,2.13l-.46.02c-5.63.14-11.34.19-17.08.19s-11.65-.05-17.46-.1c-4.3-.03-8.57-.07-16.69-.07-1.88,0-3.63-.25-5.25-.73-1.69-.5-3.22-1.27-4.58-2.27l-36.64-26.93c-.54,4.26-1.32,8.44-2.53,12.24-2.42,7.71-6.59,13.71-13.86,15.8-1.92.58-5.23,1-9.27,1.29-4.21.29-9.59.46-15.14.5-.96,0-1.93.01-2.89.01-4.68,0-9.31-.09-13.26-.26-4.54-.19-8.33-.49-10.56-.9l-.6-.07c-1.28-.13-2.8-.28-4.31-.64-1.9-.48-3.87-1.23-5.63-2.53l-19.91-14.64-.36,3.07c-.21,1.85-.86,3.77-1.82,5.6-.93,1.75-2.14,3.45-3.54,4.9-1.29,1.35-2.8,2.58-4.45,3.56-1.6.96-3.32,1.69-5.09,2.08-1.83.5-4.44.75-7.53.86-3.42.13-6.68.13-10.1.13l-8.82-.08-10.17-.17-8.68-.24-5.91-.27c-1.67-.14-3.29-.52-4.8-1.1-1.55-.59-3.02-1.41-4.36-2.4l-34.98-25.71-2.1,14.17c-.28,1.92-.81,3.65-1.51,5.16-.81,1.74-1.86,3.22-3.02,4.45-1.38,1.46-2.91,2.54-4.44,3.32-1.73.87-3.48,1.39-5.03,1.64l-.45.08c-1.38.17-3.07.34-4.98.48-1.65.12-3.7.25-6.04.35l-6.87.23-7,.1c-4.38,0-9.26-.11-14.14-.33l-6.24-.34c-1.93-.14-3.68-.3-5.18-.48-1.35-.14-2.69-.28-4.07-.59-1.69-.38-3.35-.99-4.98-2.03-2.44-2.44-8.1-5.91-11.1-8.12-.79,2.15-1.91,4.01-3.39,5.57-3.28,3.48-7.96,5.23-14.1,5.23l-116.25.69s-.08,0-.11,0c-2.34,0-4.49-.28-6.43-.84-2.11-.6-4.04-1.53-5.74-2.78l-6.56-4.82-.43.77c-1.17,1.98-2.68,3.62-4.47,4.81-1.86,1.24-3.96,1.98-6.23,2.13l-.46.02c-5.63.14-11.34.19-17.08.19s-11.65-.05-17.46-.1c-4.3-.03-8.57-.07-16.69-.07-1.88,0-3.63-.25-5.25-.73-1.69-.5-3.22-1.27-4.58-2.27l-36.64-26.93c-.55,4.26-1.33,8.44-2.53,12.24-2.42,7.71-6.59,13.71-13.86,15.8-1.92.58-5.23,1-9.27,1.29-4.21.29-9.59.46-15.14.5-.96,0-1.93.01-2.89.01-4.68,0-9.31-.09-13.26-.26-4.54-.19-8.33-.49-10.56-.9l-.6-.07c-1.28-.13-2.8-.28-4.31-.64-1.9-.48-3.86-1.23-5.63-2.53l-6.65-4.89-.02.04c-.62,1.02-1.39,2.01-2.26,2.9-.86.88-1.83,1.71-2.84,2.4-.99.67-2.07,1.28-3.19,1.76-1.12.48-2.29.85-3.45,1.05-3.45.61-14.51.91-25.45,1.07-12.31.16-21.88.17-24.47.17-2.1,0-4.13-.32-6.04-.91-1.96-.61-3.78-1.54-5.4-2.73l-27.47-20.19v10.37c0,1.95-.29,3.74-.92,5.38-.68,1.77-1.74,3.33-3.24,4.67-1.32,1.21-2.88,2.08-4.69,2.65-1.6.51-3.38.75-5.34.75h-52.36c-1.74,0-3.42-.29-4.99-.81-1.62-.53-3.15-1.33-4.5-2.33-13.69-10.06-29.91-20.68-42.64-31.51-1.52-1.45-2.76-3.19-3.61-5.09-.83-1.88-1.3-3.94-1.3-6.06V36.79c0-2.04.41-3.95,1.15-5.69.78-1.86,1.94-3.47,3.34-4.78,1.38-1.3,3.03-2.32,4.83-3.01,1.8-.69,3.69-1.05,5.58-1.05h54.53c1.45,0,2.8.18,4.07.54,1.4.4,2.66,1.01,3.78,1.83l.22.16,26.1,19.19.08-8.29c0-1.45.04-2.77.21-4.02.21-1.52.6-2.95,1.28-4.36.9-1.88,2.13-3.43,3.79-4.64,1.6-1.14,3.47-1.94,5.71-2.39l.29-.05c1.26-.21,2.86-.39,4.69-.53,1.71-.13,3.93-.25,6.52-.36,2.46-.1,5.22-.18,8.15-.23l8.79-.1M612.81,19c12.8,0,27.23,1.07,41.61,3.85,12.09,2.34,24.15,5.91,35.2,11.1,3.07,1.44,6.07,3.02,8.95,4.71,2.85,1.68,5.57,3.46,8.13,5.33l41.06,30.18c5.81,4.28,11.05,9.2,15.49,14.86,1.1,1.4,2.15,2.85,3.15,4.34,1.38-7.81,2.8-15.52,4.29-23.01,1.91-9.64,4-19.28,6.26-28.72l.58-2.12c1.06-3.79,2.04-7.27,4.37-10.41,2.55-3.42,6.27-5.88,12.42-6.75l.27-.04c10.57-1.19,21.45-1.61,32.16-1.61,13.48,0,26.68.66,38.66,1.26,2.22.11,4.55.17,6.76.35,2.56.24,4.81.75,6.8,1.47,2.09.75,3.89,1.74,5.43,2.88l41.06,30.18c1.09.8,2.09,1.72,2.99,2.71.9.98,1.66,1.99,2.3,3.01,1.46,2.3,2.37,4.63,2.97,6.79.59,2.08.87,3.88,1.09,5.32,3.48,18.14,6.89,37.61,10.14,57.73,3.59,22.13,6.97,44.83,10.09,67.25,3.62,25.98,6.89,51.38,9.74,75.01,3.29,27.28,6.12,52.99,8.34,74.93l.08,1.96c0,2.02-.25,3.93-.67,5.64-.47,1.91-1.18,3.65-2.06,5.14-1.17,1.98-2.68,3.62-4.47,4.81-1.85,1.24-3.96,1.98-6.22,2.13l-.46.02c-5.63.14-11.34.19-17.08.19s-11.65-.05-17.46-.1c-4.29-.03-8.57-.07-16.69-.07-1.89,0-3.64-.25-5.25-.73-1.7-.5-3.22-1.27-4.58-2.26l-36.64-26.93c-.54,4.29-1.32,8.48-2.51,12.24-2.47,7.71-6.62,13.71-13.87,15.79-1.92.58-5.23,1-9.27,1.29-4.21.29-9.59.46-15.14.5-.96,0-1.93.01-2.89.01-4.68,0-9.31-.09-13.27-.26-4.54-.19-8.33-.49-10.56-.9l-.6-.07c-1.28-.13-2.8-.28-4.31-.64-1.9-.48-3.86-1.23-5.63-2.53l-30.61-22.5c-5,4.61-10.84,8.48-17.23,11.7-8.63,4.36-18.28,7.58-28.26,9.93-10.31,2.43-21.01,3.95-31.26,4.86-10.36.9-20.1,1.21-28.51,1.21l-6.37-.09-6.96-.22-6.98-.34-7.07-.47c-1.88-.13-3.74-.56-5.51-1.25-1.84-.71-3.56-1.66-5.1-2.79l-7.34-5.4c-.38,1.03-.84,1.99-1.35,2.85-1.17,1.98-2.68,3.62-4.47,4.81-1.85,1.24-3.96,1.98-6.22,2.13l-51.7.02c-.08,0-.15,0-.23,0-1.8,0-3.48-.25-5.03-.71-1.69-.5-3.21-1.27-4.57-2.26l-36.64-26.93c-.54,4.29-1.32,8.48-2.51,12.24-2.47,7.71-6.63,13.71-13.87,15.79-1.92.58-5.23,1-9.27,1.29-4.21.29-9.59.46-15.14.5-.96,0-1.93.01-2.89.01-4.68,0-9.31-.09-13.27-.26-4.54-.19-8.33-.49-10.56-.9l-.6-.07c-1.2-.12-2.64-.27-4.31-.67-1.24-.27-2.51-.69-3.74-1.33-.47.42-.96.8-1.47,1.14-1.86,1.24-3.96,1.98-6.22,2.13l-.46.02c-5.63.14-11.35.19-17.08.19s-11.65-.05-17.46-.1c-4.3-.03-8.57-.07-16.69-.07-1.89,0-3.64-.25-5.26-.73-1.69-.5-3.21-1.27-4.58-2.26l-36.64-26.93c-.54,4.29-1.32,8.48-2.51,12.24-2.47,7.71-6.63,13.71-13.87,15.79-1.92.58-5.23,1-9.27,1.29-4.2.29-9.59.46-15.14.5-.96,0-1.93.01-2.89.01-4.68,0-9.31-.09-13.26-.26-4.54-.19-8.34-.49-10.56-.9l-.6-.07c-1.28-.13-2.8-.28-4.31-.64-1.9-.48-3.86-1.23-5.63-2.53l-22.61-16.62c-7.35,7.58-16.05,13.63-25.79,17.81-9.9,4.24-20.86,6.55-32.57,6.55s-21.97-1.26-31.39-3.83c-9.56-2.61-17.98-6.57-25.26-11.93l-41.06-30.18c-2.22-1.63-4.34-3.4-6.36-5.3-2.03-1.9-3.94-3.93-5.72-6.06-7.58-9.07-13.22-20.39-16.93-34.06-3.64-13.42-5.44-29.13-5.44-47.27,0-3.4.42-6.31,1.32-8.85,1.01-2.83,2.58-5.13,4.77-6.99,2.03-1.73,4.42-2.88,7.22-3.59,2.49-.63,5.28-.89,8.45-.89.12.07,14.7.18,16.69.2,6.24.08,13.07.16,20.87.16,1.96,0,3.77.24,5.43.71,1.77.51,3.36,1.29,4.78,2.33l17.23,12.66-1.45-1.72c-6.03-6.97-13.92-14.14-22.22-21.68-12.78-11.62-26.47-24.07-37.31-39.13-11.04-15.33-18.93-33.14-19.6-55.05l-.06-3.38c-.08-12.05,1.46-23.52,4.71-33.94,3.18-10.17,8.01-19.42,14.57-27.32,6.95-8.36,15.77-15.15,26.54-19.88,10.04-4.4,21.78-7.02,35.29-7.44l3.11-.05c.3,0,.6,0,.89,0,9.23,0,17.67,1.08,25.3,3.23,8.03,2.26,15.2,5.72,21.5,10.35l41.06,30.18c2.44,1.79,4.75,3.77,6.93,5.92,2.17,2.14,4.21,4.47,6.12,6.96,1.92,2.52,3.7,5.2,5.33,8.03.89-4.88,1.81-9.7,2.75-14.43,1.91-9.65,3.99-19.28,6.26-28.72l.58-2.12c1.06-3.79,2.05-7.29,4.37-10.41,2.55-3.42,6.27-5.87,12.44-6.75l.25-.04c10.57-1.19,21.45-1.61,32.16-1.61,13.48,0,26.68.66,38.66,1.26,2.23.11,4.55.17,6.76.35,2.55.24,4.81.75,6.79,1.47,2.08.75,3.89,1.74,5.44,2.88l41.06,30.18c1.08.8,2.09,1.72,3,2.71.89.96,1.65,1.97,2.3,2.99,1.45,2.32,2.36,4.65,2.97,6.8.58,2.08.87,3.88,1.09,5.32,2.38,12.4,4.7,25.24,6.93,38.33l1.74,10.34c1.15-7.47,2.38-15.1,3.69-22.82,1.74-10.26,3.58-20.41,5.52-30.18,1.92-9.65,4-19.28,6.26-28.72l.58-2.12c1.06-3.79,2.05-7.29,4.37-10.41,2.55-3.42,6.27-5.87,12.43-6.75l.26-.04c10.57-1.19,21.45-1.61,32.16-1.61,13.48,0,26.68.66,38.66,1.26,2.22.11,4.55.17,6.76.35,2.56.24,4.81.75,6.8,1.47,2.08.75,3.89,1.74,5.43,2.88l41.06,30.18c1.08.8,2.09,1.72,2.99,2.71l.26.26v-15.03c0-2.68.26-5.2.82-7.54.6-2.49,1.55-4.72,2.89-6.7,1.46-2.16,3.31-3.93,5.58-5.3,2.17-1.32,4.67-2.26,7.51-2.82l.31-.05c2.53-.43,5.28-.87,8.29-1.28,2.84-.4,5.84-.76,8.96-1.07,3.09-.32,6.26-.57,9.46-.73,3.37-.18,6.62-.28,9.72-.28M202.54,211.67c2.09-15.49,4.3-30.95,6.51-46.27-2.52.04-5.32.05-8.26.05-5.17,0-10.77-.05-16.06-.09l-12.64-.06c-2.89,0-5.23-.67-7.02-1.98l-26.78-19.69c5.41,15.46,20.13,28.08,36.08,41.75,9.48,8.13,19.37,16.61,28.16,26.29M1165.71,0h-.22s-8.79.1-8.79.1h-.05s-.05,0-.05,0c-3.03.05-5.93.13-8.62.24-2.88.12-5.31.25-7.2.4-2.37.18-4.48.43-6.3.72l-.32.05-.31.05-.31.06c-4.82.96-9.2,2.83-13.01,5.55l-.07.05-.07.05c-1.98,1.44-3.76,3.08-5.32,4.92l-3.72-2.74-.23-.17c-2.92-2.15-6.23-3.77-9.82-4.79-2.98-.84-6.09-1.27-9.28-1.27h-54.53c-4.22,0-8.39.78-12.4,2.32-4.11,1.57-7.84,3.9-11.04,6.91-3.38,3.17-6.03,6.96-7.83,11.25-1.74,4.12-2.64,8.53-2.64,13.06v286.75c0,4.73.98,9.35,2.91,13.73,1.86,4.21,4.51,7.97,7.88,11.18l.39.37.41.35c9.37,7.97,20.11,15.55,30.49,22.89,4.65,3.29,9.04,6.39,13.21,9.45,3.01,2.22,6.33,3.93,9.85,5.08,3.52,1.16,7.2,1.75,10.9,1.75h52.36c3.91,0,7.63-.55,11.05-1.63,4.39-1.37,8.34-3.61,11.69-6.65.96-.86,1.85-1.76,2.68-2.71l4.97,3.66c3.33,2.45,7.03,4.32,10.99,5.56,3.8,1.18,7.73,1.77,11.7,1.77,7.88,0,16.43-.06,24.73-.17,19.74-.27,25.49-.83,28.42-1.34h0c2.54-.44,5.12-1.21,7.66-2.29.71-.3,1.41-.63,2.1-.97,2.01.92,4.16,1.67,6.42,2.24l.13.03.13.03c2.68.63,5.13.89,6.66,1.04,2.99.49,7.06.83,12.4,1.06,4.23.18,9.09.27,14.06.27,1.01,0,2.03,0,3.04-.01,6.15-.04,11.8-.23,16.31-.54,7.59-.53,11.23-1.39,13.31-2.01,6.51-1.89,14.56-6.14,20.72-15.56l15.69,11.53c3.16,2.32,6.66,4.05,10.41,5.17,3.39,1.01,6.98,1.52,10.67,1.52,7.54,0,11.71.03,15.74.06h.81c5.7.05,11.62.1,17.6.1,6.58,0,12.32-.06,17.55-.19h.21s.21-.01.21-.01l.46-.02h.15s.15-.02.15-.02c3.93-.25,7.79-1.24,11.37-2.91,1.81.85,3.7,1.56,5.66,2.11,3.64,1.04,7.55,1.56,11.63,1.56h.26s116.18-.69,116.18-.69c8.35-.01,14.81-2.09,19.69-4.83,2.96,1.69,6.11,2.9,9.59,3.7,2.46.56,4.61.79,6.21.95,1.72.2,3.69.38,5.85.54h.17s.17.02.17.02l6.24.34h.1s.1.01.1.01c5.1.23,10.28.35,14.99.35h.26s7-.1,7-.1h.18s.18,0,.18,0l6.87-.23h.1s.1,0,.1,0c2.32-.1,4.61-.23,6.63-.38,2.24-.17,4.23-.36,5.93-.58l.49-.06.49-.09.31-.06c3.56-.59,7.03-1.73,10.33-3.37l.07-.03.07-.04c3.58-1.83,6.8-4.23,9.57-7.15,1.5-1.58,2.84-3.28,4.02-5.09l12.57,9.24c2.73,2.01,5.71,3.64,8.83,4.83,3.22,1.23,6.61,2.01,10.05,2.29l.34.03.34.02,5.91.27h.16s.16.01.16.01l8.68.24h.1s.1,0,.1,0l10.17.17h.08s.08,0,.08,0l8.82.08h.09s.09,0,.09,0c3.24,0,6.9,0,10.81-.15,4.72-.17,8.25-.6,11.33-1.39,3.57-.83,7.05-2.26,10.36-4.25,2.42-1.45,4.7-3.17,6.8-5.14l2.26,1.66c3.52,2.58,7.64,4.48,12.25,5.64l.13.03.13.03c2.68.64,5.14.89,6.66,1.05,2.99.49,7.06.83,12.39,1.06,4.23.18,9.09.27,14.06.27,1.01,0,2.03,0,3.04-.01,6.15-.04,11.8-.23,16.31-.54,7.57-.53,11.21-1.39,13.29-2.01,6.51-1.89,14.57-6.14,20.74-15.57l15.69,11.53c3.16,2.32,6.66,4.05,10.42,5.17,3.39,1.01,6.98,1.52,10.67,1.52,7.54,0,11.71.03,15.74.06h.81c5.7.05,11.62.1,17.6.1,6.58,0,12.32-.06,17.55-.19h.21s.21-.01.21-.01l.46-.02h.15s.15-.02.15-.02c3.89-.24,7.7-1.22,11.24-2.85,1.02.47,2.06.89,3.11,1.27,3.45,1.22,7.01,1.89,10.6,1.99,3.31.15,9.92.38,17,.52,4.51.09,8.82.14,12.79.14,1.1,0,2.18,0,3.25-.01,4.98-.04,9.16-.16,12.41-.37,4.07-.26,7.38-.7,10.09-1.34l.31-.06.68-.18c3.34-.9,6.5-2.23,9.4-3.95,3.18-1.89,5.99-4.22,8.41-6.95,2.47-2.78,4.49-5.96,5.97-9.44,1.38-3.24,2.29-6.71,2.69-10.31.59-5.23,1.28-21.5,1.34-101.29.04-50.31-.19-110.32-.33-146.17l-.02-4.55v-1.43c-.05-11.47-.08-20.54-.08-36.24,0-3.7-.54-7.3-1.6-10.71-1.24-3.95-3.16-7.56-5.71-10.74-.83-1.03-1.75-2.05-2.75-3.01-1.04-1.01-2.14-1.94-3.28-2.77-4.5-3.31-9.11-6.74-13.57-10.07-9.04-6.74-18.39-13.71-27.75-20.31-2.37-1.7-4.96-3.07-7.7-4.08h0c-2.52-.93-5.14-1.56-7.79-1.88-1.69-.21-3.79-.39-6.43-.57-2.25-.15-4.88-.27-7.84-.38-6.18-.22-12.82-.34-18.71-.34-2.9,0-6.17.04-9.71.11-3.43.06-6.52.17-9.13.32-3.96.21-7.32.58-10.24,1.12-5.17.94-9.41,2.54-12.97,4.89l-.37.25-.36.26-.65.48-.36.26-.35.28c-1.91,1.54-3.56,3.15-5.04,4.93-1.74,2.07-3.21,4.33-4.39,6.72-.3.6-.58,1.22-.84,1.84l-16.69-12.27c-3.07-2.26-6.52-4.1-10.22-5.44-3.57-1.3-7.44-2.15-11.49-2.52h-.1s-.1-.02-.1-.02c-1.97-.16-3.9-.24-5.61-.31-.6-.02-1.2-.05-1.8-.08-11.94-.6-25.54-1.28-39.57-1.28-12.76,0-23.98.57-34.29,1.73l-.17.02-.17.02-.27.04h-.1s-.1.03-.1.03c-9.76,1.39-17.62,5.5-23.4,12.24l-5.94-4.36c-3.26-2.4-7.12-4.22-11.43-5.38-2.84-.77-5.96-1.29-9.52-1.58-3.12-.33-6.83-.54-11.01-.64-1.55-.03-3.17-.05-4.82-.05-2.73,0-5.59.04-8.52.13-4.9.15-10.06.42-14.93.77-4.92.37-9.48.81-13.25,1.3-3.39.36-6.42,1.06-9.24,2.12h-.03s-.03.03-.03.03c-4.25,1.62-8.01,4.03-11.16,7.19-.19.19-.38.38-.57.58-2.29-1.67-4.59-3.32-6.9-4.94l-.11-.08-.11-.08c-3.1-2.12-6.55-3.71-10.25-4.73-3.3-.91-6.7-1.36-10.14-1.36h-.59s-34.78,1.09-34.78,1.09c-3.49.03-6.69.49-9.78,1.41-4.09,1.19-7.83,3.14-11.12,5.79l-.03.03-.03.03c-1.61,1.3-3.07,2.75-4.38,4.32l-7.99-5.87c-3.52-2.6-7.61-4.54-12.13-5.74-3.02-.82-6.29-1.36-9.97-1.65-2.47-.25-5.51-.41-9.05-.48-1.67-.04-3.52-.06-5.47-.06s-3.96.02-6.04.06c-4.56.09-9.45.26-13.79.48-2.87.15-8.15.46-11.27.9l-.49.07-.48.09h-.02c-4.69.84-9.35,2.83-13.49,5.76-3.8,2.7-7.08,6.17-9.51,10.06-.86,1.38-1.62,2.81-2.28,4.28l-18.31-13.46c-3.66-2.69-7.88-4.65-12.52-5.8-3.47-.87-7.15-1.29-11.23-1.29h-41.89c-5,0-9.49.61-13.73,1.88h-.03s-.04.02-.04.02c-5.47,1.65-10.29,4.39-14.31,8.13-3.36,3.11-6.02,6.8-7.94,10.98l-19.51-14.34c-3.07-2.26-6.51-4.1-10.22-5.44-3.57-1.3-7.44-2.15-11.49-2.52h-.1s-.1-.02-.1-.02c-1.97-.16-3.9-.24-5.61-.31-.6-.03-1.2-.05-1.79-.08-11.94-.6-25.53-1.28-39.56-1.28-12.76,0-23.98.57-34.29,1.73l-.17.02-.17.02-.27.04h-.1s-.1.03-.1.03c-10.68,1.51-19.08,6.29-24.98,14.2-1.1,1.48-2.03,2.96-2.83,4.43l-18-13.23c-2.86-2.09-6-3.64-9.92-4.89-2.61-.83-5.16-1.45-7.54-2l-.5-.11-.5-.09c-1.91-.33-4.17-.63-6.71-.88-2.23-.23-4.73-.41-7.4-.56-2.6-.13-5.38-.23-8.29-.3-3.67-.08-6.63-.12-9.1-.12h0ZM612.81,0c-3.3,0-6.92.1-10.74.31-3.37.18-6.87.45-10.37.8-3.15.31-6.4.7-9.67,1.16-2.9.4-5.84.86-8.7,1.35l-.17.03-.4.06-.4.08c-5.01,1-9.6,2.75-13.64,5.21h0c-4.6,2.79-8.46,6.46-11.48,10.91-1.04,1.54-1.98,3.16-2.79,4.87l-18.24-13.41c-3.08-2.27-6.52-4.09-10.21-5.43-3.61-1.31-7.48-2.15-11.53-2.53h-.1s-.1-.02-.1-.02c-1.96-.16-3.9-.24-5.61-.31-.6-.02-1.2-.05-1.79-.08-11.94-.6-25.54-1.28-39.57-1.28-12.76,0-23.98.57-34.29,1.73l-.25.03-.25.03-.26.04h-.03s-.03,0-.03,0c-10.7,1.52-19.11,6.3-25,14.22-4.45,5.97-6.17,12.13-7.43,16.64v.05s-.03.05-.03.05l-.58,2.12-.08.29-.07.29c-.49,2.03-.97,4.09-1.45,6.19-.76-.65-1.54-1.27-2.33-1.86l-41.04-30.17c-3.11-2.28-6.54-4.1-10.22-5.43-3.6-1.3-7.47-2.15-11.52-2.53h-.1s-.1-.02-.1-.02c-1.97-.16-3.91-.24-5.62-.31-.6-.03-1.2-.05-1.79-.08-11.94-.6-25.53-1.28-39.56-1.28-12.76,0-23.98.57-34.29,1.73l-.27.03-.27.04-.25.04c-10.69,1.52-19.1,6.3-25,14.2-4.46,6-6.18,12.16-7.44,16.65l-.02.07-.02.07-.58,2.12-.07.27-.06.27c-.65,2.69-1.29,5.44-1.92,8.24l-36.8-27.05c-8.13-5.97-17.41-10.45-27.6-13.33-9.27-2.62-19.52-3.94-30.45-3.94-.35,0-.7,0-1.04,0h-.09s-.09,0-.09,0l-3.11.05h-.14s-.14,0-.14,0c-15.53.49-29.77,3.53-42.32,9.04-13.2,5.79-24.47,14.25-33.52,25.14-8.02,9.66-14.1,21.03-18.09,33.8-3.8,12.16-5.67,25.52-5.58,39.74v.1s0,.1,0,.1l.06,3.38v.12s0,.13,0,.13c.71,23.46,8.29,44.9,23.17,65.57,4.19,5.82,8.72,11.25,13.41,16.36h-2c-4.89,0-9.17.48-13.1,1.47-5.68,1.44-10.68,3.97-14.87,7.53-4.75,4.03-8.24,9.11-10.37,15.1-1.63,4.57-2.42,9.55-2.42,15.21,0,20.02,2,37.11,6.1,52.24,4.41,16.24,11.37,30.12,20.69,41.27,2.28,2.72,4.73,5.32,7.29,7.72,2.55,2.4,5.29,4.68,8.11,6.75l41.06,30.18c9.09,6.69,19.69,11.72,31.51,14.95,10.95,2.99,23.19,4.51,36.4,4.51,14.06,0,27.53-2.72,40.05-8.08,6.85-2.94,13.29-6.61,19.27-10.99l10.4,7.65c3.52,2.59,7.64,4.48,12.24,5.64l.13.03.13.03c2.69.64,5.15.89,6.67,1.05,2.99.48,7.05.83,12.38,1.05,4.23.18,9.09.27,14.06.27,1.01,0,2.03,0,3.04-.01,6.16-.04,11.8-.23,16.31-.54,7.53-.53,11.17-1.38,13.26-2,6.49-1.88,14.55-6.12,20.76-15.58l15.7,11.54.03.02.03.02c3.13,2.29,6.61,4.01,10.35,5.12,3.4,1.01,6.99,1.53,10.69,1.53,7.54,0,11.71.03,15.74.06h.81c5.7.05,11.62.1,17.6.1,6.58,0,12.32-.06,17.55-.19h.21s.22-.02.22-.02l.46-.02h.15s.15-.02.15-.02c2.99-.19,5.94-.81,8.76-1.83,1.53.25,2.81.39,3.7.48h.05s.01,0,.01,0c2.99.49,7.06.83,12.39,1.06,4.23.18,9.1.27,14.06.27,1.01,0,2.03,0,3.04-.01,6.15-.04,11.8-.23,16.31-.54,5.8-.41,10.02-1.04,13.28-2,6.49-1.88,14.54-6.13,20.73-15.58l15.7,11.54.03.02.03.02c3.13,2.28,6.61,4.01,10.34,5.12,3.36,1,6.88,1.51,10.47,1.51.11,0,.23,0,.34,0l51.59-.02h.59s.59-.04.59-.04c4.77-.3,9.43-1.7,13.6-4.07.94.45,1.9.86,2.88,1.24,3.56,1.38,7.29,2.21,11.03,2.47l7.09.48h.18s.18.02.18.02l6.98.34h.15s.15.01.15.01l6.95.22h.17s.17,0,.17,0l6.37.09h.13s.13,0,.13,0c10.22,0,20.37-.43,30.15-1.28,12.23-1.08,23.65-2.86,33.97-5.29,12.15-2.87,23.08-6.72,32.47-11.47,3.07-1.55,6.01-3.21,8.8-4.98l19.22,14.12c3.52,2.59,7.64,4.49,12.25,5.64l.13.03.13.03c2.69.64,5.14.89,6.66,1.04,2.99.49,7.06.83,12.38,1.05,4.23.18,9.1.27,14.06.27,1.01,0,2.03,0,3.04-.01,6.15-.04,11.8-.23,16.31-.54,7.58-.53,11.22-1.39,13.3-2.01,6.48-1.88,14.52-6.13,20.71-15.57l15.7,11.54.03.02.03.02c3.14,2.29,6.64,4.02,10.38,5.13,3.36,1,6.95,1.52,10.66,1.52,7.54,0,11.71.03,15.74.06h.8c5.71.05,11.63.1,17.6.1,6.58,0,12.32-.06,17.55-.19h.21s.21-.01.21-.01l.46-.02h.15s.15-.02.15-.02c5.55-.35,10.95-2.18,15.61-5.31,4.17-2.8,7.62-6.48,10.25-10.94,1.83-3.09,3.22-6.54,4.14-10.23.8-3.23,1.21-6.64,1.23-10.12v-.45s-.02-.45-.02-.45l-.08-1.96-.02-.55-.06-.55c-2.39-23.63-5.29-49.67-8.38-75.29-3.05-25.24-6.34-50.59-9.79-75.36-3.3-23.7-6.72-46.46-10.16-67.67-3.35-20.74-6.78-40.23-10.17-57.92-.24-1.57-.67-4.2-1.53-7.25-1.19-4.26-2.95-8.23-5.21-11.81-1.24-1.97-2.71-3.89-4.34-5.67-1.77-1.94-3.7-3.68-5.75-5.19l-41.06-30.19c-3.09-2.27-6.53-4.1-10.23-5.44-3.6-1.3-7.48-2.15-11.52-2.52h-.1s-.1-.02-.1-.02c-1.96-.16-3.9-.24-5.61-.31-.6-.02-1.2-.05-1.8-.08-11.94-.6-25.54-1.28-39.57-1.28-12.76,0-23.98.57-34.29,1.73l-.17.02-.17.02-.27.04h-.1s-.1.03-.1.03c-10.68,1.51-19.08,6.29-24.98,14.2-4.46,5.99-6.18,12.15-7.44,16.65l-.02.06-.02.06-.58,2.12-.08.29-.07.29c-1.41,5.87-2.78,11.97-4.11,18.23l-36.4-26.76c-3.04-2.23-6.31-4.38-9.74-6.4-3.37-1.98-6.9-3.84-10.51-5.53-11.71-5.5-25.05-9.72-39.66-12.55-14.22-2.74-29.86-4.19-45.23-4.19h0Z"/>
      </g>
      <path class="cls-1" d="M104.67,84.1c14.45,0,18.78,9.03,18.78,37.92,0,6.14,2.53,9.39,7.58,9.39,11.56,0,30.7.36,41.17,0,4.69,0,8.67-4.7,8.67-9.39,0-62.48-23.48-93.53-71.5-93.18-53.81.36-76.93,37.2-75.48,83.06,2.17,71.51,91,97.15,91,140.85,0,14.8-8.67,25.28-17.69,25.28-15.53,0-20.94-11.19-20.94-45.86,0-6.14-2.17-9.39-7.95-9.39-9.75,0-31.06-.36-37.56-.36-9.39,0-13,2.53-13,11.55,0,68.98,26.73,99.68,82.35,99.68,42.98,0,74.03-34.31,75.48-80.89,2.53-83.42-94.26-98.95-94.26-152.04,0-10.11,5.42-16.62,13.36-16.62h0ZM270.44,228.91c-2.17,0-3.97-2.53-3.61-5.06,3.61-36.47,7.22-81.26,13-112.31.36-1.45,3.97-1.45,4.33,0,6.5,36.11,10.11,76.2,13.72,112.31.36,2.89-1.8,5.06-3.97,5.06h-23.48ZM366.5,330.39c3.25,0,5.78-4.33,5.42-10.11-7.22-71.14-21.31-186.35-38.28-274.46-.72-4.7-2.16-13.72-13.72-14.81-22.39-1.08-50.2-2.89-75.84,0-7.58,1.08-8.31,6.5-10.11,12.64-8.67,36.11-15.53,80.17-20.59,117.73-7.58,52.36-15.17,106.9-19.14,159.92-.36,7.95,6.14,7.59,8.67,7.95,7.22,1.5,41.54,1.5,47.31-.36,11.92-3.25,10.47-31.24,12.27-45.09.36-3.25,2.53-4.33,5.78-4.33,9.75,0,22.75.36,31.42-.36,2.17,0,3.97.73,4.33,2.89,2.17,13,1.8,30.7,3.97,41.53.72,4.33,2.89,6.86,7.59,6.86h50.92ZM452.45,228.91c-2.17,0-3.97-2.53-3.61-5.06,3.61-36.47,7.22-81.26,13-112.31.36-1.45,3.97-1.45,4.33,0,6.5,36.11,10.11,76.2,13.72,112.31.36,2.89-1.8,5.06-3.98,5.06h-23.47ZM548.51,330.39c3.25,0,5.78-4.33,5.42-10.11-7.22-71.14-21.31-186.35-38.28-274.46-.72-4.7-2.17-13.72-13.72-14.81-22.4-1.08-50.2-2.89-75.85,0-7.58,1.08-8.3,6.5-10.11,12.64-8.67,36.11-15.53,80.17-20.59,117.73-7.58,52.36-15.17,106.9-19.14,159.92-.36,7.95,6.14,7.59,8.67,7.95,7.22,1.5,41.53,1.5,47.31-.36,11.92-3.25,10.48-31.24,12.28-45.09.36-3.25,2.53-4.33,5.78-4.33,9.75,0,22.75.36,31.42-.36,2.17,0,3.97.73,4.34,2.89,2.17,13,1.8,30.7,3.97,41.53.72,4.33,2.89,6.86,7.58,6.86h50.92ZM635.91,88.43c10.83,0,20.94,3.61,27.45,19.5,6.86,15.89,9.39,44.48,9.39,71.63,0,23.12.72,63.98-8.31,79.57-4.33,7.22-12.28,12.28-23.83,13-2.89.36-6.5.36-10.47-6.86-.73-28.59-1.81-56.76-1.81-84.63,0-22.09.73-60.79.73-83.18,0-6.14,2.53-9.03,6.86-9.03h0ZM577.77,31.01c-7.22,1.44-9.75,5.77-9.75,13.78v272.54c0,5.78,5.77,12.34,11.92,12.7,9.39.72,18.42,1.08,26.72,1.08,33.23,0,85.59-4.69,105.81-32.56,18.06-24.56,24.92-72.29,25.64-118.93,0-38.71-5.06-76.62-13.72-99.43-16.25-41.9-71.86-52.43-111.59-52.43-12.64,0-24.56,1.45-35.03,3.25h0ZM821.89,228.91c-2.17,0-3.97-2.53-3.61-5.06,3.61-36.47,7.22-81.26,13-112.31.36-1.45,3.97-1.45,4.33,0,6.5,36.11,10.11,76.2,13.72,112.31.36,2.89-1.8,5.06-3.97,5.06h-23.47ZM917.96,330.39c3.25,0,5.78-4.33,5.42-10.11-7.22-71.14-21.31-186.35-38.28-274.46-.72-4.7-2.17-13.72-13.72-14.81-22.4-1.08-50.2-2.89-75.85,0-7.58,1.08-8.3,6.5-10.11,12.64-8.67,36.11-15.53,80.17-20.59,117.73-7.58,52.36-15.17,106.9-19.14,159.92-.36,7.95,6.14,7.59,8.67,7.95,7.22,1.5,41.54,1.5,47.31-.36,11.92-3.25,10.47-31.24,12.28-45.09.36-3.25,2.53-4.33,5.78-4.33,9.75,0,22.75.36,31.42-.36,2.17,0,3.98.73,4.34,2.89,2.17,13,1.8,30.7,3.97,41.53.72,4.33,2.89,6.86,7.58,6.86h50.92ZM1096.36,36.79c0-3.97-1.08-5.77-4.33-5.77h-54.53c-3.25,0-6.14,2.17-6.14,5.77v286.75c0,3.61,3.25,6.86,7.22,6.86h52.36c3.98,0,5.42-1.45,5.42-4.69v-122.79h36.83c1.08,34.67.36,81.26.36,116.29,0,6.86,4.33,11.19,10.47,11.19,5.78,0,42.61,0,48.39-1.08,2.17-.36,4.69-2.17,5.78-3.97,5.42-9.4,2.17-267.25,1.44-288.19q0-6.14-7.22-7.95c-6.14-1.08-16.25-1.45-26.72-1.45-11.2,0-22.39.36-26.73,1.08-3.61.72-3.97,2.89-3.97,6.86l-1.08,109.07h-39.01l1.45-107.98h0ZM1291.74,228.91c-2.17,0-3.97-2.53-3.61-5.06,3.61-36.47,7.23-81.26,13-112.31.36-1.45,3.97-1.45,4.33,0,6.5,36.11,10.11,76.2,13.72,112.31.36,2.89-1.8,5.06-3.97,5.06h-23.48ZM1387.8,330.39c3.25,0,5.78-4.33,5.42-10.11-7.22-71.14-21.31-186.35-38.28-274.46-.72-4.7-2.16-13.72-13.72-14.81-22.4-1.08-50.2-2.89-75.84,0-7.58,1.08-8.31,6.5-10.11,12.64-8.67,36.11-15.53,80.17-20.59,117.73-7.58,52.36-15.17,106.9-19.14,159.92-.36,7.95,6.14,7.59,8.67,7.95,7.22,1.5,41.53,1.5,47.31-.36,11.92-3.25,10.47-31.24,12.27-45.09.36-3.25,2.53-4.33,5.78-4.33,9.75,0,22.75.36,31.42-.36,2.17,0,3.97.73,4.33,2.89,2.17,13,1.8,30.7,3.97,41.53.73,4.33,2.89,6.86,7.59,6.86h50.92ZM1473.39,43.65c0-8.3-2.52-11.19-10.47-11.19h-41.89c-8.67,0-11.92,3.25-11.92,10.84-2.17,91.01-2.17,187.07-1.08,278.08,0,6.5,3.97,9.75,10.47,9.75l116.29-.72c6.86,0,10.11-3.61,10.11-10.83v-40.09c0-3.97-2.17-5.42-5.78-5.42l-68.25.36,2.52-230.77h0ZM1603.4,201.1l3.98.37,19.5-162.88c.72-3.97,2.53-5.05,5.78-5.05l35.03-1.08c3.97,0,6.5,1.81,6.86,4.69,6.5,42.98,12.64,112.67,21.31,164.68l5.05-.36,13-162.16c.36-4.33,1.8-5.42,5.42-5.78,10.84-1.44,34.31-2.89,46.95-1.44,9.39.72,8.31,3.97,7.59,10.83-2.17,36.83-24.92,211.27-32.86,279.16-.36,3.25-4.34,7.94-8.31,8.67-1.81.72-8.3.72-15.53.72-12.28,0-27.81-.36-32.86-.72-4.33-.36-7.95-3.97-8.67-7.95l-24.2-141.2h-1.81l-20.94,141.56c-.72,5.06-4.33,6.86-6.86,7.22-5.78.72-14.81,1.08-23.84,1.08s-18.41-.36-24.56-1.08c-3.97-.36-7.58-.73-8.3-7.22l-35.39-282.05c-.72-5.42,3.25-8.31,5.42-8.67,5.05-.72,29.61-1.8,39.36-.72,9.03.72,10.84,2.89,11.56,11.92,1.81,26.36,15.17,146.99,17.34,157.45h0ZM1849.33,228.91c-2.17,0-3.97-2.53-3.61-5.06,3.61-36.47,7.23-81.26,13-112.31.36-1.45,3.97-1.45,4.33,0,6.5,36.11,10.11,76.2,13.72,112.31.36,2.89-1.8,5.06-3.97,5.06h-23.48ZM1945.4,330.39c3.25,0,5.78-4.33,5.42-10.11-7.22-71.14-21.31-186.35-38.28-274.46-.72-4.7-2.17-13.72-13.72-14.81-22.39-1.08-50.2-2.89-75.84,0-7.58,1.08-8.31,6.5-10.11,12.64-8.67,36.11-15.53,80.17-20.59,117.73-7.58,52.36-15.17,106.9-19.14,159.92-.36,7.95,6.14,7.59,8.67,7.95,7.22,1.5,41.54,1.5,47.31-.36,11.92-3.25,10.47-31.24,12.27-45.09.36-3.25,2.53-4.33,5.78-4.33,9.75,0,22.75.36,31.42-.36,2.17,0,3.97.73,4.33,2.89,2.17,13,1.8,30.7,3.97,41.53.73,4.33,2.89,6.86,7.59,6.86h50.92ZM2028.46,36.85c0-3.31-1.45-5.48-4.7-5.84-5.78-.72-18.06-1.08-29.61-1.08-12.64,0-24.56.36-26.72,1.8-1.81,1.45-2.53,2.89-2.53,5.12v285.54c0,4.76,4.69,8.37,8.31,8.37,7.22.36,41.53,1.45,48.39-.36,3.97-1.08,5.78-3.67,6.14-6.92,2.17-19.14.73-249.73.73-286.62Z"/>
    </g>
  </g>
</svg>