<svg width="674" height="449" viewBox="0 0 674 449" fill="none" xmlns="http://www.w3.org/2000/svg">
<g clip-path="url(#clip0_349_420)">
<path d="M673.19 94.35C674.56 57.89 661.89 29.01 637.51 13.01C624.54 4.5 609.6 0 594.3 0C570.72 0 547.7 10.31 531.12 28.29C515.16 45.61 507.39 67.72 509.26 90.55C510.01 99.75 511.91 108.67 514.81 117.12C490.02 87.55 457.36 64.58 421.85 51.94C396.41 42.88 369.25 38.29 341.13 38.29C295.09 38.29 248.84 51.09 210.92 74.33C193.53 84.99 178.25 97.84 165.31 112.37C170.11 97.29 172.44 79.2 172.39 57.58V55.51C172.4 44.18 172.42 28.66 162.53 17.42C156.64 10.72 147.91 6.72 139.17 6.72C133.33 6.72 127.83 8.5 123.25 11.86C120.07 14.19 117.65 17.06 115.75 20.09C114.34 18.61 112.8 17.19 111.09 15.87C104.79 11 97.6204 8.43 90.3704 8.43C82.0304 8.43 74.0604 11.93 67.9304 18.3C66.9404 19.33 65.9904 20.41 65.0804 21.56C60.1704 14.71 52.0304 6.42 40.6004 4.59C39.0404 4.34 37.4804 4.21 35.9504 4.21C29.4204 4.21 17.2704 6.69 9.21036 23.29C6.10036 29.7 3.79036 37.72 2.17036 47.8C-1.30964 69.35 -0.599642 86.54 4.47036 103.52C11.9704 128.63 24.9104 145.75 41.5304 152.93L35.0204 217.88C34.2504 225.52 33.2804 233.44 32.3304 241.1C30.1304 258.93 27.8604 277.36 27.7304 295.66C27.5704 317.66 37.0304 345.81 64.2304 352.75C67.4204 353.56 70.6704 353.98 73.8904 353.98C95.1104 353.98 110.68 337 116.7 320.18C120.37 309.92 121.15 299.1 121.72 289.41C122.28 291.98 122.87 294.55 123.5 297.11L123.54 297.25C135.54 343.53 164.71 382.52 207.89 410.01C246.85 434.81 294.97 448.46 343.39 448.46C345.64 448.46 347.93 448.43 350.17 448.37C404.23 446.93 455.26 429.45 493.85 399.14C516.57 381.3 535.09 356.83 547.42 328.39C552.08 317.63 555.78 306.47 558.5 295.12C559.99 310.6 562.99 326.27 569.92 340.43C578.71 358.39 595.24 369.99 612.04 369.99C621 369.99 629.81 366.77 637.53 360.67C663.13 340.45 658.58 306.51 655.26 281.72C654.76 277.97 654.28 274.43 653.92 271.1C652.16 254.82 650.44 238.24 648.77 222.22C646.69 202.26 644.55 181.69 642.31 161.34C662.09 142.68 672.21 120.71 673.2 94.36L673.19 94.35Z" fill="white"/>
<path d="M551.881 241.97C548.791 161.66 492.561 89.85 417.821 63.25C352.701 40.07 276.051 48.4899 217.181 84.57C155.081 122.63 120.951 190.36 129.451 263.02C130.681 273.54 132.591 283.94 135.131 294.22C159.591 388.51 257.501 438.81 349.831 436.36C398.331 435.07 447.981 419.88 486.421 389.69C530.261 355.26 554.011 297.15 551.891 241.96L551.881 241.97ZM507.651 345.64C480.151 386.29 432.831 409.45 385.561 418.15C301.511 433.61 200.801 401.69 160.631 321.51C155.651 311.56 151.961 301.12 149.171 290.36C132.591 223.06 150.201 154.6 205.321 110.53C254.471 71.2199 323.151 56.82 384.451 69.14C452.891 82.9 507.001 130.62 528.771 197.08C545.111 246.98 537.141 302.08 507.671 345.64H507.651Z" fill="#C20000"/>
<path d="M441.561 159.67C423.691 139.43 399.551 125.26 373.211 119.38C342.381 112.5 309.451 114.85 280.521 127.81C254.781 139.34 233.011 159.38 219.711 184.28C206.171 209.63 201.891 239.03 207.161 267.24C208.541 274.64 210.581 281.88 213.171 288.95C222.401 313.71 240.161 333.98 262.581 347.76C285.021 361.56 311.281 368.85 337.511 370.15C363.381 371.42 389.911 366.73 413.091 354.93C435.891 343.32 454.461 324.24 465.031 300.89C475.431 277.94 478.071 252.23 473.901 227.47C469.691 202.46 458.361 178.69 441.581 159.68L441.561 159.67ZM465.251 282.16C458.751 305.39 444.571 326.36 424.911 340.45C404.951 354.76 380.611 362.15 356.241 363.75C331.141 365.4 305.361 361.28 282.321 351.07C259.751 341.07 239.681 325.15 227.031 303.72C223.941 298.48 221.311 292.98 219.181 287.28C209.481 260.8 208.381 231.85 217.461 205.04C226.041 179.7 243.361 157.67 265.711 143.01C290.461 126.78 320.161 120.12 349.531 122.21C376.881 124.15 403.291 133.56 424.301 151.45C442.891 167.28 456.571 188.47 463.751 211.78C470.761 234.52 471.681 259.17 465.241 282.15L465.251 282.16Z" fill="#C20000"/>
<path d="M148.741 121.51C158.261 102.39 160.431 78.68 160.371 57.62C160.341 47.16 160.881 33.75 153.501 25.35C147.901 18.98 137.571 16.23 130.321 21.54C124.031 26.15 122.181 35.28 119.611 42.24C118.821 44.38 118.031 46.53 117.241 48.67C114.681 39.61 111.081 31.04 103.731 25.37C95.0406 18.66 84.3606 18.52 76.5406 26.63C70.8506 32.53 67.4806 40.67 65.1106 48.74C63.3306 43.67 61.0906 38.54 58.7106 34.05C54.7506 26.61 47.5106 17.85 38.6706 16.44C21.3106 13.66 16.0006 37.22 13.9806 49.71C11.2006 66.96 10.9106 83.26 15.9306 100.09C21.7006 119.43 33.5606 140.96 54.4206 144.29C51.9206 169.22 49.4206 194.15 46.9206 219.08C44.3906 244.37 39.8806 270.32 39.6906 295.75C39.5506 314.4 47.0006 335.98 67.1606 341.12C84.7706 345.61 99.8106 331.66 105.361 316.13C109.151 305.54 109.341 293.8 110.051 282.7C110.921 269.24 111.781 255.78 112.651 242.32C114.341 216.07 116.031 189.83 117.711 163.58C118.041 158.43 116.631 147.32 120.981 144C123.211 142.3 127.481 142.19 130.131 140.94C138.481 136.99 144.661 129.65 148.721 121.5L148.741 121.51ZM119.541 129.3C114.621 131.01 109.861 132.36 106.861 137.05C102.931 143.21 103.881 152.69 103.441 159.55C100.841 199.93 98.2506 240.31 95.6506 280.68C94.7606 294.48 94.2106 331.79 71.0506 327.08C49.7206 322.75 54.2506 291.43 55.7706 276.25C60.3806 229.96 65.0506 183.68 69.6906 137.39C69.9706 134.59 68.8406 132.64 67.1106 131.53C65.9706 130.56 64.4106 129.99 62.4106 130.11C41.1406 131.39 32.2506 106.56 28.2106 89.54C25.4706 78.01 26.1006 65.18 28.1806 52.65C29.1906 46.6 30.2406 39.09 33.6706 33.83C36.4406 29.58 36.8606 29.9 41.2106 34.41C48.3306 41.77 52.5806 54.57 53.9006 64.6C55.0506 73.33 55.9006 80.96 64.9906 84.48C70.5306 86.63 75.0006 80.42 73.9406 75.53C74.6606 78.86 74.2706 75.12 74.5406 73.79C75.2006 70.52 75.6106 67.21 76.3106 63.94C77.9306 56.39 79.8606 48.46 83.6406 41.67C96.8106 17.98 106.501 67.18 109.021 74.79C111.361 81.88 120.561 81.49 123.061 74.79C125.121 69.27 127.151 63.75 129.191 58.22C131.331 52.42 132.871 42.88 136.651 38.02C141.131 32.26 144.651 39.05 145.241 43.66C145.831 48.24 145.831 52.97 145.831 57.59C145.851 68.56 144.961 79.53 143.031 90.33C140.251 105.95 136.061 123.54 119.551 129.27L119.541 129.3Z" fill="#C20000"/>
<path d="M661.191 93.9C662.211 66.84 654.631 38.6 630.921 23.04C582.361 -8.83 516.581 32.89 521.211 89.58C523.571 118.51 539.011 145.86 564.051 160.84C566.401 192.34 566.851 223.9 568.401 255.44C569.681 281.49 568.931 311.17 580.671 335.15C590.011 354.23 611.131 366.2 630.061 351.24C653.521 332.7 644.701 297.7 641.971 272.38C637.801 233.77 633.981 195.12 629.691 156.51C648.971 140.08 660.211 119.9 661.191 93.89V93.9ZM614.801 153.43C613.631 159.85 616.561 169.35 617.271 175.89C618.211 184.63 619.141 193.36 620.051 202.1C623.141 231.65 626.151 261.21 629.431 290.74C630.881 303.82 633.831 319.26 627.701 331.64C621.211 344.75 606.671 347.42 597.791 335.63C590.851 326.41 588.001 314.39 586.651 303.16C584.821 287.93 583.831 272.59 583.051 257.28C581.401 224.83 581.001 192.35 578.541 159.94C578.421 158.4 577.921 157.12 577.181 156.09C577.441 153.65 576.461 151.14 573.641 149.58C538.441 130.01 520.781 76.66 550.961 45.19C567.071 28.4 590.731 21.72 612.721 30.07C633.121 37.82 643.961 56.28 646.121 77.42C648.231 98.04 645.341 119.09 631.231 135.05C626.241 140.7 616.181 145.81 614.791 153.44L614.801 153.43Z" fill="#C20000"/>
</g>
<defs>
<clipPath id="clip0_349_420">
<rect width="673.29" height="448.45" fill="white"/>
</clipPath>
</defs>
</svg>
