<svg width="516" height="455" viewBox="0 0 516 455" fill="none" xmlns="http://www.w3.org/2000/svg">
<g clip-path="url(#clip0_349_434)">
<path d="M264.72 454.88C262.75 454.88 260.78 454.76 258.88 454.52C250.58 453.49 243.6 450.23 237.44 447.35C235.02 446.22 232.74 445.16 230.5 444.27C213.44 437.52 193.05 436.13 173.33 434.78C170.5 434.59 167.69 434.39 164.91 434.19C150.22 433.1 135.21 432.28 120.69 431.48C107.1 430.73 93.0405 429.96 79.1805 428.97C76.0805 428.75 72.8605 428.57 69.4505 428.39C52.5305 427.48 33.3405 426.44 17.2305 418.78C-2.79952 409.27 -0.509519 385.93 0.860481 371.98C1.14048 369.09 1.41048 366.35 1.49048 364.11C2.54048 333.78 4.24048 303.1 5.92048 274.45C9.81048 208.05 14.2705 143.48 19.1805 82.55C20.0205 72.11 28.2205 64.23 38.2605 64.23H38.6805C42.5905 64.32 46.3905 64.61 50.0905 64.91C51.3905 60.09 54.4605 55.98 58.6905 53.36C62.0105 49.76 66.5905 47.59 71.7405 47.29C76.8305 46.99 82.1305 46.83 87.4905 46.83C119.76 46.83 152.35 52.35 180.35 57.52C201.1 61.35 219.33 65.48 236.11 70.14C241.31 71.58 246.41 73.22 251.34 74.8C252.56 75.19 253.77 75.58 254.99 75.97C253.42 65.71 253.29 54.75 254.71 44.18C256.82 28.46 268.41 12.55 286.48 12.55C288.01 12.55 289.57 12.67 291.11 12.91C296.83 13.79 302.13 16.35 306.62 20.32C311.78 13.45 319.32 8.64 327.5 7.16C329.24 6.84 331 6.68 332.74 6.68C340.74 6.68 348.22 10.02 353.68 15.93C358.01 13.07 362.711 11.54 367.641 11.41C367.88 11.41 368.12 11.41 368.36 11.41C379.54 11.41 388.43 17.96 392.87 29.43C405.45 12.98 423.89 0.56 447.05 0.02C447.55 0.01 448.04 0 448.53 0C478.55 0 504.921 22.17 512.651 53.91C518.651 78.5 515.391 111.7 495.16 130.24C494.37 155.71 493.6 181.18 492.82 206.64C491.111 263.08 489.33 321.45 487.4 378.86C487.07 388.77 486.3 411.73 462.96 418.14C460.82 430.1 456.13 444.74 437.63 449.76C434.01 450.74 430.13 451.22 425.75 451.22C420.96 451.22 416.26 450.64 412.11 450.13C410.84 449.97 409.6 449.82 408.37 449.69C399.63 448.74 390.801 447.59 382.26 446.49C362.451 443.92 341.97 441.26 322.06 440.99C321.78 440.99 321.49 440.99 321.21 440.99C311.52 440.99 305.53 443.24 293.96 447.93C285.03 451.55 275.3 454.9 264.71 454.9L264.72 454.88Z" fill="white"/>
<path d="M280.87 129.52C280.87 129.52 280.85 129.48 280.84 129.46C279.04 126.05 274.241 125.29 270.781 127.15C270.741 127.17 270.701 127.2 270.661 127.22C270.391 127.37 270.131 127.54 269.881 127.73C268.301 128.89 267.151 130.7 266.971 133.16C266.301 142.47 265.68 151.79 265.08 161.11C265 162.41 264.91 163.71 264.83 165.01C260.4 234.78 257.741 304.65 256.881 374.56C256.781 383.05 268.72 383.85 271.05 376.95C271.06 376.91 271.07 376.87 271.08 376.82C271.3 376.14 271.42 375.39 271.43 374.56C271.43 374.09 271.451 373.62 271.451 373.16C272.331 303.72 274.971 234.32 279.381 165.01C279.461 163.71 279.551 162.41 279.631 161.11C280.231 151.79 280.86 142.47 281.52 133.16C281.54 132.88 281.541 132.61 281.541 132.35C281.541 132.34 281.541 132.32 281.541 132.31C281.511 131.24 281.26 130.31 280.86 129.52H280.87Z" fill="#C20000"/>
<path d="M239.52 135.61C201.33 123.88 161.73 119.5 121.92 118.38C117.9 118.27 117.91 124.5 121.92 124.62C161.21 125.73 200.17 130.06 237.86 141.63C241.71 142.81 243.35 136.79 239.52 135.61Z" fill="#C20000"/>
<path d="M235.911 162.9C200.181 153.35 163.671 150.1 127.011 146.35C123.021 145.94 123.051 152.18 127.011 152.59C143.881 154.32 160.791 155.73 177.621 157.9C196.711 160.37 215.651 163.94 234.261 168.92C238.141 169.96 239.801 163.94 235.921 162.9H235.911Z" fill="#C20000"/>
<path d="M234.071 191.76C194.971 185.04 155.391 181.28 115.721 180.58C111.701 180.51 111.701 186.75 115.721 186.82C154.831 187.51 193.861 191.15 232.411 197.77C236.341 198.44 238.021 192.43 234.071 191.75V191.76Z" fill="#C20000"/>
<path d="M226.921 215.23C192.411 210.89 157.711 208.19 122.941 207.16C118.921 207.04 118.931 213.28 122.941 213.4C157.711 214.44 192.411 217.13 226.921 221.47C230.891 221.97 230.861 215.73 226.921 215.23Z" fill="#C20000"/>
<path d="M168.61 289.09C174.81 289.95 180.95 290.65 186.96 291.19C191.53 291.6 196.16 291.92 200.73 292.17C200.92 292.18 201.11 292.19 201.3 292.2C202.64 281.77 203.3 270.35 203.3 257.67L172.59 256.85L170.42 274.36C170.23 275.93 170.03 277.51 169.83 279.08C169.42 282.32 169 285.66 168.63 288.92C168.63 288.98 168.62 289.04 168.61 289.1V289.09Z" fill="#C20000"/>
<path d="M218.151 239.83C199.121 239.32 180.081 238.81 161.051 238.3C159.721 238.26 158.841 238.93 158.391 239.83C157.231 240.19 156.211 241.12 156.021 242.62C154.391 255.78 152.761 268.95 151.141 282.11C150.391 288.15 149.301 294.41 150.781 300.43C151.051 301.52 151.331 302.86 151.961 303.8C152.911 305.22 154.281 305.31 155.831 305.57C159.171 306.12 162.531 306.62 165.881 307.09C178.581 308.84 191.351 310.03 204.161 310.58C209.241 310.8 216.031 312.06 217.631 305.67C219.111 299.73 219.381 293.19 219.971 287.11C221.381 272.43 221.791 257.68 221.271 242.94C221.211 241.22 219.891 239.87 218.151 239.82V239.83ZM211.811 302.93C211.621 304.04 211.751 304.19 210.931 304.56C210.291 304.85 208.891 304.51 208.221 304.49C205.511 304.4 202.801 304.29 200.091 304.14C195.351 303.89 190.621 303.55 185.891 303.13C176.221 302.27 166.601 301.03 157.021 299.46C155.981 295.57 156.231 291.58 156.691 287.55C157.241 282.65 157.891 277.76 158.501 272.87C159.671 263.43 160.831 253.99 162.001 244.55C179.701 245.02 197.411 245.5 215.111 245.97C215.661 264.87 215.061 284.3 211.801 302.92L211.811 302.93Z" fill="#C20000"/>
<path d="M501.001 56.7501C494.911 31.7701 474.011 11.3801 447.331 12.0101C417.541 12.7101 394.831 38.8401 387.921 66.8601C386.971 66.9301 386.011 67.0001 385.061 67.0701C385.171 62.3801 385.061 57.7001 384.821 53.1201C384.281 42.5001 383.031 23.0401 367.941 23.4101C361.881 23.5601 357.011 27.9501 353.621 32.5701C352.251 34.4401 351.051 36.4601 350.071 38.5801C348.851 32.7901 347.311 27.1501 345.961 25.3901C342.051 20.2701 336.011 17.8101 329.641 18.9701C323.241 20.1301 317.651 24.5101 314.491 30.1701C312.591 33.5701 311.631 37.4801 310.901 41.2701C310.651 42.5601 310.361 48.2001 309.791 52.3901C306.801 46.9701 305.111 37.6301 302.821 34.1701C299.691 29.4401 294.961 25.6601 289.271 24.7801C276.471 22.8101 268.101 34.4601 266.581 45.7901C264.721 59.6201 265.631 75.9301 270.801 89.9001C265.121 90.5101 259.981 90.1401 253.631 88.1401C246.711 85.9701 239.871 83.6501 232.881 81.7101C214.861 76.7001 196.541 72.7301 178.151 69.3301C143.661 62.9601 107.601 57.1801 72.4308 59.2701C69.6108 59.4401 67.6408 60.8901 66.5308 62.8201C63.9808 63.7401 61.8108 65.8801 61.4308 69.2301C61.1108 72.0601 60.8008 74.8801 60.4908 77.7101C53.1108 77.3701 45.7908 76.4001 38.4008 76.2301C34.2408 76.1401 31.4308 79.6501 31.1208 83.5101C25.9808 147.33 21.6208 211.23 17.8808 275.15C16.1408 304.93 14.5008 334.72 13.4608 364.53C12.9808 378.38 7.04079 400.68 22.3608 407.96C39.3008 416.01 61.7308 415.7 80.0208 417.01C108.591 419.05 137.221 420.11 165.781 422.23C188.431 423.91 213.501 424.66 234.891 433.12C243.381 436.48 251.121 441.48 260.341 442.62C270.381 443.86 280.261 440.52 289.461 436.8C301.341 431.99 309.421 428.82 322.221 428.99C351.501 429.39 380.611 434.6 409.661 437.76C417.641 438.63 426.581 440.33 434.481 438.18C449.461 434.12 450.331 421.36 452.391 408.07C454.591 407.73 456.761 407.31 458.881 406.8C473.071 403.38 474.981 391.15 475.411 378.45C478.251 293.77 480.701 209.07 483.331 124.38C503.091 110.38 506.551 79.5801 500.991 56.7401L501.001 56.7501ZM447.331 26.5701C466.041 26.0101 480.431 39.6001 485.861 56.7201C492.251 76.8401 490.441 110.73 465.551 116.57C462.321 117.33 460.381 120.46 460.211 123.59C459.261 140.68 458.241 157.77 457.411 174.87C457.081 181.61 456.881 188.45 455.381 195.04C453.521 203.21 450.281 206.7 441.641 207.04C428.651 207.55 429.221 192.51 429.801 182.83C430.921 164.06 432.711 145.31 434.161 126.56C434.491 122.33 431.671 120.03 428.431 119.64C427.811 119.24 427.081 118.92 426.241 118.7C405.281 113.19 398.221 95.7801 400.381 77.5601C401.101 76.4701 401.531 75.1601 401.531 73.7001C401.531 73.1401 401.451 72.5801 401.301 72.0201C406.211 49.4001 424.521 27.2501 447.341 26.5701H447.331ZM290.691 42.3801C295.581 46.8501 295.191 57.1801 299.031 62.9501C304.801 71.6501 318.201 73.9801 322.481 62.6301C324.491 57.3001 322.551 32.6001 332.271 33.1701C339.851 33.6201 336.331 60.2001 342.971 65.6001C346.681 68.6101 351.941 68.7401 355.891 66.0301C361.141 62.4201 360.981 56.9201 361.691 51.2001C362.001 48.7001 364.041 38.7901 367.221 38.9801C369.901 39.1401 369.691 45.2301 369.861 46.9901C370.741 56.0001 370.741 65.1601 370.021 74.1801C370.021 74.2201 370.021 74.2701 370.011 74.3101C369.981 74.7401 369.951 75.1701 369.911 75.6001C369.211 83.4701 367.301 94.3701 362.011 100.67C357.541 105.99 349.951 107.07 343.401 107.44C339.301 107.67 336.361 110.6 336.121 114.72C334.931 135.76 336.941 156.75 336.901 177.79C336.881 186.79 338.861 200.79 328.891 204.73C324.231 206.57 316.451 207.3 311.971 204.97C307.031 202.4 307.361 196.09 306.861 190.91C306.821 190.48 306.741 190.07 306.641 189.68C306.901 188.98 307.071 188.2 307.121 187.34C308.461 162.31 307.841 137.28 307.641 112.22C307.611 108.82 305.371 106.29 302.301 105.2C283.971 98.7101 281.741 76.7001 281.031 60.0901C280.801 54.7001 280.041 32.6501 290.701 42.3901L290.691 42.3801ZM435.091 421.72C433.151 424.27 429.591 424.44 428.051 424.54C419.831 425.04 411.131 423.4 403.001 422.44C378.091 419.51 353.171 415.65 328.081 414.6C319.221 414.23 309.651 413.84 301.021 416.28C293.381 418.44 286.351 422.77 278.821 425.34C267.141 429.32 259.141 428.28 248.161 423.19C227.341 413.54 204.641 411.11 181.991 409.01C155.671 406.57 129.251 405.43 102.871 403.9C81.1208 402.64 58.5208 402.23 37.1808 397.4C34.5808 396.81 31.7508 396.23 29.3108 395.2C28.1808 394.72 27.5608 394.29 27.2508 394.02C27.0108 387.06 27.6508 376.53 27.9108 368.59C28.7908 341.17 30.2608 313.78 31.8108 286.39C35.5208 221.26 39.9208 156.15 45.1008 91.1101C49.7308 91.4401 54.3408 91.9101 58.9808 92.1701C52.8308 151.98 49.1008 212.06 46.6208 272.12C45.9408 288.68 45.3708 305.23 44.9208 321.8C44.5508 335.33 43.0608 349.76 46.7308 362.98C55.3308 393.9 92.1608 389.96 117.631 389.72C151.261 389.4 185.571 386.26 218.881 392.33C226.271 393.68 233.571 395.46 240.711 397.81C249.201 400.61 256.721 405.21 265.011 408.32C279.011 413.57 291.571 402.68 305.441 401.11C322.091 399.23 338.821 402.44 355.261 404.72C372.831 407.16 390.501 408.68 408.241 409.04C417.671 409.23 427.911 409.72 437.951 409.34C437.601 413.91 437.071 419.09 435.091 421.69V421.72ZM460.741 382.55C459.931 392.29 456.781 392.78 447.641 393.5C438.481 394.21 429.261 394.52 420.071 394.59C403.651 394.71 387.221 393.89 370.901 392.14C355.131 390.45 339.501 387.28 323.661 386.31C309.611 385.45 295.531 386.74 282.491 392.32C278.491 394.03 276.091 395.53 271.691 394.78C267.781 394.12 264.481 391.94 260.931 390.29C254.561 387.34 248.001 384.78 241.291 382.74C212.471 373.96 181.791 373.82 151.941 374.44C136.911 374.76 121.891 375.31 106.851 375.19C94.0408 375.08 71.0508 377.97 63.2708 365.24C56.2408 353.74 59.0908 336.32 59.4308 323.53C59.8208 308.81 60.3108 294.09 60.8808 279.38C63.5708 210.7 67.9008 142 75.5108 73.6801C111.541 72.0001 148.391 78.1801 183.571 85.1301C201.321 88.6301 219.031 92.6501 236.371 97.8501C243.791 100.07 251.091 103.16 258.711 104.62C265.101 105.85 271.601 104.87 277.971 103.59C281.911 109.09 286.901 113.7 293.121 116.92C293.351 140.4 293.811 163.86 292.561 187.32C292.551 187.59 292.551 187.85 292.561 188.1C292.311 188.91 292.211 189.84 292.311 190.89C293.591 204.04 295.531 216.53 310.411 219.93C321.481 222.46 337.381 220.3 345.151 211.24C353.961 200.97 351.611 182.87 351.381 170.37C351.081 153.99 349.941 137.64 350.401 121.27C361.031 119.62 370.581 115.26 376.191 105.18C380.251 97.9001 382.581 89.9201 383.831 81.7201C384.491 81.6701 385.141 81.6101 385.801 81.5601C384.921 103.43 394.651 123.94 419.181 131.8C418.281 143.45 417.371 155.1 416.471 166.75C415.721 176.47 414.321 186.33 415.511 196.07C417.331 210.96 425.701 222.14 441.621 221.59C454.311 221.15 461.841 216 466.191 207.38C464.901 248.7 463.611 290.02 462.331 331.35C461.801 348.34 462.151 365.61 460.731 382.55H460.741Z" fill="#C20000"/>
</g>
<defs>
<clipPath id="clip0_349_434">
<rect width="515.35" height="454.88" fill="white"/>
</clipPath>
</defs>
</svg>
