<svg width="160" height="136" viewBox="0 0 160 136" fill="none" xmlns="http://www.w3.org/2000/svg">
<path d="M158.454 89.6997C155.709 77.8456 142.676 71.1968 132.318 67.2454C119.476 62.3459 105.799 60.7556 92.151 60.0827C78.4221 59.4068 63.4959 59.101 50.0346 62.7603C43.817 53.1908 37.2583 43.5356 29.0528 35.5594C22.6196 29.3066 12.3955 23.2007 4.09827 29.9963C-6.96987 39.0612 7.9946 55.1206 14.411 61.9651C18.2033 66.0098 22.3719 69.7058 26.2529 73.6648C26.1948 73.7199 26.1382 73.778 26.0816 73.8422C17.6284 83.4729 10.874 96.2706 16.587 109.004C21.2372 119.366 31.9231 125.88 42.1226 129.814C50.7196 133.131 59.8396 134.359 68.9764 135.044C78.968 135.794 89.0376 135.809 99.0261 135.024C117.15 133.599 140.109 129.989 152.322 114.93C157.896 108.057 160.471 98.4206 158.453 89.7013L158.454 89.6997ZM9.64457 48.9718C7.31717 45.6183 3.53706 40.15 5.32619 35.8194C6.40579 33.206 9.58187 31.712 12.2503 31.6585C17.4112 31.5545 21.8535 35.1282 25.3767 38.4985C33.44 46.2116 39.8182 55.6023 45.8798 64.9287C45.3064 66.5267 46.5175 68.7103 48.6017 68.0497C60.043 64.4195 72.6739 64.2956 84.5663 64.499C96.058 64.6962 107.865 65.363 119.078 68.0512C129.822 70.6279 141.967 74.7811 149.633 83.1365C150.489 84.0693 151.218 85.0755 151.836 86.1337C151.451 86.3157 151.108 86.6505 150.87 87.172C146.753 96.1528 135.474 99.8045 126.654 102.075C114.676 105.158 102.178 106.245 89.8389 106.412C72.781 106.641 53.9997 104.845 38.2447 97.8242C34.3911 96.1069 29.9474 93.8162 27.7362 90.0438C25.2391 85.785 27.5527 81.274 30.3648 77.8043C30.5376 77.5902 30.6676 77.3685 30.7578 77.1422C32.3359 76.8623 33.6082 74.72 32.1723 73.1281C24.7788 64.9302 15.9998 58.1239 9.64457 48.9702V48.9718ZM151.348 108.093C143.063 123.15 122.247 127.602 106.666 129.577C89.9108 131.701 72.0393 131.831 55.3805 128.732C44.1442 126.64 32.1371 121.722 24.5433 112.868C17.7675 104.968 18.2767 96.0595 22.1119 87.9473C22.7373 92.0393 25.4761 95.2812 28.7042 97.7202C36.7323 103.786 47.4946 106.296 57.1896 108.194C78.8549 112.434 101.817 112.214 123.41 107.628C133.981 105.383 147.946 101.447 153.904 91.4216C155.162 96.9541 154.102 103.085 151.348 108.093Z" fill="#C20000"/>
<path d="M49.4764 90.5594C62.1945 85.7502 75.8852 83.7317 89.4444 83.6384C103.057 83.5451 117.128 85.3113 129.727 90.7077C132.46 91.8776 134.841 87.8574 132.084 86.6753C119.009 81.0755 104.664 78.9836 90.5041 78.9652C76.2231 78.9454 61.6333 80.9899 48.2347 86.056C45.4501 87.1096 46.6581 91.6237 49.4764 90.5579V90.5594Z" fill="#C20000"/>
<path d="M78.8777 53.5334C81.6868 54.6053 82.9025 50.0943 80.1194 49.0315C77.5382 48.0467 75.7735 45.6413 75.2964 42.9561C74.7015 39.6072 76.5824 37.4801 78.2936 34.8484C81.1806 30.4077 80.8794 25.2284 77.318 21.2663C75.3056 19.0261 72.0117 22.3383 74.0165 24.5678C77.1803 28.0864 74.911 31.3833 72.7687 34.6313C71.2793 36.8899 70.4183 39.3014 70.5101 42.0294C70.6859 47.2745 74.0578 51.6938 78.8792 53.5349L78.8777 53.5334Z" fill="#C20000"/>
<path d="M96.9327 36.8227C98.572 39.3274 102.617 36.9909 100.965 34.4662C99.121 31.648 98.2188 28.4474 98.8228 25.0756C99.3259 22.265 101.051 19.9146 101.895 17.2218C102.635 14.8592 102.571 12.518 101.733 10.1952C100.834 7.69961 99.0705 5.49454 98.9359 2.77109C98.7876 -0.219968 94.1175 -0.236789 94.2674 2.77109C94.405 5.57559 95.5335 7.72713 96.6774 10.2273C98.4466 14.0915 97.0765 16.6208 95.5091 20.2434C93.1312 25.7438 93.6496 31.8055 96.9327 36.8227Z" fill="#C20000"/>
<path d="M126.12 49.9536C124.092 45.4441 123.534 40.5477 124.45 35.6956C125.004 32.7596 120.505 31.5011 119.948 34.4539C118.78 40.6455 119.506 46.568 122.089 52.3101C123.32 55.0457 127.345 52.674 126.121 49.9536H126.12Z" fill="#C20000"/>
</svg>
