<svg width="600" height="600" viewBox="0 0 600 600" fill="none" xmlns="http://www.w3.org/2000/svg">
<path fill-rule="evenodd" clip-rule="evenodd" d="M413.04 488.09C408.98 488.09 404.89 487.65 400.89 486.79C381.78 482.66 366.47 469.26 359.55 451.68C344.57 456.24 328.26 459.79 314.54 462.78C312.82 463.15 311.15 463.52 309.54 463.87C289.04 468.37 268.33 470.66 248.01 470.66C177.1 470.66 121.35 443.21 91.02 393.35C76.59 369.63 73.15 341.11 72.81 321.36C72.76 318.55 72.87 315.73 72.97 312.99C73.06 310.61 73.15 308.36 73.13 306.18C73.13 305.17 73.11 303.19 72.85 301.58C71.41 301.38 69.44 301.28 68.53 301.23C67.39 301.17 66.19 301.14 64.86 301.14C61.33 301.14 57.56 301.35 53.92 301.55C50.19 301.75 46.66 301.95 43.24 301.95C42.31 301.95 41.41 301.94 40.57 301.91C27.89 301.46 18 296.72 12.74 288.57C8.45999 281.93 5.30999 270.34 14.58 252.82C24.91 233.31 45.4 221.18 68.06 221.18C73.14 221.18 78.21 221.81 83.14 223.04C95.46 226.13 105.66 233.21 114.25 239.61C115.08 240.23 115.92 240.86 116.75 241.48C122.3 245.66 127.54 249.6 132.84 251.63C155.51 260.31 182.27 264.9 210.21 264.9C228.73 264.9 247.37 262.96 265.61 259.13C322.41 247.22 387.37 231.24 439.39 192.04C445.35 187.55 454.92 178.54 465.05 169C478.63 156.22 494.01 141.74 508.07 130.94C522.73 119.69 535.21 113.39 545.17 112.23C547.12 112 549.08 111.89 550.98 111.89C564.01 111.89 575.34 117.14 582.89 126.68C591.35 137.37 593.62 152.17 589.13 167.26C585.41 179.75 575.37 188.01 560.85 190.51C557.7 191.05 554.26 191.32 550.33 191.32C547.19 191.32 544.15 191.15 541.42 190.95C530.57 203.81 527.71 220.53 525.93 230.91C525.68 232.35 525.45 233.71 525.22 234.93C519.79 263.36 514.22 291.02 505.84 316.92C497.27 343.4 478.49 371.97 456.33 392.95C460.3 397.52 463.54 402.71 465.94 408.39C470.54 419.29 471.65 431.18 469.14 442.77C466.35 455.67 459.14 467.3 448.83 475.52C438.67 483.62 425.96 488.08 413.04 488.08V488.09Z" fill="white"/>
<path fill-rule="evenodd" clip-rule="evenodd" d="M573.23 134.36C567.56 127.2 558.2 123.16 546.63 124.52C538.69 125.45 527.59 131.57 515.62 140.76C491.16 159.53 461.44 190.92 446.85 201.92C394.33 241.49 331.37 257.98 268.18 271.23C223.2 280.66 171.85 279.79 128.45 263.17C120.61 260.17 113.81 254.67 106.9 249.52C98.49 243.26 89.93 237.47 80.17 235.02C58.92 229.69 35.95 238.92 25.53 258.6C19.39 270.21 20.39 277.59 23.15 281.88C26.09 286.44 32.33 289.27 41.04 289.57C49 289.85 59.65 288.42 69.19 288.91C75.42 289.23 81.41 289.74 83.72 294.92C85.24 298.32 85.48 302.2 85.5 306.11C85.53 311.22 85.09 316.4 85.17 321.14C85.55 343.35 89.9 367.72 101.58 386.92C144.43 457.35 234.36 467.73 306.9 451.79C324.57 447.91 349.34 442.81 368.22 435.72C370.35 454.4 384.12 470.51 403.51 474.7C427.83 479.95 451.83 464.47 457.08 440.15C461.14 421.36 452.82 402.76 437.61 392.85C463.71 372.21 485.28 340.35 494.1 313.1C502.47 287.23 508 259.28 513.1 232.6C515.15 221.87 517.77 196.02 536.53 178.16C542.32 178.59 551.29 179.62 558.78 178.33C567.72 176.79 574.77 172.29 577.32 163.73C580.97 151.46 578.69 141.24 573.23 134.34V134.36ZM440.98 436.7C437.65 452.13 422.41 461.96 406.98 458.63C391.55 455.3 381.72 440.06 385.05 424.63C388.38 409.2 403.62 399.37 419.05 402.7C434.49 406.03 444.31 421.27 440.98 436.7ZM561.53 159.05C561.12 160.41 559.93 161 558.66 161.45C556.82 162.1 554.7 162.37 552.54 162.5C545.31 162.91 537.58 161.61 533.65 161.56C533.6 161.56 533.55 161.56 533.51 161.56C533.38 161.56 533.24 161.56 533.11 161.57C532.97 161.57 532.83 161.58 532.69 161.6C532.56 161.61 532.44 161.63 532.31 161.65C532.17 161.67 532.03 161.69 531.89 161.72C531.77 161.74 531.64 161.78 531.52 161.81C531.38 161.84 531.25 161.88 531.11 161.92C530.98 161.96 530.86 162.01 530.73 162.05C530.61 162.1 530.48 162.14 530.36 162.19C530.23 162.24 530.1 162.31 529.98 162.37C529.87 162.42 529.75 162.48 529.64 162.54C529.52 162.61 529.39 162.68 529.27 162.76C529.16 162.83 529.05 162.89 528.95 162.96C528.84 163.04 528.73 163.12 528.61 163.2C528.5 163.28 528.39 163.36 528.29 163.45C528.25 163.48 528.21 163.51 528.18 163.54C503.62 184.53 499.42 216.43 496.92 229.55C491.95 255.58 486.59 282.84 478.43 308.07C469.55 335.51 446.33 368.18 419.07 386C397.32 383.03 376.53 396.29 370 417.2C351.84 425.82 322.94 431.44 303.37 435.74C237.24 450.27 154.71 442.59 115.65 378.39C105.45 361.62 101.97 340.27 101.63 320.88C101.45 310.43 103.13 298.04 98.75 288.23C95.31 280.51 88.9 276.1 80.74 274C71.59 271.63 59.85 272.49 49.67 272.99C46.15 273.16 42.85 273.27 40.02 273.05C39.26 272.99 38.33 272.81 37.61 272.65C38.02 271.22 38.84 268.65 40.07 266.33C46.93 253.37 62.15 247.51 76.15 251.02C83.85 252.95 90.43 257.82 97.05 262.75C105.18 268.8 113.32 275.04 122.54 278.57C168.82 296.29 223.57 297.42 271.54 287.37C337.09 273.63 402.27 256.14 456.75 215.09C469.35 205.6 493.16 181.04 515.2 162.31C523.54 155.23 531.59 149 538.62 144.95C542.38 142.78 545.71 141.22 548.54 140.89C553.57 140.3 557.84 141.48 560.31 144.6C562.98 147.98 563.32 153.07 561.53 159.07V159.05Z" fill="#C20000"/>
<path fill-rule="evenodd" clip-rule="evenodd" d="M481.11 214.93C477.89 212.71 473.55 213.07 470.73 215.77C458.02 227.99 447.35 241.57 431.02 249.64C429.17 250.55 427.83 252.07 427.09 253.83C420.05 253 412.72 253.7 405.85 255.84C391.91 260.18 380.07 270.24 375.95 284.36C363.18 280.52 348.85 281.18 336.67 287.62C328.11 292.14 320.51 299.48 315.32 310.22C297.41 296.89 273.37 293.61 252.38 304.08C247.01 306.76 241.6 310.83 237.15 315.63C236.74 315.15 236.31 314.69 235.88 314.23C217.09 294.42 188.06 293.1 166.73 306.03C166.08 305.55 165.35 305.15 164.55 304.87C155.91 301.82 128.54 294.95 120.99 290.21C117.84 288.23 113.74 288.61 111.01 291.15C108.28 293.68 107.59 297.73 109.33 301.03C147.8 373.93 241.53 392.03 305.38 384.62C385.45 375.34 448.48 308.77 484.05 224.93C485.58 221.33 484.36 217.15 481.14 214.93H481.11ZM449.25 257.89C448.57 259.07 447.87 260.24 447.18 261.41C446.65 261.03 446.12 260.67 445.58 260.32C446.83 259.53 448.06 258.73 449.26 257.89H449.25ZM344.35 302.19C356.13 295.97 370.82 297.83 381.35 304.89C388.5 309.68 393.76 316.99 394.41 326.06C378.46 339.96 360.95 351.07 342.03 358.54C341.76 350.66 339.15 343.18 335.7 335.61C333.57 330.93 330.96 326.63 327.98 322.73C331.4 312.67 337.27 305.93 344.36 302.19H344.35ZM223.9 325.56C233.64 335.83 236.07 351.89 235.08 365.99C208.76 361.25 182.41 351.7 160.6 335.62C172.79 312.31 205.37 306.03 223.9 325.56ZM152.48 318.27C150.78 320.33 149.2 322.53 147.78 324.87C144.1 321.36 140.61 317.63 137.34 313.63C142.79 315.33 148.16 316.94 152.48 318.27ZM303.46 368.26C287.64 370.09 269.77 370.31 251.42 368.33C252.39 355.96 251 342.35 246.17 330.56C249.46 325.61 254.66 321.33 259.7 318.82C282.44 307.49 309.85 318.56 320.71 342.43C323.93 349.52 326.68 356.38 325.16 364.11C318.1 366 310.86 367.4 303.46 368.26ZM408.21 312.94C404.91 304.23 398.83 296.95 391.15 291.64C392.83 281.45 401.21 274.53 410.74 271.56C420.11 268.64 430.91 269.36 438.37 275.36C429.22 289.02 419.15 301.66 408.22 312.94H408.21Z" fill="#C20000"/>
</svg>
