<svg width="600" height="600" viewBox="0 0 600 600" fill="none" xmlns="http://www.w3.org/2000/svg">
<path d="M466.09 400.13C460.9 363.38 442.34 330.56 412.43 305.24C392.82 288.64 369.15 276.05 343.39 268.45L429.4 154C431.15 152.11 432.55 149.94 433.57 147.55C436.96 140.12 435.84 131.36 431.18 124.69L455.99 110.86C465.3 105.67 469.76 95.28 467.09 85C464.37 74.54 455.07 67.23 444.49 67.23C440.56 67.23 436.63 68.27 433.12 70.22L398.27 89.65C395.65 91.11 393.38 93.02 391.55 95.26L383.61 89.73C380.73 86.74 377.08 84.59 372.96 83.49L388.32 64.13C394 56.96 395.05 47.38 391.06 39.13C387.11 30.95 378.89 25.66 370.13 25.66C363.31 25.66 356.89 28.82 352.53 34.33L332.03 60.17C329.15 63.81 327.45 68.06 327.01 72.46L325.56 72.11C319.74 70.71 314.04 70.08 308.93 69.8C309.03 68.9 309.09 67.98 309.09 67.06V31.42C309.09 18.44 298.85 8.26999 285.77 8.26999C272.69 8.26999 262.46 18.44 262.46 31.42V67.07C262.46 67.98 262.51 68.88 262.61 69.77C261.05 69.79 259.58 69.83 258.17 69.88C252.91 70.07 248.4 71.34 244.7 72.46C244.25 68.07 242.56 63.82 239.68 60.18L219.18 34.34C214.81 28.83 208.4 25.67 201.58 25.67C192.81 25.67 184.6 30.96 180.64 39.14C176.65 47.4 177.7 56.98 183.38 64.14L200.32 85.5C198.62 86.32 196.88 87.33 195.11 88.59L181.99 97.92C179.95 94.55 177.04 91.68 173.43 89.67L138.58 70.24C135.07 68.28 131.14 67.25 127.21 67.25C116.62 67.25 107.32 74.56 104.6 85.02C101.93 95.3 106.39 105.69 115.7 110.88L145.09 127.27C141.69 133.59 141.27 141.17 144.43 147.84C145.46 150.19 146.87 152.31 148.6 154.16L232.85 267.18C212.1 273 193.42 282.38 177.18 295.16C151.39 315.45 131.72 344.96 121.8 378.26C112.15 410.65 111.9 444.64 121.08 476.55C130.58 509.55 149.57 537.97 176.01 558.76C203.58 580.44 238.79 593.92 277.82 597.76C285.63 598.53 293.42 598.91 301 598.91C334.27 598.91 363.73 591.68 388.58 577.41C417.59 560.76 440.21 533.86 453.99 499.63C466.47 468.64 470.77 433.31 466.08 400.15L466.09 400.13Z" fill="white"/>
<path d="M447.79 402.72C438.15 334.5 376.73 289.39 311.51 280.46C311.43 280.45 311.35 280.44 311.28 280.43C341.21 240.6 371.15 200.77 401.08 160.93C405.86 154.57 410.64 148.21 415.42 141.84C416.02 141.36 416.42 140.74 416.66 140.06C417.82 137.91 416.47 135.18 414.67 133.92C400.09 123.76 385.5 113.59 370.92 103.43C370.39 102.45 369.45 101.66 368.02 101.32C367.86 101.28 367.7 101.24 367.54 101.21C367.08 101.01 366.64 100.92 366.2 100.89C351.21 97.29 336.22 93.69 321.24 90.1C308.74 87.1 295.74 88.36 282.93 88.36C274.91 88.36 266.83 88.08 258.82 88.36C254.52 88.51 250.33 90.17 246.2 91.31C236.58 93.97 226.97 96.63 217.35 99.29C213.16 100.45 209.35 101.15 205.81 103.67C191.62 113.76 177.43 123.85 163.24 133.95C161.42 135.25 160.02 137.96 161.24 140.14C161.49 140.82 161.91 141.45 162.53 141.93C196.78 187.87 231.02 233.81 265.27 279.75C237.54 282.78 210.86 292.18 188.6 309.69C164.87 328.36 148.09 354.72 139.5 383.54C122.17 441.69 139.07 506.21 187.42 544.23C213.87 565.03 246.33 576.09 279.61 579.36C313.59 582.7 349.36 578.61 379.37 561.38C433.04 530.56 456.15 462 447.78 402.74L447.79 402.72ZM244.88 115.1C250.36 115.3 255.94 114.98 261.37 114.98C283.87 114.98 306.75 116.19 329.26 115.12C333.87 126.14 338.49 137.17 343.1 148.19C309.39 147.92 275.69 147.65 241.98 147.37C239.11 147.35 236.24 147.32 233.37 147.3C237.2 136.57 241.04 125.83 244.87 115.1H244.88ZM400.7 135.92C384.86 139.75 369.02 143.59 353.18 147.42C348.57 136.42 343.97 125.41 339.36 114.41C347.96 113.56 356.58 112.17 365.13 111.13C376.99 119.39 388.85 127.66 400.7 135.92ZM334.92 157.77C337.68 157.79 340.43 157.81 343.19 157.84C326 199.43 308.81 241.03 291.61 282.62C290.56 285.15 289.52 287.68 288.47 290.22C271.97 250.02 255.46 209.83 238.96 169.63C237.23 165.41 235.49 161.18 233.76 156.96C267.48 157.23 301.2 157.5 334.93 157.78L334.92 157.77ZM347.19 173.25C349.4 167.9 351.61 162.55 353.83 157.19C369.33 153.44 384.84 149.69 400.34 145.94C369.33 187.2 338.32 228.46 307.31 269.72C320.6 237.56 333.89 205.4 347.19 173.24V173.25ZM253.43 99.32C254.72 98.96 256.08 98.69 257.34 98.24C257.73 98.1 258.13 98.02 258.39 97.97C264.44 97.61 270.65 98.01 276.69 98.01H305.14C307.7 98.01 310.26 97.96 312.81 98.01C312.84 98.01 312.86 98.01 312.88 98.01C313.58 98.17 314.29 98.36 314.98 98.53C323.31 100.53 331.65 102.53 339.98 104.53C337.93 104.75 335.87 104.97 333.82 105.15C327.49 105.71 321 105.32 314.65 105.32C290.65 105.32 266.5 106.12 242.51 105.32C240.18 105.24 237.68 104.85 234.91 104.43C236.88 103.88 238.85 103.34 240.83 102.79C245.03 101.63 249.22 100.47 253.42 99.31L253.43 99.32ZM206.21 115.18C208.23 113.74 210.22 112.24 212.28 110.86C215.26 111.75 218.92 111.81 221.12 112.14C225.74 112.82 230.36 113.55 235 114.16C231.16 124.91 227.32 135.67 223.48 146.42C208.06 142.88 192.64 139.34 177.22 135.8C186.88 128.93 196.55 122.05 206.21 115.18ZM177.35 145.73C192.6 149.23 207.84 152.73 223.09 156.23C238.59 193.97 254.08 231.72 269.58 269.46C241.44 231.71 213.3 193.96 185.16 156.22C182.56 152.73 179.95 149.23 177.35 145.74V145.73Z" fill="#C20000"/>
<path d="M285.94 308.84C258.15 309.02 230.85 316.55 208.85 333.96C189.8 349.03 176.4 370.39 169.65 393.62C156.17 440.04 169.92 491.2 208.45 521.39C229.44 537.83 255.1 546.59 281.46 549.25C308.78 552.02 337.59 548.71 361.71 534.82C404.4 510.23 422.88 455.72 416.34 408.51C407.59 345.34 345.64 309.19 285.94 308.83V308.84Z" fill="white"/>
<path d="M290.58 67.06V31.42C290.58 25.21 280.92 25.2 280.92 31.42V67.07C280.92 73.28 290.58 73.29 290.58 67.07V67.06Z" fill="#C20000"/>
<path d="M353.33 78.49C360.16 69.88 366.99 61.26 373.83 52.65C377.65 47.83 370.86 40.95 367 45.82C360.17 54.43 353.34 63.05 346.5 71.66C342.68 76.48 349.47 83.36 353.33 78.49Z" fill="#C20000"/>
<path d="M412.14 114.15C423.76 107.67 435.37 101.2 446.99 94.72C452.42 91.69 447.55 83.35 442.12 86.38C430.5 92.86 418.89 99.33 407.27 105.81C401.84 108.84 406.71 117.18 412.14 114.15Z" fill="#C20000"/>
<path d="M218.35 78.49C222.21 83.36 229 76.48 225.18 71.66C218.35 63.05 211.52 54.43 204.68 45.82C200.82 40.95 194.03 47.83 197.85 52.65C204.68 61.26 211.51 69.88 218.35 78.49Z" fill="#C20000"/>
<path d="M164.41 105.81C152.79 99.33 141.18 92.86 129.56 86.38C124.13 83.35 119.25 91.69 124.69 94.72C136.31 101.2 147.92 107.67 159.54 114.15C164.97 117.18 169.85 108.84 164.41 105.81Z" fill="#C20000"/>
</svg>
