<svg width="2911" height="614" viewBox="0 0 2911 614" fill="none" xmlns="http://www.w3.org/2000/svg">
<g clip-path="url(#clip0_436_71)">
<path d="M663.25 10.9598C660.85 10.9198 658.72 11.2798 656.69 11.7898C570.56 3.31984 542.28 160.56 533.37 226.32C418.22 233.38 305.87 167.75 184.16 176.5C106.93 182.05 17.0101 221.66 7.96005 306.72C-1.03995 391.33 121.77 432.72 184.16 437.22C305.97 445.99 418.4 380.24 533.66 387.44C542.68 454.51 565.88 589.36 645.79 600.13C649.2 602.24 653.37 603.58 658.45 603.52C1190.81 597.17 1723.33 613.66 2255.68 601.74C2258.53 601.68 2261.04 601.1 2263.36 600.3C2263.96 600.32 2264.5 600.45 2265.14 600.43C2364.65 597.71 2387.02 469.48 2396.91 384.14C2461.47 381.93 2519.61 406.98 2582.19 423.49C2639.6 438.63 2695.62 442.08 2754.17 433.31C2813.32 424.47 2904.02 383.94 2903.42 311.6C2902.84 238.34 2835.24 201.69 2772.58 184.32C2641.3 147.92 2526.91 233.56 2400.95 230C2392.63 134.2 2361.12 31.3198 2275.31 14.6798C2272.95 14.2298 2270.74 14.1698 2268.6 14.3098C2265.62 12.8098 2262.12 11.8698 2258.07 11.7798C1726.54 -0.120159 1194.82 17.2698 663.25 10.9598Z" fill="#C20000" stroke="white" stroke-width="15" stroke-miterlimit="10"/>
<path d="M944.04 100.01C1367.62 117.49 1793.79 110.88 2217.51 100.98C2220.7 100.91 2220.7 96.11 2217.51 96.03C1793.79 85.97 1367.67 74.8 944.04 92.21C939.02 92.42 939.02 99.8 944.04 100.01Z" fill="white"/>
<path d="M919.58 90.4196C908.53 85.0396 886.93 81.5396 878.29 92.7196C876.38 95.1896 876.41 98.4496 879.26 100.25C889.72 106.84 909.15 102.1 919.58 97.0096C922.07 95.7896 922.08 91.6396 919.58 90.4196Z" fill="white"/>
<path d="M2299.87 283.18C2295.69 319.79 2297.6 356.72 2294.64 393.44C2291.08 437.72 2273.73 480.36 2259.89 522.12C2258.84 525.32 2263.15 527.59 2265.4 525.32C2325.45 465.22 2337.63 360.16 2310.03 281.8C2308.01 276.07 2300.53 277.42 2299.87 283.17V283.18Z" fill="white"/>
<path d="M108.06 318.12C136.24 386.81 231.23 354.15 284.52 348.53C288.34 348.14 288.42 342.84 284.52 342.53C256.05 340.3 228.27 335.58 199.6 334.4C168.59 333.12 143.33 320.89 114.42 311.77C110.95 310.68 106.54 314.45 108.06 318.12Z" fill="white"/>
<path d="M2621.61 330.7C2616.85 330.98 2613.87 338.1 2618.97 340.48C2679.97 368.96 2762.02 369.16 2820.05 334.18C2822.83 332.51 2821.93 327.21 2818.27 327.62C2752.51 335.02 2687.21 326.85 2621.61 330.69V330.7Z" fill="white"/>
</g>
<defs>
<clipPath id="clip0_436_71">
<rect width="2910.95" height="613.69" fill="white"/>
</clipPath>
</defs>
</svg>
