<svg width="600" height="600" viewBox="0 0 600 600" fill="none" xmlns="http://www.w3.org/2000/svg">
<path fill-rule="evenodd" clip-rule="evenodd" d="M493.51 596.27C478.63 596.27 465.78 593.39 454.23 587.46C442.65 581.52 434.11 573.33 427.96 566.86C425.08 563.83 422.32 560.68 419.65 557.63C411.32 548.11 403.44 539.12 391.62 532.92C383.65 528.74 373.97 527.74 364.7 527.28C360.58 527.08 356.29 526.98 352.13 526.89C343.46 526.7 334.5 526.5 325.73 525.33C305.49 522.62 286.86 515.97 270.37 505.59C254.28 495.46 240.18 481.75 228.45 464.83C216.8 448.03 207.74 428.1 202.25 407.19C196.65 385.87 194.88 363.92 197.12 343.71C201.46 304.73 219.85 273.71 249.43 254.88C242.82 244.95 236.37 234.91 230.07 225.12C226.68 219.85 223.21 214.45 219.72 209.09C211.79 211 203.26 211.96 194.26 211.96C183.34 211.96 172.07 210.55 160.78 207.76C134.91 201.37 111.77 188.52 98.88 173.38C91.16 164.31 86.37 154.85 84.64 145.26C83.02 136.23 84.19 127.18 88.04 119.09C93.43 107.77 104.03 99.0202 117.29 94.4302C115.73 89.1302 114.73 83.9902 114.28 79.0702C112.16 55.7702 122.03 37.0202 142.09 26.2602C149.95 22.0502 158.65 19.8202 167.25 19.8202C172.76 19.8202 178.06 20.7402 183.01 22.5502C194.85 26.8802 205.45 34.9302 215.4 47.1602C216.3 48.2602 217.17 49.3802 218.03 50.5102C226.42 40.4202 235.87 37.1802 243.3 36.4902C252.26 16.7702 271.84 3.74023 294.06 3.74023C307.89 3.74023 321.01 8.74024 331.99 18.1902C341.23 26.1502 347.72 36.7602 351.36 49.8402C352.72 49.6702 354.09 49.5902 355.46 49.5902C360.74 49.5902 365.81 50.8502 370.51 53.3502C377.28 56.9402 382.73 62.8102 386.71 70.8002C397.29 92.0802 396.3 123.12 384.14 151.82C375.3 172.66 361.78 189.41 346.11 199.27C346.82 202.08 347.47 204.83 348.07 207.51C353.88 206.48 359.75 205.96 365.64 205.96C392.26 205.96 419.24 216.55 443.64 236.6C467.48 256.18 487.7 284.01 500.58 314.98C513.83 346.83 518.02 379.15 512.37 406C508.34 425.18 496.6 444.19 485.24 462.57L483.3 465.72C475.09 479.02 466.61 492.77 466.73 502.19C467.02 526.18 482.76 541.34 506.31 556.73C514.3 561.95 517.87 571.62 515.19 580.78C512.52 589.93 504.31 596.16 494.77 596.26C494.34 596.26 493.92 596.26 493.5 596.26L493.51 596.27Z" fill="white"/>
<path fill-rule="evenodd" clip-rule="evenodd" d="M499.25 567.54C475.25 551.86 454.2 533.28 453.82 502.35C453.66 488.97 463.08 473.93 472.8 458.17C484.03 439.97 496.02 421.09 499.75 403.36C510.42 352.59 480.97 283.97 435.46 246.59C407.02 223.23 372.6 212.01 338.04 223.33C336.16 212.01 333.3 200.85 330.98 192.65C348.53 185.36 363.43 167.63 372.26 146.79C382.42 122.82 384.42 95.1901 375.16 76.5501C372.12 70.4301 368.32 66.7901 364.48 64.7601C357.71 61.1701 350.14 62.0301 343.12 66.1901C342.56 66.5201 342.01 66.8701 341.47 67.2401C340.03 52.3901 335.25 38.0301 323.58 27.9801C297.38 5.4101 259.78 18.5501 252.32 49.8801C241.26 47.5001 233.06 52.0801 227.03 59.9501C223.72 64.2801 221.2 69.8701 219.33 75.7001C215.09 68.7401 210.55 61.6201 205.41 55.3001C197.9 46.0701 189.14 38.5201 178.6 34.6701C168.7 31.0501 157.34 32.7401 148.21 37.6401C130.77 46.9901 125.7 61.9301 127.15 77.9001C127.94 86.5701 130.85 95.6001 134.65 103.94C118.69 105.19 105.15 113.22 99.71 124.65C94.66 135.26 95.48 149.47 108.72 165.02C119.61 177.81 140.6 189.49 163.89 195.23C184.53 200.33 206.85 200.74 225.26 193.96C239.56 215.7 253.31 237.92 268.04 259.37C231.93 276.3 213.99 308.87 209.96 345.14C205.69 383.51 217.27 426.06 239.06 457.48C260.4 488.24 290.11 507.53 327.45 512.54C339.59 514.17 352.58 513.77 365.34 514.4C376.6 514.96 387.69 516.29 397.62 521.5C415.83 531.05 425.78 545.84 437.33 557.98C450.97 572.33 466.36 583.67 494.65 583.36C498.44 583.32 501.76 580.8 502.82 577.16C503.88 573.52 502.44 569.62 499.27 567.54H499.25ZM312.34 41.0201C326.32 53.0601 325.62 73.6301 324.21 90.6301C323.86 94.8801 326.67 98.7401 330.82 99.7201C334.97 100.69 339.21 98.4801 340.79 94.5201C342.04 91.3801 344.28 87.9401 346.98 85.0701C348.71 83.2301 350.61 81.6201 352.63 80.5901C353.7 80.0401 354.77 79.5801 355.83 79.7601C357.46 80.0401 358.5 81.7201 359.74 84.2101C367.11 99.0501 364.5 120.98 356.4 140.07C348.46 158.81 335.15 175.27 318.66 178.5C316.27 178.97 314.19 180.43 312.94 182.51C311.69 184.6 311.37 187.12 312.08 189.45C315.03 199.15 322.31 223.2 322.82 242.22C322.96 247.56 322.62 252.45 321.17 256.24C320.78 257.25 320.32 258.18 319.7 258.91C317.41 253.19 314.31 247.84 312.34 244.58C297.28 219.75 279.41 196.76 263.95 172.11C287.05 142.82 295.27 99.8201 275.31 66.0701C273.4 62.8401 271.07 60.0901 268.37 57.7801C270.7 36.2001 295.43 26.4801 312.32 41.0201H312.34ZM224.57 175.51C208.4 183.67 187.3 183.27 168 178.51C148.62 173.73 130.88 164.5 121.81 153.85C114.52 145.29 112.46 137.88 115.24 132.04C119.71 122.64 133.76 118.88 147.7 121.93C151.08 122.67 154.57 121.31 156.57 118.49C158.57 115.66 158.68 111.92 156.85 108.98C151.04 99.6301 145.31 87.6701 144.28 76.3301C143.43 67.0401 146.18 58.2501 156.33 52.8101C161.26 50.1701 167.34 48.8901 172.68 50.8401C182.49 54.4301 189.89 62.7501 196.39 71.9201C203.9 82.5101 210.12 94.3601 216.31 103.53C218.35 106.55 222.06 107.96 225.59 107.05C229.11 106.14 231.69 103.12 232.02 99.4901C232.65 92.5601 234.31 82.0001 238.41 74.0801C240.08 70.8401 242.01 67.9401 245 66.9101C246.67 66.3301 248.61 66.5301 250.88 67.3401C254.92 68.7901 258.31 71.1101 260.51 74.8301C277.8 104.07 268.44 141.66 246.97 165.59C244.44 168.41 244.05 172.56 246.01 175.8C262.17 202.46 281.51 226.93 297.64 253.51C299.47 256.53 302.64 261.79 304.45 267.15C305.01 268.82 305.45 270.49 305.55 272.07C305.6 272.8 305.84 273.55 305.34 274.02C303.75 275.53 302.15 273.99 300.61 272.83C296.33 269.58 292.69 264.47 290.56 261.5C271.23 234.58 254 206.01 235.62 178.42C233.21 174.8 228.47 173.55 224.58 175.51H224.57ZM442.81 538.42C432.61 526.9 421.96 514.81 405.6 506.24C393.46 499.88 379.96 497.88 366.18 497.2C353.91 496.59 341.41 497.04 329.73 495.47C308.76 492.66 290.6 484.6 275.38 472.04C282.26 469.55 289.34 466.82 296.39 463.82C306.8 459.39 316.86 454.62 325.81 449.47C326.87 448.99 327.34 447.75 326.87 446.69C326.39 445.63 325.15 445.16 324.09 445.63C314.55 448.8 304.01 451.39 293.21 453.59C282.47 455.77 271.77 457.41 261.82 458.66C261.8 458.66 261.77 458.67 261.75 458.68C258.75 455.22 255.9 451.55 253.2 447.66C240.73 429.68 231.98 407.64 228.27 385.11C244.1 383.93 259.46 380.82 274.73 375.66C290.52 370.32 306.07 363.01 321.81 353.65C322.84 353.12 323.25 351.86 322.72 350.82C322.19 349.79 320.93 349.38 319.89 349.91C303.61 356.97 287.77 362.13 271.95 365.32C256.75 368.38 241.73 369.45 226.47 368.5C226.1 361.27 226.28 354.07 227.06 347.03C230.54 315.73 246.11 287.53 278.16 273.69C281.96 278.74 288 285.85 294.45 289.28C301.91 293.24 309.83 293.51 317.21 286.49C319.97 283.86 321.64 280.56 322.35 276.86C332.32 274 338.09 265.11 339.62 252.41C340.05 248.86 340.13 244.98 339.97 240.91C358.39 233.92 376.79 235.04 393.97 241.65C391.69 248.25 387.64 254.93 382.6 261.25C372.97 273.33 360.59 284.08 350.79 290.86C349.78 291.43 349.43 292.72 350 293.73C350.57 294.74 351.86 295.09 352.86 294.52C364.29 289.28 379.08 280.32 391.3 269.53C398.51 263.16 404.53 256.07 408.69 248.79C414.16 252 419.45 255.73 424.53 259.89C457.81 287.22 482.04 332.98 484.59 373.59C484.04 374.01 483.52 374.49 483.07 375.05C476.61 384.36 465.99 394.64 453.85 404.2C442.36 413.25 429.77 421.62 418.12 427.98C416.98 428.5 416.47 429.85 416.99 430.99C417.51 432.13 418.86 432.64 420 432.12C435.38 426.43 452.58 417.98 467.59 408.62C473.26 405.09 478.56 401.4 483.32 397.68C483.19 398.39 483.05 399.11 482.9 399.81C478.81 419.28 463.29 439.97 451.82 459.62C442.97 474.78 436.45 489.47 436.61 502.56C436.83 520.86 442.73 535.8 452.09 548.5C448.9 545.31 445.88 541.89 442.81 538.42Z" fill="#C20000"/>
<path fill-rule="evenodd" clip-rule="evenodd" d="M292.38 174.54C296.88 176.08 301.77 173.68 303.31 169.18C303.81 167.26 304.29 165.34 304.75 163.42C310.73 160.3 319.19 154.34 326.96 146.12C333.49 139.21 339.6 131.2 343.27 122.45C343.83 121.47 343.48 120.22 342.5 119.66C341.52 119.1 340.27 119.45 339.71 120.43C334.56 127.41 327.42 133.21 320.13 137.94C316.15 140.52 312.17 142.63 308.51 144.27C309.48 137.64 310.06 131.01 310.11 124.37C310.21 109.47 307.88 94.77 301.36 80.26C300.98 79.2 299.8 78.65 298.74 79.03C297.68 79.42 297.13 80.59 297.51 81.65C301.5 95.93 301.66 109.79 299.49 123.5C297.33 137.18 292.66 150.44 287.01 163.61C285.47 168.11 287.87 173 292.37 174.54H292.38Z" fill="#C20000"/>
<path fill-rule="evenodd" clip-rule="evenodd" d="M253.14 110.91C253.27 109.64 252.34 108.51 251.07 108.38C249.8 108.25 248.67 109.18 248.54 110.44C246.27 122.89 241.47 132.49 235.21 139.91C231.07 144.81 226.17 148.51 220.81 151.37C220.31 151.64 219.8 151.89 219.3 152.14C219.25 152.08 219.21 152.01 219.15 151.95C210.22 142.74 201.42 132.85 193.53 122.26C185.63 111.66 178.65 100.49 173.42 88.7201C172.94 87.4901 171.55 86.8701 170.32 87.3501C169.09 87.8301 168.47 89.2201 168.95 90.4501C173.13 103.14 179.17 115.41 186.22 127.17C192.4 137.49 199.37 147.33 206.56 156.64C202.71 157.58 198.74 158.23 194.64 158.47C191.27 158.67 187.86 158.7 184.38 158.49C171.72 157.7 158.61 154.13 146.46 147.27C145.4 146.56 143.96 146.85 143.26 147.91C142.55 148.97 142.84 150.41 143.9 151.11C155.88 160.48 169.43 166.7 183.02 169.28C188.02 170.22 193.01 170.58 197.91 170.46C203.08 170.33 208.15 169.66 212.95 168.28C220.46 166.13 227.39 162.48 233.28 157.45C238.55 152.94 243.04 147.37 246.37 140.64C250.46 132.38 252.92 122.53 253.16 110.91H253.14Z" fill="#C20000"/>
<path fill-rule="evenodd" clip-rule="evenodd" d="M434.94 340.63C435.91 339.78 436 338.31 435.15 337.34C434.3 336.37 432.83 336.28 431.86 337.13C425.96 340.96 420.22 344.15 414.45 347.51C412.13 348.87 409.85 350.19 407.59 351.6C406.09 352.54 404.6 353.48 403.17 354.51C399.57 357.07 396.08 359.74 392.52 362.45C387.21 366.49 382.17 370.71 376.44 374.81C375.3 375.4 374.85 376.81 375.44 377.95C376.03 379.09 377.44 379.54 378.58 378.95C385.4 376.59 391.79 374.39 397.99 371.49C402.22 369.51 406.28 367.32 410.16 364.81C411.71 363.81 413.2 362.69 414.64 361.53C416.81 359.79 418.87 357.95 420.89 356C425.82 351.23 430.26 346.15 434.94 340.64V340.63Z" fill="#C20000"/>
</svg>
