<svg width="1262" height="1633" viewBox="0 0 1262 1633" fill="none" xmlns="http://www.w3.org/2000/svg">
<path opacity="0.15" d="M923.47 4.93066C970.628 65.3394 1014.07 128.555 1053.57 194.23C1127.28 316.84 1184.42 442.111 1208.96 527.641C1276.91 764.471 1260.47 941.93 1222.84 1072.19C1170.78 1252.37 1073.77 1411.76 931.48 1508.39C553.11 1765.37 0.78041 1532.19 7.46141 1469.5C15.6674 1392.52 884.05 1409.44 887.08 1444.49C888.49 1460.78 704.23 1493.91 537.45 1505.62C326.75 1520.4 113.127 1502.66 112.905 1486.17C112.661 1468.08 368.948 1438.53 640.12 1452.83C677.49 1454.8 713.88 1457.53 751.12 1461.16" stroke="#C20000" stroke-width="13"/>
</svg>
