<?xml version="1.0" encoding="UTF-8"?>
<svg id="Layer_2" data-name="Layer 2" xmlns="http://www.w3.org/2000/svg" viewBox="0 0 228.42 235.52">
  <defs>
    <style>
      .cls-1, .cls-2 {
        fill: #fff;
      }

      .cls-1, .cls-2, .cls-3 {
        stroke-width: 0px;
      }

      .cls-1, .cls-3 {
        fill-rule: evenodd;
      }

      .cls-3 {
        fill: #c20000;
      }
    </style>
  </defs>
  <g id="Layer_1-2" data-name="Layer 1">
    <g>
      <g>
        <path class="cls-3" d="M149.51,234.02c-14.78,0-30.5-4.32-44.27-12.17-22.96-13.09-32.13-36.09-33.18-38.91-4.73-5.74-8.47-9.17-11.78-12.21-2.08-1.9-4.04-3.7-5.93-5.79-5.92-6.55-8.79-18.16-10.51-25.09-.5-2.03-1.07-4.32-1.37-4.86-18.94-19.89-28.23-37.64-16.01-64.14-2.53-2.1-8-7.33-12.57-11.78C1.09,46.63,1.15,46.48,1.64,45.32,9.99,25.6,60.15,7.93,72.95,7.93c1.91,0,3.14.35,3.87,1.12.45.47.69,1.1.66,1.76l-.48,10.51c18.83-10.3,37.97-15.31,58.42-15.31,1.11,0,2.23.02,3.35.05h.24c2.11,0,4.26-.7,6.98-1.59,3.9-1.28,8.74-2.86,15.62-2.95h.53c23.88,0,50.2,20.69,57.47,45.18,6.9,23.26,2.28,37.4-8.69,55.29-3.1,8.35-1.52,12.08,1.33,18.82,1.31,3.09,2.8,6.6,4.18,11.33,1.12,3.85,1.7,7.97,2.16,11.28.25,1.76.51,3.65.82,5.04.01-.02,1.78-2.77,1.78-2.77l1.2,2.27c2.6,4.91,8.68,16.42-.02,21.52-.53.34-1.04.58-1.49.78-1.08.5-1.52.71-2.04,2.64-15.08,53.18-49.89,61.13-69.31,61.13h0Z"/>
        <path class="cls-2" d="M162.13,3c24.16,0,49.33,21.53,56.03,44.11,6.55,22.06,2.69,35.8-8.61,54.2-4.87,12.97.99,16.03,5.42,31.24,2.31,7.92,2.21,16.81,3.98,18.82,1.5-1.7.97-.98,2.1-2.72,2.77,5.23,7.94,15.19.54,19.53-1.98,1.26-3.29.85-4.22,4.33-12.79,45.11-40.64,60.02-67.87,60.02-15.72,0-31.25-4.98-43.53-11.97-23.76-13.54-32.61-38.36-32.61-38.36-7.88-9.62-13.11-12.92-17.92-18.25-8.11-8.97-10.38-28.37-11.85-29.92-18.68-19.6-28.07-36.92-15.28-63.62-1.79-.87-25.5-24.03-25.3-24.5C11.04,26.99,60.19,9.43,72.95,9.43c1.96,0,3.07.42,3.03,1.31l-.6,13.21c18.26-10.43,37.92-16.44,60.04-16.43,1.1,0,2.2.01,3.31.04.09,0,.19,0,.28,0,5.62,0,11.21-4.4,22.62-4.55.17,0,.34,0,.51,0M162.13,0h0c-.18,0-.36,0-.55,0-7.11.09-12.08,1.72-16.07,3.03-2.6.85-4.64,1.52-6.51,1.52-.07,0-.13,0-.2,0-1.13-.03-2.27-.05-3.39-.05-19.86,0-38.49,4.66-56.8,14.24l.36-7.88c.05-1.07-.33-2.09-1.07-2.86-1.35-1.42-3.48-1.58-4.95-1.58C59.53,6.43,9,24.09.26,44.73c-.79,1.88.38,3.14,1.52,4.36.64.68,1.55,1.63,2.72,2.81,2.19,2.22,5.22,5.22,8.33,8.24,6.47,6.29,9.9,9.47,11.79,11.11-11.82,26.61-2.43,44.56,16.58,64.58.27.71.75,2.65,1.18,4.38,1.75,7.07,4.68,18.9,10.86,25.74,1.93,2.14,3.92,3.96,6.03,5.89,3.24,2.97,6.9,6.32,11.48,11.87,1.46,3.79,10.93,26.44,33.76,39.45,13.99,7.98,29.98,12.37,45.01,12.37s29.56-4.62,41.2-13.73c13.49-10.56,23.43-26.86,29.56-48.47.35-1.29.37-1.3,1.24-1.71.45-.21,1.02-.47,1.66-.88,3.02-1.79,6.31-5.42,4.92-12.56-.81-4.19-3.04-8.41-4.38-10.93l-2.4-4.53-1.08,1.68c-.06-.41-.11-.81-.17-1.18-.47-3.36-1.05-7.53-2.21-11.49-1.4-4.82-2.97-8.52-4.24-11.5-2.78-6.56-4.19-9.89-1.36-17.58,11.14-18.2,15.82-32.63,8.77-56.38-3.44-11.58-11.63-23.24-22.46-32C187.21,5.06,174.27,0,162.13,0h0Z"/>
      </g>
      <path class="cls-1" d="M82.82,144.52c10.13-43.84,53.97-77.38,97.87-56.38,13.07,6.25,22.06,23.03,21.08,36.47-.53,7.23,11.14,3.66,7.61,32.33-4.45.42-7.46-2.42-10.6-4.11-4.72-2.53-6.68-1.77-12.55-2.38,1.55-18.59-16.05-17.07-16.65-28.31-1.12-20.93,20.95-11.15,26.22-9.68,1.2-8.83-10.47-23.97-23.35-14.39-13.59,10.11-15.59,26.03-2.94,37.64,3.88,3.56,10.49,7.07,10.09,12.82-.82,11.81-16.72,4.76-25.19,5.49-13.23,2.89-8.79-10.24-8.8-11.35-8.59-.63-7.71,7.22-7.75,10.88-3.1,2.89-13.83,10.6-18.51,12.08-15.67,4.95-12.69-11.41-14.05-13.05-4.03,1.41-6.68,7.9-6.5,13.44.71,22.55,23.71,17.08,36.91,13.54,3.69,4.22,6.35,7.59,11.18,10.68,10.34,6.62,24.23,5.09,32.52-2.43,5.98-5.42,6.13-8.76,8.64-12.86,9.78,1.68,10,1.89,19.59.04-.5,7.49-6.12,18.23-9.46,23.4-8.52,13.17-27.96,23.52-45.05,22.55-13.33-.75-18.22-10.71-22.57-9.7-.39,2.5,3.85,7.1,5.27,8.5,3.68,3.62,5.63,3.51,8.53,5.54-20.51.3-46.17-16.48-57.17-34.16-6.64-10.67-7.51-16.88-9.09-21.34-19.28.48-30.63-30.7-18.68-37.61,4.44-2.57,10.81-.15,15.87,4.73,3.78,3.64,6.02,6.94,7.51,7.62Z"/>
      <path class="cls-1" d="M145.03,175.36c12.85-3.79,17.54,3.95,28.75-1.64,4.49-2.24,10.88-2.71,4.71,3.58-8.34,8.53-25.39,6.08-33.46-1.94Z"/>
      <path class="cls-1" d="M16.75,44.42c4.02-4.36,7.33-5.99,9.45-8.18,3.66,4.73,8.83,12.98,11.29,18.34-1.55,2.04-3.02,4.14-4.38,6.3-4.46-5.02-11.49-12.23-16.36-16.46h0ZM32.53,32.17l9.64,16.7c2.42-2.75,4.96-5.33,7.54-7.71-.79-3.86-3.47-12.72-4.89-15.11-3.24.74-10.32,4.26-12.29,6.12h0ZM51.19,23.48c1.99-1.46,10.83-3.83,14.12-3.82-.15,2.66.38,6.96-.52,9.76-3.46,2.36-6.93,4.86-10.19,7.5l-3.41-13.44h0ZM40.1,101.19c2.81.58,8.91,6.38,10,8.88-4.3,14.54-9.04-5.55-10-8.88h0ZM43.95,95.7c2.26,1.77,7.99,7.76,11.16,8.49,1.55-3.35,11.2-12.91,16.08-18.04,4.41-4.64,1.25-4.36-5.32-8.39-2.81-1.73-5.51-3.25-6.51-3.57-4.85,5.02-13.22,13.61-15.41,21.51h0ZM64.33,69.34c1.93-3.3,15.3-13.85,19.25-16.83,5.59-4.22,4.8-5.25,11.18-1.73,11.71,6.47,13.54,4.98,4.82,11.83-4.88,3.84-11.42,8.93-15.99,12.33-6.5,4.84-4.75,4.29-11.7-.75-2.58-1.87-5.2-3.74-7.57-4.85h0ZM171.48,54.74c1.52-2.41,3.42-3.25,5.71-4.89,6.76-4.82,22.64,15.06,28.43,19.18,1.82,1.29,1.55.51,1.45,3.63-.11,3.46-1.67,9.06-3.28,11.8-6.06-7.85-11.33-14.52-16.94-20.09-3.85-3.81-6.36-7.23-15.37-9.64h0ZM100.8,40.3c-1.79,1.1-6,2.81-4.23,4.11l7.03,4.02c9.6,6.21,5.7,6.45,15.93-.47l12.14-8.21c6.94-4.82,9.83-3.39,2.25-8.01-4.51-2.76-8.47-5.13-11.82-3.52-1.91.92-3.84,1.91-5.6,2.88l-15.7,9.21h0ZM133.88,23.83c1.65-1.79,13.25-5.84,16.37-6.87,5.12-1.69,7.41-2.44,9.17-2.65,17.12-2.01,3.54,5.36-2.23,9.08-3.74,2.42-8.17,5.96-12.04,8.05-1.81-.58-4.54-2.33-6.25-3.35-1.71-1.02-4.47-2.1-5.02-4.26Z"/>
      <path class="cls-1" d="M55.34,113.96c2.03.54,7.03,4.64,7.74,7.58-10.92,2.96-13.65,5.25-7.74-7.58h0ZM60.47,108.46c.92,2.43,5.71,6.68,9.38,9.24,5.58,3.88,5.96-2.18,12.12-8.49,8.31-8.51,15.64-10.71-1.63-20.47-1.95.93-12.47,11.05-15.47,14.31-1.48,1.62-2.77,3.74-4.4,5.41h0ZM85.34,84.14c1.66-2.39,16.11-13.22,19.61-15.76,6.98-5.06,6.44-6.22,10.39-3.28,13.86,10.3,7.72,9.71-4.88,19.28-1.82,1.38-6.67,5.47-10.14,8.16-4.45,3.46-3.27,2.72-7.46-1.48-2.59-2.6-5.43-5.37-7.53-6.92h0ZM43.73,67.58c1.51.17,4.36,1.47,5.7,1.95-13.61,16.49-15.3,20.07-5.7-1.95h0ZM152.81,67.92c4.72-11.64,28.37-3.75,34.11,8.83-11.2-.72-24.14-8.42-34.11-8.83h0ZM118.28,58.73c.61,1.11,9.83,9.22,11.41,10.1.78.1,16.98-12.03,20.51-14.51,8.35-5.88,8.72-6.87-3.56-14.55-2.26.69-11.5,7.55-14.1,9.33-3.67,2.51-11.65,6.94-14.26,9.63h0ZM47.14,62.52c2.2-3.15,8.62-9.41,11.64-12.39,6.91-6.83,6.96-7.32,16.58-4.99-.97,1.61-1.81,2.02-3.39,3.22l-9.72,8.73c-7,6.17-6.17,8.19-10.66,7.02-2.07-.54-3.24-.59-4.45-1.58h0ZM195.99,32.36c4.38,3.82,11.71,17.69,11.38,26.29-6-6.41-6-7.27-13.83-13.94-6.56-5.6-4.03-4.38,2.45-12.34h0ZM170.59,22.36c4.33-3.24,4.35-5.54,9.71-2.76,2.73,1.41,4.94,2.88,7.52,4.43,5.17,4.32-20.95,18.48-25.22,21.26l-10.53-9,18.52-13.93h0ZM71.57,40.06c6.48-5.84,55.1-29.56,29.1-12.34l-17.21,12.21c-2.27,1.74-2.65,1.38-5.66.91-2.03-.32-4.25-.41-6.24-.78Z"/>
      <g>
        <path class="cls-3" d="M177.21,196.49c-4.33,2.15-6.74,4.05-14.08,3.94-9.29-.13-10.36-1.82-14.3-3.85-.72,12.93,26.16,16.73,28.38-.09Z"/>
        <path class="cls-3" d="M143.79,131.77c1.18-3.91-4.54-8.41-7.5-9.5-8.33-3.07-16.1,5.03-14.45,9.99.9,2.72,4.25,1.09,6.22.63,4.55-1.06,14.09-.43,15.73-1.11Z"/>
        <path class="cls-3" d="M196.16,127.11c.99-3.29-3.81-7.07-6.3-7.98-7.01-2.58-13.53,4.23-12.14,8.39.76,2.29,3.57.91,5.23.53,3.83-.89,11.84-.36,13.22-.94Z"/>
        <path class="cls-3" d="M62.37,145.23c1.29,1.37,2.86.52,4.21,2.61,2.17,3.35,2.41,8.36,4.19,9.3,2.11,1.1,3.42-.6,3.62-2.44.41-3.82-1.53-12.7-8.09-12.05-1.64.16-3.82.8-3.93,2.57Z"/>
        <path class="cls-3" d="M112.28,119.65c3.94-.62,2.48-7.9,15.46-7.97,10.14-.4,11.33,6.34,17.46,6.65,8.29-23.33-35.13-27.67-35.4-6.62-.03,2.51,1.07,6.63,2.47,7.95Z"/>
      </g>
    </g>
  </g>
</svg>